<svg width="54" height="54" viewBox="0 0 54 54" fill="none" xmlns="http://www.w3.org/2000/svg">
<path d="M42.3003 21.4364C42.0548 21.4364 41.8094 21.3545 41.6457 21.1091C40.9094 20.2091 34.6094 12.1091 34.6094 8.26364C34.6094 4.17273 38.1276 0.81818 42.3821 0.81818C46.5548 0.81818 49.9912 4.17273 49.9912 8.26364C49.9912 12.1091 43.6912 20.2091 42.9548 21.1091C42.7912 21.3545 42.5457 21.4364 42.3003 21.4364ZM42.3821 2.45454C39.0276 2.45454 36.2457 5.07273 36.2457 8.26364C36.2457 10.8 40.173 16.4455 42.3003 19.3091C44.4276 16.4455 48.3548 10.8 48.3548 8.26364C48.3548 5.07273 45.6548 2.45454 42.3821 2.45454Z" fill="#D00404"/>
<path d="M27.8169 53.1818C26.2624 53.1818 24.9533 53.1 23.8078 52.8545C23.3987 52.7727 23.0714 52.3636 23.1533 51.8727C23.2351 51.4636 23.6442 51.1364 24.1351 51.2182C25.1987 51.4636 26.426 51.5455 27.8169 51.5455C40.0078 51.5455 49.9896 41.6455 49.9896 29.4545C49.9896 24.6273 48.3533 19.8 45.4078 15.9545C45.1624 15.6273 45.1624 15.0545 45.5714 14.8091C45.8987 14.5636 46.4715 14.5636 46.7169 14.9727C49.9078 19.1455 51.626 24.2182 51.626 29.4545C51.626 42.5455 40.9078 53.1818 27.8169 53.1818ZM6.13509 37.8818C5.80781 37.8818 5.48054 37.6364 5.39872 37.3091C4.49872 34.6909 4.00781 32.0727 4.00781 29.4545C4.00781 26.2636 4.58054 23.2364 5.88963 20.2091C7.68963 16.1182 10.4714 12.6818 13.9896 10.1455C17.9987 7.28182 22.826 5.72727 27.8169 5.72727C28.7169 5.72727 29.6987 5.72727 30.6805 5.89091C32.3169 6.05454 34.1169 6.46364 35.9169 7.03636C36.326 7.2 36.5714 7.69091 36.4078 8.1C36.2442 8.50909 35.7533 8.75454 35.3442 8.59091C33.7078 8.01818 32.0714 7.60909 30.4351 7.52727C29.5351 7.36364 28.7169 7.36364 27.8169 7.36364C23.1533 7.36364 18.7351 8.75454 14.9714 11.4545C11.6987 13.8273 9.08054 17.1 7.36236 20.8636C6.2169 23.7273 5.64418 26.5091 5.64418 29.4545C5.64418 31.9091 6.05327 34.3636 6.87145 36.8182C7.03508 37.2273 6.78963 37.7182 6.38054 37.8818H6.13509Z" fill="#D00404"/>
<path d="M42.8711 43.2818C41.3165 43.2818 39.8438 42.8727 38.6165 41.9727C38.4529 41.8091 38.2893 41.7273 38.1256 41.5636C37.4711 41.0727 36.8984 40.5818 36.3256 40.6636H35.7529C35.5893 40.7455 35.4256 40.9091 35.1802 41.1545C34.1984 41.8091 32.9711 42.0545 31.8256 41.7273C30.5984 41.4818 29.6165 40.7455 29.0438 39.8455C28.6347 39.2727 28.6347 38.6182 28.7984 37.8818C29.2893 36.2455 31.2529 34.9364 32.4802 34.2818C32.4802 33.9545 32.3165 33.1364 32.2347 32.7273C32.0711 31.8273 31.8256 31.0091 31.9075 30.4364C32.0711 29.7818 32.4802 29.2091 33.0529 28.8818C33.7075 28.4727 34.6893 28.3091 35.5075 28.5545C36.4893 28.8 37.1438 29.4545 37.7984 29.9454C37.962 30.1091 38.1256 30.2727 38.2893 30.3545C39.0256 30.9273 39.762 31.5 40.4984 31.4182C40.8256 31.4182 41.1529 31.2545 41.562 31.1727C42.2165 30.9273 42.9529 30.6818 43.7711 30.9273C44.7529 31.1727 45.3256 31.9091 45.8984 32.5636C46.1438 32.8909 46.3893 33.2182 46.6347 33.3818C46.8802 33.5455 47.2893 33.3818 47.5347 33.3C48.6802 32.8091 49.8256 31.4182 49.9893 30.6C50.0711 30.1909 50.4802 29.8636 50.8893 29.9454C51.2984 30.0273 51.6256 30.4364 51.5438 30.8455C51.2984 32.3182 49.7438 34.1182 48.1893 34.7727C47.2075 35.1818 46.3075 35.1818 45.6529 34.6909C45.2438 34.3636 44.9165 33.9545 44.5893 33.5455C44.1802 33.0545 43.8529 32.5636 43.362 32.4818C42.9529 32.4 42.5438 32.5636 42.0529 32.7273C41.6438 32.8909 41.1529 33.0545 40.5802 33.0545C39.1075 33.1364 37.962 32.2364 37.2256 31.6636C37.062 31.5 36.8165 31.3364 36.6529 31.1727C36.0802 30.6818 35.5893 30.2727 35.0165 30.1091C34.6075 30.0273 34.1165 30.1091 33.7893 30.2727C33.6256 30.3545 33.462 30.5182 33.462 30.7636C33.462 31.0091 33.6256 31.8273 33.7075 32.4C34.0347 33.7909 34.362 35.1818 33.3802 35.6727C32.0711 36.3273 30.5984 37.4727 30.2711 38.4545C30.1893 38.7818 30.2711 38.9454 30.2711 39.1091C30.5984 39.6818 31.2529 40.0909 31.9893 40.2545C32.7256 40.4182 33.5438 40.3364 34.1165 39.9273C34.4438 39.6818 34.5256 39.6 34.6075 39.5182C34.9347 39.1909 35.262 39.1091 35.6711 39.1091H36.162C37.3075 39.0273 38.2893 39.7636 39.1075 40.4182C39.2711 40.5 39.4347 40.6636 39.5984 40.7455C40.9075 41.6455 42.6256 41.9727 44.262 41.5636C45.9802 41.0727 47.0438 40.5818 47.6984 39.2727C47.862 38.8636 48.3529 38.7 48.762 38.9454C49.1711 39.1091 49.3347 39.6 49.0893 40.0091C48.1075 42.0545 46.3075 42.6273 44.5893 43.1182C44.0984 43.2 43.4438 43.2818 42.8711 43.2818ZM42.462 24.9545C40.0075 24.9545 37.962 22.9091 37.962 20.4545C37.962 18.9818 38.6165 17.6727 39.762 16.8545C40.0893 16.6091 40.662 16.6909 40.9075 17.0182C41.1529 17.3455 41.0711 17.9182 40.7438 18.1636C40.0075 18.6545 39.5984 19.5545 39.5984 20.4545C39.5984 22.0909 40.8256 23.3182 42.462 23.3182C44.0984 23.3182 45.3256 22.0909 45.3256 20.4545C45.3256 19.5545 44.9165 18.7364 44.1802 18.1636C43.8529 17.9182 43.7711 17.3455 44.0165 17.0182C44.262 16.6909 44.7529 16.6091 45.162 16.8545C46.3075 17.6727 46.962 18.9818 46.962 20.4545C46.962 22.9091 44.9165 24.9545 42.462 24.9545ZM42.3802 12.0273C40.4165 12.0273 38.862 10.4727 38.862 8.50909C38.862 6.54545 40.4165 4.99091 42.3802 4.99091C44.3438 4.99091 45.8984 6.54545 45.8984 8.50909C45.8984 10.4727 44.3438 12.0273 42.3802 12.0273ZM42.3802 6.62727C41.3165 6.62727 40.4984 7.44545 40.4984 8.50909C40.4984 9.57272 41.3165 10.3909 42.3802 10.3909C43.4438 10.3909 44.262 9.57272 44.262 8.50909C44.262 7.44545 43.4438 6.62727 42.3802 6.62727ZM23.3165 52.9364H5.64382C3.84382 52.9364 2.37109 51.4636 2.37109 49.6636V39.5182C2.37109 37.7182 3.84382 36.2455 5.64382 36.2455H23.3165C25.1165 36.2455 26.5893 37.7182 26.5893 39.5182V49.6636C26.5893 51.4636 25.1165 52.9364 23.3165 52.9364ZM5.64382 37.8818C4.74382 37.8818 4.00746 38.6182 4.00746 39.5182V49.6636C4.00746 50.5636 4.74382 51.3 5.64382 51.3H23.3165C24.2165 51.3 24.9529 50.5636 24.9529 49.6636V39.5182C24.9529 38.6182 24.2165 37.8818 23.3165 37.8818H5.64382Z" fill="#D00404"/>
<path d="M18.7328 37.8818H10.2237C9.73281 37.8818 9.40554 37.5545 9.40554 37.0636V34.9364C9.40554 33.3 10.7146 31.9909 12.351 31.9909H16.6055C18.2419 31.9909 19.551 33.3 19.551 34.9364V37.0636C19.551 37.5545 19.2237 37.8818 18.7328 37.8818ZM11.0419 36.2455H17.9146V34.9364C17.9146 34.2 17.3419 33.6273 16.6055 33.6273H12.351C11.6146 33.6273 11.0419 34.2 11.0419 34.9364V36.2455ZM14.4783 45.4091C9.89645 45.4091 5.6419 44.3455 2.86009 42.4636C2.45099 42.2182 2.36918 41.7273 2.61463 41.4C2.86009 40.9909 3.35099 40.9091 3.76009 41.1545C6.29645 42.8727 10.2237 43.7727 14.5601 43.7727C18.8965 43.7727 22.8237 42.7909 25.4419 41.1545C25.851 40.9091 26.3419 40.9909 26.5874 41.4C26.8328 41.8091 26.751 42.3 26.3419 42.5455C23.3965 44.3455 19.1419 45.4091 14.4783 45.4091Z" fill="#D00404"/>
<path d="M14.4794 47.7C13.9884 47.7 13.6612 47.3727 13.6612 46.8818V41.8091C13.6612 41.3182 13.9884 40.9909 14.4794 40.9909C14.9703 40.9909 15.2975 41.3182 15.2975 41.8091V46.8818C15.2975 47.3727 14.9703 47.7 14.4794 47.7ZM21.843 29.0455C21.2703 29.0455 20.6975 28.8818 20.2066 28.6364C18.9794 27.9 18.4884 26.6727 17.9975 25.4455C17.6703 24.5455 17.2612 23.6455 16.6884 23.1545C16.0339 22.5818 14.8884 22.4182 13.743 22.3364H13.0066C12.0248 22.2545 10.8794 22.2545 9.81572 21.6818C8.42481 20.9455 7.36118 18.0818 7.85209 16.5273C8.01572 16.1182 8.50663 15.8727 8.91572 16.0364C9.32481 16.2 9.57027 16.6909 9.40663 17.1C9.16118 17.9182 9.89754 19.8818 10.5521 20.2909C11.2066 20.6182 12.1066 20.7 13.0066 20.7H13.743C15.1339 20.7818 16.6066 21.0273 17.6703 21.8455C18.5703 22.6636 19.0612 23.8091 19.4703 24.7909C19.8794 25.7727 20.2066 26.7545 20.943 27.1636C22.0066 27.7364 23.4794 27.0818 24.2157 26.0182C24.8703 25.0364 25.1157 23.5636 24.8703 21.6818C24.8703 21.3545 25.0339 21.0273 25.2794 20.8636C25.6066 20.7 25.9339 20.7 26.1794 20.9455C27.3248 21.8455 29.2885 21.6 30.2703 20.4545C30.6794 19.8818 30.9248 19.1455 30.7612 18.3273C30.5975 17.5091 30.1884 16.8545 29.6157 16.5273C28.8794 15.9545 27.8975 15.7909 26.9157 15.6273C26.5885 15.5455 26.1794 15.4636 25.8521 15.3818C23.2339 14.7273 22.2521 13.5 22.0066 12.5182C21.5975 11.2909 22.0066 9.9 23.0703 8.67272C23.2339 8.50909 23.3157 8.34545 23.4794 8.18182C24.2157 7.28182 25.1975 6.21818 26.1794 5.72727C26.5884 5.56363 27.0794 5.72727 27.243 6.05454C27.4066 6.46363 27.243 6.95454 26.9157 7.11818C26.2612 7.44545 25.3612 8.42727 24.7884 9.16363C24.6248 9.32727 24.4612 9.57272 24.2975 9.65454C23.8066 10.2273 23.3157 11.1273 23.5612 11.8636C23.8884 12.8455 25.1975 13.3364 26.2612 13.5818C26.5884 13.6636 26.9157 13.7455 27.243 13.7455C28.3884 13.9909 29.5339 14.1545 30.5157 14.8909C31.4157 15.4636 32.1521 16.5273 32.3157 17.8364C32.5612 19.0636 32.2339 20.2909 31.4975 21.2727C30.7612 22.1727 29.6975 22.8273 28.4703 22.9091C27.8157 22.9909 27.1612 22.9091 26.5066 22.7455C26.5066 24.3 26.1794 25.6091 25.5248 26.6727C24.7885 28.1455 23.3157 29.0455 21.843 29.0455Z" fill="#D00404"/>
</svg>
