<svg width="54" height="54" viewBox="0 0 54 54" fill="none" xmlns="http://www.w3.org/2000/svg">
<path d="M18.7299 29.169L18.0936 28.5291C17.9273 28.3615 17.7294 28.2285 17.5115 28.1378C17.2935 28.047 17.0598 28.0003 16.8237 28.0003C16.5876 28.0003 16.3538 28.047 16.1359 28.1378C15.9179 28.2285 15.7201 28.3615 15.5538 28.5291L11.7387 32.3604C11.4006 32.7011 11.2109 33.1616 11.2109 33.6416C11.2109 34.1215 11.4006 34.582 11.7387 34.9227L12.3741 35.5608C12.5403 35.7283 12.7381 35.8613 12.956 35.9521C13.1738 36.0428 13.4075 36.0895 13.6435 36.0895C13.8796 36.0895 14.1132 36.0428 14.3311 35.9521C14.549 35.8613 14.7468 35.7283 14.913 35.5608L18.729 31.7295C19.0668 31.3891 19.2565 30.929 19.2567 30.4494C19.2568 29.9698 19.0675 29.5096 18.7299 29.169ZM21.2778 44.5032C21.6188 44.8302 22.073 45.0128 22.5454 45.0128C23.0179 45.0128 23.4721 44.8302 23.8131 44.5032V44.4987L27.6291 40.6719L27.6345 40.6674C27.9716 40.3273 28.1607 39.8678 28.1607 39.389C28.1607 38.9101 27.9716 38.4506 27.6345 38.1105L26.9991 37.4706C26.6577 37.1427 26.2026 36.9595 25.7292 36.9595C25.2558 36.9595 24.8007 37.1427 24.4593 37.4706L20.6442 41.3019C20.3058 41.6421 20.1159 42.1023 20.1159 42.5822C20.1159 43.062 20.3058 43.5222 20.6442 43.8624L21.2778 44.5032ZM25.731 48.9717C25.8972 49.139 26.0948 49.2717 26.3126 49.3623C26.5303 49.4529 26.7637 49.4995 26.9995 49.4995C27.2353 49.4995 27.4688 49.4529 27.6865 49.3623C27.9042 49.2717 28.1019 49.139 28.2681 48.9717L32.0814 45.1413C32.4194 44.8013 32.6092 44.3414 32.6092 43.862C32.6092 43.3825 32.4194 42.9226 32.0814 42.5826L31.4514 41.9382C31.1133 41.6019 30.6556 41.4135 30.1788 41.4144C29.9447 41.4141 29.7129 41.4601 29.4967 41.5497C29.2805 41.6393 29.0841 41.7707 28.9188 41.9364L25.1037 45.7668C24.7666 46.1069 24.5775 46.5664 24.5775 47.0452C24.5775 47.5241 24.7666 47.9836 25.1037 48.3237L25.731 48.9717ZM18.0954 40.5612C18.3317 40.5618 18.5658 40.5153 18.784 40.4244C19.0022 40.3335 19.2001 40.2002 19.3662 40.032L23.1813 36.2016C23.5194 35.8609 23.7091 35.4004 23.7091 34.9204C23.7091 34.4405 23.5194 33.98 23.1813 33.6393L22.5459 32.9994C22.3793 32.8321 22.1814 32.6994 21.9634 32.6088C21.7453 32.5183 21.5116 32.4716 21.2755 32.4716C21.0395 32.4716 20.8057 32.5183 20.5877 32.6088C20.3697 32.6994 20.1718 32.8321 20.0052 32.9994L16.1901 36.8316C15.852 37.1723 15.6623 37.6328 15.6623 38.1128C15.6623 38.5927 15.852 39.0532 16.1901 39.3939L16.8264 40.032C16.9923 40.1999 17.1899 40.3332 17.4077 40.4241C17.6256 40.5149 17.8594 40.5615 18.0954 40.5612Z" fill="#D00404"/>
<path d="M32.0876 22.1499L42.263 32.3685C42.6041 32.6968 43.059 32.8802 43.5324 32.8802C44.0058 32.8802 44.4608 32.6968 44.8019 32.3685L45.4382 31.7295C45.7763 31.3892 45.9662 30.929 45.9662 30.4493C45.9662 29.9695 45.7763 29.5093 45.4382 29.169L31.4468 15.12C31.2769 14.9555 31.0497 14.8635 30.8132 14.8635C30.5767 14.8635 30.3495 14.9555 30.1796 15.12L23.1848 22.14C22.6843 22.6429 22.0893 23.0419 21.4342 23.3142C20.779 23.5865 20.0765 23.7267 19.367 23.7267C18.6575 23.7267 17.955 23.5865 17.2998 23.3142C16.6446 23.0419 16.0497 22.6429 15.5492 22.14C15.0443 21.6315 14.761 20.944 14.761 20.2275C14.761 19.511 15.0443 18.8235 15.5492 18.315L25.6967 8.1279C22.9624 5.68988 19.3972 4.39334 15.7356 4.50535C12.074 4.61737 8.59472 6.12941 6.01458 8.73C3.31787 11.4485 1.80469 15.1226 1.80469 18.9518C1.80469 22.7809 3.31787 26.455 6.01458 29.1735L9.54528 32.7195C9.7008 32.1046 10.017 31.5421 10.4615 31.0896L14.2766 27.2583C14.6103 26.9228 15.007 26.6565 15.444 26.4748C15.8809 26.2932 16.3495 26.1996 16.8227 26.1996C17.2959 26.1996 17.7645 26.2932 18.2014 26.4748C18.6383 26.6565 19.0351 26.9228 19.3688 27.2583L20.0042 27.8982C20.3695 28.2676 20.6503 28.7119 20.8271 29.2005C21.004 29.689 21.0726 30.2101 21.0284 30.7278C21.5378 30.687 22.0501 30.7552 22.5312 30.9277C23.0122 31.1003 23.451 31.3733 23.8184 31.7286L24.4547 32.3685C24.8158 32.7341 25.0942 33.1729 25.2712 33.6553C25.4482 34.1377 25.5196 34.6524 25.4807 35.1648C25.5626 35.1594 25.6418 35.1414 25.7246 35.1414C26.1979 35.1404 26.6667 35.2335 27.1038 35.4152C27.5409 35.5969 27.9375 35.8636 28.2707 36.1998L28.9061 36.8397C29.2715 37.2092 29.5524 37.6537 29.7292 38.1424C29.9061 38.6311 29.9747 39.1524 29.9303 39.6702C30.4394 39.6301 30.9513 39.6983 31.4322 39.8704C31.9131 40.0424 32.3521 40.3143 32.7203 40.6683L33.3377 41.2983C33.3431 41.3028 33.3503 41.3046 33.3548 41.3091C33.5211 41.4767 33.7189 41.6097 33.9369 41.7004C34.1548 41.7912 34.3886 41.8379 34.6247 41.8379C34.8608 41.8379 35.0945 41.7912 35.3125 41.7004C35.5304 41.6097 35.7283 41.4767 35.8946 41.3091L36.5309 40.6692C36.8683 40.3289 37.0576 39.8691 37.0576 39.3899C37.0576 38.9106 36.8683 38.4508 36.5309 38.1105L26.36 27.891C26.2765 27.8072 26.2104 27.7078 26.1654 27.5984C26.1204 27.4891 26.0973 27.3719 26.0976 27.2537C26.0978 27.1354 26.1214 27.0184 26.1669 26.9092C26.2123 26.8001 26.2789 26.7009 26.3627 26.6175C26.4465 26.5341 26.5459 26.4679 26.6552 26.4229C26.7646 26.3779 26.8817 26.3548 27 26.3551C27.2388 26.3556 27.4677 26.451 27.6362 26.6202L37.8116 36.8397C38.153 37.1674 38.6078 37.3503 39.081 37.3503C39.5542 37.3503 40.0091 37.1674 40.3505 36.8397L40.9859 36.2007C41.3239 35.8602 41.5136 35.3998 41.5136 34.92C41.5136 34.4402 41.3239 33.9798 40.9859 33.6393L30.8114 23.4207C30.7279 23.3369 30.6618 23.2375 30.6168 23.1281C30.5718 23.0188 30.5487 22.9016 30.549 22.7834C30.5492 22.6651 30.5728 22.5481 30.6183 22.4389C30.6637 22.3298 30.7303 22.2306 30.8141 22.1472C30.8979 22.0638 30.9973 21.9976 31.1066 21.9526C31.216 21.9076 31.3331 21.8846 31.4514 21.8848C31.6902 21.8853 31.9191 21.9807 32.0876 22.1499Z" fill="#D00404"/>
<path d="M47.6303 29.5272L47.9804 29.1753C50.6771 26.4569 52.1903 22.783 52.1903 18.954C52.1903 15.125 50.6771 11.4511 47.9804 8.7327C46.6477 7.39214 45.0631 6.3283 43.3178 5.60235C41.5724 4.87641 39.7007 4.50269 37.8104 4.50269C35.9201 4.50269 34.0485 4.87641 32.3031 5.60235C30.5578 6.3283 28.9732 7.39214 27.6404 8.7327L16.8269 19.5894C16.6576 19.76 16.5625 19.9907 16.5625 20.2311C16.5625 20.4715 16.6576 20.7022 16.8269 20.8728C17.5104 21.5294 18.4213 21.896 19.369 21.896C20.3167 21.896 21.2276 21.5294 21.911 20.8728L28.9058 13.8528C29.4195 13.36 30.1038 13.0848 30.8156 13.0848C31.5275 13.0848 32.2118 13.36 32.7254 13.8528L46.7132 27.9C47.1579 28.3515 47.4744 28.9131 47.6303 29.5272Z" fill="#D00404"/>
</svg>
