<svg width="54" height="54" viewBox="0 0 54 54" fill="none" xmlns="http://www.w3.org/2000/svg">
<path d="M50.5767 11.4106V9.85104C50.5767 8.46576 49.4174 8.09784 48.9797 7.95816C35.6993 3.7476 23.429 3.76056 11.4706 7.99992C10.8845 8.20728 9.79297 8.59392 9.79297 9.99288V11.3119C9.79297 13.2185 11.6088 14.0134 11.8406 13.0471C11.8573 12.9781 11.8601 12.9065 11.849 12.8363C11.8379 12.7662 11.8131 12.699 11.776 12.6385C11.7389 12.5779 11.6902 12.5253 11.6327 12.4836C11.5752 12.442 11.5101 12.412 11.441 12.3955C11.1674 12.3307 10.873 11.8973 10.873 11.3119V9.99288C10.873 9.45288 11.1242 9.26856 11.8306 9.018C23.5608 4.86 35.605 4.85064 48.6535 8.98776C49.2994 9.19296 49.4967 9.39456 49.4967 9.85176V11.4106C49.4967 11.9354 49.2389 12.3214 48.9998 12.379C48.9309 12.3955 48.8658 12.4255 48.8084 12.4672C48.751 12.509 48.7024 12.5616 48.6654 12.6221C48.6283 12.6826 48.6036 12.7498 48.5925 12.8199C48.5815 12.89 48.5843 12.9616 48.601 13.0306C48.8242 13.9594 50.5767 13.2307 50.5767 11.4106Z" fill="#D00404"/>
<path d="M47.0259 12.6778C47.0253 12.1599 46.8193 11.6634 46.4531 11.2972C46.0869 10.931 45.5904 10.725 45.0725 10.7244H43.9688C43.6433 10.7249 43.3232 10.8068 43.0375 10.9626C42.7518 11.1184 42.5096 11.3432 42.3329 11.6165C41.2659 10.2773 38.8049 9.96048 37.1576 11.8231C36.9472 11.4709 36.6493 11.179 36.2927 10.976C35.9362 10.773 35.5331 10.6658 35.1229 10.6646H32.2709C31.9275 10.6658 31.5888 10.7442 31.2797 10.8938C30.9707 11.0435 30.6992 11.2607 30.4853 11.5294C30.2712 11.2747 30.0041 11.0697 29.7027 10.9287C29.4013 10.7877 29.0728 10.7141 28.7401 10.7129H25.8889C25.0234 10.7129 24.2717 11.1802 23.8534 11.8714C22.2046 10.003 19.7422 10.3277 18.6781 11.6647C18.5015 11.3912 18.2594 11.1663 17.9737 11.0103C17.6879 10.8544 17.3677 10.7724 17.0422 10.7719H15.9377C15.4198 10.7725 14.9233 10.9785 14.5571 11.3447C14.1909 11.7109 13.9849 12.2074 13.9844 12.7253V15.6168C13.9844 16.1496 14.3969 16.5888 14.9204 16.6291C15.8362 16.8631 16.688 16.8638 17.5865 16.6306C17.7363 16.6234 17.8781 16.5874 18.0128 16.5377C18.0956 17.7235 18.9675 18.7258 20.9461 18.743C21.0757 18.7618 21.3781 18.7999 21.7561 18.7999C22.3191 18.7999 23.0463 18.7099 23.6295 18.3578C23.7755 18.7902 24.0531 19.1661 24.4234 19.4328C24.7937 19.6996 25.2381 19.8438 25.6945 19.8454H28.3239C28.7546 19.8445 29.1789 19.7411 29.5618 19.5438C29.9446 19.3465 30.275 19.0609 30.5257 18.7106C30.7771 19.0469 31.1032 19.3202 31.4783 19.5088C31.8534 19.6975 32.2672 19.7964 32.6871 19.7978H35.3165C36.2777 19.7978 37.087 19.1714 37.3815 18.3096C38.1346 18.7639 39.2103 18.8194 40.0649 18.6948C42.0428 18.6768 42.9161 17.6746 42.9982 16.4894C43.1329 16.5391 43.274 16.5751 43.4245 16.583C44.3173 16.8142 45.1683 16.817 46.0913 16.5816C46.346 16.5612 46.5836 16.4456 46.7569 16.2579C46.9303 16.0701 47.0265 15.824 47.0266 15.5686L47.0259 12.6778ZM17.9149 15.1466C17.9147 15.2544 17.8717 15.3577 17.7955 15.4338C17.7192 15.51 17.6158 15.5527 17.5081 15.5527C17.2604 15.5527 16.4936 15.9286 15.1371 15.5707C15.1129 15.5645 15.0884 15.5597 15.0637 15.5563V12.7253C15.0637 12.2443 15.4553 11.8526 15.937 11.8526H17.0415C17.5239 11.8526 17.9149 12.2443 17.9149 12.7253V15.1466ZM21.0757 17.6702C20.9122 17.6458 19.8373 17.712 19.3441 17.1338C18.974 16.699 19.1209 16.2086 19.0906 16.0394C18.9106 15.0062 19.0186 13.9262 19.1403 13.2026C19.4765 11.1924 22.3321 11.1247 23.4063 13.0946C23.4308 13.1407 23.4675 13.1753 23.5028 13.2113V17.0078C23.4564 17.0443 23.4165 17.0884 23.3847 17.1382C22.9844 17.8106 21.5473 17.7444 21.0757 17.6702ZM29.9648 17.123C29.9644 17.5584 29.7913 17.9758 29.4836 18.2837C29.1758 18.5916 28.7585 18.7648 28.3232 18.7654H25.6937C25.3992 18.765 25.1169 18.6478 24.9086 18.4395C24.7003 18.2313 24.5832 17.9489 24.5828 17.6544V13.0975C24.5828 12.3782 25.1681 11.7929 25.8874 11.7929H28.7393C29.4154 11.7929 29.9648 12.3422 29.9648 13.0183V17.1238V17.123ZM36.4268 17.6069C36.4268 18.2189 35.9285 18.7178 35.3158 18.7178H32.6864C32.2512 18.7173 31.834 18.5441 31.5262 18.2364C31.2185 17.9287 31.0453 17.5114 31.0448 17.0762V12.9694C31.0448 12.294 31.5941 11.7454 32.2702 11.7454H35.1221C35.8421 11.7454 36.4268 12.33 36.4268 13.0486V17.6069ZM41.672 17.077C41.3797 17.4276 40.808 17.6134 40.0203 17.6148C39.9389 17.6148 38.1051 17.8956 37.6249 17.0899C37.5931 17.0402 37.5532 16.9961 37.5068 16.9596V13.163C37.5428 13.127 37.5788 13.0918 37.604 13.045C37.6465 12.9643 38.671 11.0794 40.7129 11.7418C41.3041 11.9347 41.7584 12.4884 41.87 13.1537C41.9909 13.8787 42.0982 14.9587 41.9189 15.9905C41.8887 16.1633 42.0363 16.6406 41.672 17.077ZM45.9459 15.5088C45.9212 15.5122 45.8966 15.517 45.8725 15.5232C44.5253 15.8782 43.7369 15.5052 43.5015 15.5052C43.3935 15.505 43.2901 15.462 43.2138 15.3856C43.1375 15.3092 43.0947 15.2056 43.0947 15.0977V12.6785C43.0947 12.1961 43.4864 11.8044 43.9681 11.8044H45.0725C45.5549 11.8044 45.9459 12.1961 45.9459 12.6778V15.5088ZM28.2029 31.5763H25.7845C25.1221 31.5763 24.5821 31.037 24.5821 30.3739C24.582 30.268 24.5508 30.1644 24.4923 30.076C24.4338 29.9877 24.3506 29.9185 24.253 29.8771C24.1984 29.8113 24.1287 29.7596 24.0499 29.7265C23.971 29.6933 23.8853 29.6797 23.8001 29.6868C23.7148 29.6938 23.6326 29.7214 23.5602 29.7671C23.4879 29.8127 23.4277 29.8752 23.3847 29.9491C23.2205 30.2242 22.8692 30.4049 22.3407 30.4848C21.6394 30.5906 21.7899 31.662 22.5027 31.5526C22.9585 31.4834 23.3379 31.3481 23.6497 31.1566C23.8092 31.595 24.0994 31.974 24.4812 32.2422C24.863 32.5104 25.3179 32.655 25.7845 32.6563H28.2029C28.6589 32.6557 29.1081 32.5452 29.5123 32.3341C29.9165 32.1231 30.2638 31.8177 30.5249 31.4438C30.7871 31.8036 31.1304 32.0965 31.527 32.2988C31.9235 32.5011 32.3622 32.607 32.8073 32.6081H35.2251C36.2072 32.6081 37.0395 31.9802 37.3599 31.1076C38.1123 31.5727 39.1973 31.6332 40.0642 31.505C41.4992 31.4928 42.7541 30.929 42.973 29.5056C43.9796 29.628 45.1042 29.551 45.7558 29.3926C46.0107 29.3723 46.2486 29.2568 46.4221 29.0691C46.5957 28.8814 46.6922 28.6352 46.6925 28.3795V25.2907C46.6922 24.8252 46.5071 24.3789 46.178 24.0497C45.8489 23.7204 45.4027 23.5352 44.9372 23.5346H43.1681C42.7001 23.5346 42.2861 23.7571 42.0133 24.0962C40.8397 23.0335 38.6249 22.9392 37.1317 24.6629C36.9107 24.3009 36.6007 24.0016 36.2311 23.7936C35.8615 23.5856 35.4447 23.4759 35.0206 23.4749H32.3674C32.0036 23.4762 31.6449 23.5606 31.3186 23.7215C30.9923 23.8825 30.7071 24.1158 30.4846 24.4037C30.2616 24.1299 29.9805 23.9089 29.6618 23.7568C29.3431 23.6046 28.9946 23.5251 28.6414 23.5238H25.9889C25.5643 23.5249 25.1471 23.6349 24.7772 23.8434C24.4073 24.0519 24.0971 24.352 23.8765 24.7147C23.3458 24.0984 22.3745 23.3014 20.9288 23.3849C20.7858 23.3938 20.6523 23.4591 20.5575 23.5664C20.4627 23.6738 20.4145 23.8144 20.4233 23.9573C20.4413 24.2539 20.6897 24.4829 20.995 24.4634C22.5502 24.3576 23.3653 25.83 23.4063 25.9049C23.4293 25.9481 23.4711 25.9718 23.5028 26.0057V26.01C23.5028 26.1532 23.5597 26.2906 23.6609 26.3918C23.7622 26.4931 23.8996 26.55 24.0428 26.55C24.186 26.55 24.3233 26.4931 24.4246 26.3918C24.5259 26.2906 24.5828 26.1532 24.5828 26.01C24.5828 25.2346 25.2135 24.6038 25.9889 24.6038H28.6421C28.9926 24.6044 29.3286 24.7438 29.5765 24.9916C29.8244 25.2394 29.964 25.5753 29.9648 25.9258C29.9648 26.6357 31.0541 26.6587 31.0419 25.8941C31.0419 25.8876 31.0448 25.8833 31.0448 25.8775C31.0453 25.5269 31.1849 25.1908 31.4328 24.9429C31.6807 24.695 32.0168 24.5555 32.3674 24.5549H35.0206C35.7961 24.5549 36.4268 25.1863 36.4268 25.9618C36.4268 26.105 36.4837 26.2423 36.5849 26.3436C36.6862 26.4449 36.8236 26.5018 36.9668 26.5018C37.11 26.5018 37.2473 26.4449 37.3486 26.3436C37.4499 26.2423 37.5068 26.105 37.5068 25.9618V25.9574C37.5392 25.9236 37.5809 25.8998 37.604 25.8559C37.6472 25.7753 38.6753 23.886 40.7129 24.5534C41.0477 24.6614 41.3372 24.8796 41.551 25.1834C41.6178 25.2742 41.7119 25.3411 41.8196 25.3742C42.1544 25.7558 42.7613 25.5125 42.7613 25.0214C42.7613 24.7982 42.9442 24.6146 43.1681 24.6146H44.9372C45.1163 24.615 45.288 24.6864 45.4146 24.8131C45.5412 24.9399 45.6123 25.1116 45.6125 25.2907V28.319C45.5878 28.3225 45.5633 28.3273 45.5391 28.3334C44.8357 28.5178 43.3762 28.5595 42.5482 28.3342C42.1162 28.219 41.7159 28.6524 41.9261 29.0873C41.9571 30.1097 41.0434 30.4236 40.0196 30.425C39.944 30.425 38.1058 30.708 37.6249 29.9009C37.5816 29.8272 37.5213 29.765 37.449 29.7195C37.3767 29.6741 37.2945 29.6466 37.2094 29.6396C37.1242 29.6325 37.0387 29.646 36.9599 29.679C36.881 29.7119 36.8113 29.7633 36.7565 29.8289C36.6589 29.8702 36.5755 29.9393 36.5169 30.0276C36.4582 30.116 36.4269 30.2196 36.4268 30.3257C36.4268 30.9881 35.8875 31.5281 35.2244 31.5281H32.8066C32.3394 31.5275 31.8915 31.3416 31.5612 31.0112C31.2309 30.6807 31.0452 30.2327 31.0448 29.7655C31.0448 29.0563 29.9561 29.0326 29.9684 29.7979C29.9684 29.8037 29.9648 29.8087 29.9648 29.8145C29.9642 30.2816 29.7784 30.7294 29.4481 31.0597C29.1178 31.3899 28.67 31.5758 28.2029 31.5763Z" fill="#D00404"/>
<path d="M8.60206 24.3259L5.52982 28.2384C5.09683 28.7879 4.82801 29.4486 4.75438 30.1442L4.09918 36.2268C3.88555 37.5293 3.66331 38.8304 3.43246 40.1299C3.36478 40.4179 3.54046 40.7059 3.82846 40.7779C3.89726 40.7954 3.96885 40.7991 4.03909 40.7888C4.10932 40.7784 4.1768 40.7542 4.23761 40.7176C4.29843 40.6809 4.35136 40.6326 4.39335 40.5754C4.43534 40.5181 4.46555 40.4531 4.48222 40.3841C4.53118 40.1846 5.15398 36.5018 5.17198 36.3514L5.82718 30.2602C5.88118 29.7626 6.07198 29.2954 6.37798 28.9073L9.4495 24.9941C9.67008 24.7159 9.94374 24.4842 10.2546 24.3127C10.5655 24.1411 10.9073 24.033 11.2603 23.9947L14.5039 23.6578L18.1845 23.796C19.2696 23.8385 18.9384 24.9257 18.3458 25.0258C14.6616 25.663 14.0381 25.7645 13.9682 25.7875L12.8112 26.1871C11.4619 26.6515 10.9593 27.6242 10.8197 27.7711C10.4848 28.2135 10.2539 28.7256 10.1442 29.2695C10.0345 29.8133 10.0488 30.3749 10.1861 30.9125C10.9248 33.8083 10.8643 33.673 10.9349 33.7932C11.3474 34.4988 11.8665 34.722 12.2301 34.7846C12.9912 34.9114 13.8458 34.4282 14.0078 34.1302C14.7962 32.6635 15.6264 31.4849 16.4753 30.6252C18.5582 28.5012 20.3165 28.6963 21.1884 29.0556C19.2876 31.9039 15.6588 36.8474 14.9042 38.4487C14.6781 38.9304 13.9733 39.8981 13.3699 40.4719C13.1057 40.7218 12.8277 40.9932 12.5937 41.3129C10.6008 44.0251 10.4222 46.3651 10.3041 47.9138C10.2854 48.1543 10.2681 48.3804 10.2458 48.5906C10.2376 48.6661 10.2454 48.7424 10.2687 48.8146C10.2919 48.8868 10.3302 48.9532 10.3808 49.0097C10.4315 49.0661 10.4935 49.1113 10.5628 49.1422C10.6321 49.1731 10.7071 49.189 10.7829 49.189C12.1171 49.189 10.3589 46.1779 13.4642 41.953C13.6464 41.7038 13.8746 41.4814 14.1137 41.2546C14.7653 40.6354 15.5753 39.5604 15.8813 38.9095C16.5429 37.507 20.3683 32.2294 22.0862 29.6554C22.2828 29.363 22.331 29.0052 22.2194 28.6733C22.1667 28.5139 22.0779 28.3688 21.9599 28.2494C21.8418 28.13 21.6978 28.0395 21.539 27.985C20.4324 27.5926 18.2054 27.3175 15.7056 29.8678C14.8063 30.7786 13.9344 32.0047 13.1136 33.5138C12.5664 33.876 12.1977 33.7702 11.9054 33.3101L11.2337 30.6504C10.8686 29.1787 11.819 28.2866 11.8889 28.1441C12.5844 27.193 13.5045 27.1541 14.2793 26.8229L18.5273 26.0906C19.7253 25.8876 20.3035 24.5038 19.7815 23.5778C19.4885 23.0573 18.9211 22.7441 18.2256 22.7174C15.5544 22.6174 14.4823 22.5734 14.4297 22.5792L11.1494 22.9205C10.653 22.974 10.1721 23.1257 9.73477 23.3667C9.29745 23.6077 8.91242 23.9333 8.60206 24.3245V24.3259Z" fill="#D00404"/>
</svg>
