<svg width="54" height="54" viewBox="0 0 54 54" fill="none" xmlns="http://www.w3.org/2000/svg">
<path d="M23.0158 20.7069H22.9665L20.5778 20.6377C20.133 20.624 19.7118 20.4345 19.4066 20.1108C19.1013 19.787 18.9369 19.3554 18.9494 18.9105L18.9789 17.882C18.9941 17.4378 19.184 17.0174 19.5073 16.7124C19.8306 16.4073 20.2612 16.2421 20.7056 16.2527L23.0939 16.3223C23.3142 16.3287 23.5312 16.3784 23.7324 16.4685C23.9335 16.5587 24.1149 16.6877 24.2663 16.848C24.4176 17.0083 24.5359 17.1968 24.6143 17.4028C24.6928 17.6088 24.7299 17.8283 24.7236 18.0487L24.6936 19.0768C24.6804 19.5132 24.4979 19.9273 24.1847 20.2315C23.8716 20.5357 23.4524 20.7062 23.0158 20.7069ZM20.6149 19.3712L23.0032 19.4408C23.1115 19.44 23.2156 19.3983 23.2945 19.3239C23.3733 19.2496 23.4212 19.1482 23.4284 19.0401L23.458 18.0115C23.4595 17.9573 23.4504 17.9033 23.4311 17.8526C23.4118 17.8018 23.3826 17.7554 23.3454 17.716C23.3081 17.6765 23.2635 17.6448 23.2139 17.6226C23.1644 17.6004 23.111 17.5882 23.0567 17.5867L20.6689 17.5171H20.6571C20.5496 17.5172 20.4463 17.5591 20.3691 17.6339C20.292 17.7088 20.247 17.8108 20.2437 17.9183L20.2142 18.9464C20.211 19.0559 20.2514 19.1621 20.3266 19.2418C20.4017 19.3215 20.5055 19.368 20.6149 19.3712ZM13.5557 20.0652C13.5033 20.0654 13.4509 20.0629 13.3988 20.0576L11.2286 19.8518C10.7943 19.8096 10.3944 19.5969 10.1167 19.2603C9.83893 18.9237 9.70599 18.4907 9.74702 18.0563L9.8508 16.9665C9.87137 16.7514 9.93411 16.5425 10.0354 16.3517C10.1368 16.1608 10.2747 15.9918 10.4413 15.8542C10.608 15.7167 10.8001 15.6133 11.0067 15.55C11.2133 15.4867 11.4304 15.4647 11.6455 15.4853L13.8147 15.6912C14.2491 15.733 14.6492 15.9453 14.9273 16.2817C15.2054 16.618 15.3387 17.0509 15.298 17.4855L15.1947 18.5747C15.1553 18.9823 14.9657 19.3607 14.6627 19.6362C14.3598 19.9117 13.9652 20.0646 13.5557 20.0652ZM11.3501 18.5916L13.5203 18.7979C13.57 18.8027 13.6203 18.7977 13.6681 18.783C13.7159 18.7684 13.7603 18.7444 13.7989 18.7126C13.8374 18.6807 13.8693 18.6415 13.8926 18.5973C13.916 18.5531 13.9304 18.5047 13.935 18.4549L14.0383 17.3661C14.0432 17.3163 14.0381 17.2661 14.0235 17.2183C14.0089 17.1705 13.985 17.1261 13.9531 17.0876C13.9213 17.0491 13.8822 17.0172 13.838 16.9938C13.7939 16.9704 13.7455 16.956 13.6958 16.9514L11.5261 16.7451C11.4763 16.7402 11.4261 16.7453 11.3783 16.7599C11.3306 16.7745 11.2861 16.7984 11.2476 16.8302C11.2091 16.8621 11.1772 16.9012 11.1538 16.9454C11.1304 16.9895 11.116 17.0379 11.1114 17.0876L11.0076 18.1773C11.0028 18.227 11.0079 18.2772 11.0225 18.3249C11.0372 18.3727 11.0611 18.417 11.0929 18.4555C11.1247 18.494 11.1638 18.5258 11.208 18.5492C11.2521 18.5725 11.3004 18.587 11.3501 18.5916ZM4.65625 18.8625C4.59126 18.8626 4.52633 18.8589 4.46177 18.8515L3.01516 18.6865C2.63397 18.6501 2.2788 18.4771 2.01518 18.1994C1.75156 17.9216 1.59727 17.5579 1.58078 17.1754L1.56264 16.1317C1.55971 15.9188 1.60235 15.7078 1.6877 15.5128C1.77305 15.3178 1.89914 15.1433 2.0575 15.001C2.23237 14.8446 2.43867 14.7274 2.66256 14.6572C2.88645 14.5871 3.12275 14.5657 3.35561 14.5943L4.76636 14.7597C5.1387 14.7951 5.48642 14.9615 5.74767 15.2291C6.00892 15.4968 6.16677 15.8484 6.19314 16.2215L6.24756 17.2644C6.25801 17.4806 6.22114 17.6965 6.13953 17.8971C6.05792 18.0976 5.93354 18.2779 5.77506 18.4254C5.4714 18.7082 5.07124 18.8646 4.65625 18.8625ZM3.15859 17.4281L4.6052 17.593C4.65934 17.6006 4.71447 17.5963 4.76682 17.5806C4.81917 17.5649 4.86751 17.538 4.90853 17.5019C4.93324 17.4806 4.95279 17.454 4.96572 17.424C4.97865 17.394 4.98463 17.3615 4.9832 17.3289L4.9292 16.2861C4.91557 16.2126 4.87746 16.1458 4.82109 16.0967C4.76471 16.0476 4.69338 16.0191 4.6187 16.0156L3.20795 15.8515C3.15455 15.8437 3.10008 15.8474 3.04825 15.8625C2.99642 15.8775 2.94844 15.9036 2.90758 15.9389C2.88299 15.9596 2.86318 15.9854 2.84949 16.0146C2.83581 16.0437 2.82856 16.0754 2.82827 16.1076L2.84725 17.1509C2.85854 17.2263 2.89586 17.2953 2.95274 17.346C3.00961 17.3967 3.08244 17.4255 3.15859 17.4281ZM49.324 18.8625C48.909 18.8645 48.5089 18.7082 48.2051 18.4254C48.0466 18.2779 47.9223 18.0976 47.8407 17.8971C47.7592 17.6965 47.7225 17.4806 47.7331 17.2644L47.7871 16.2215C47.8134 15.8484 47.9713 15.4968 48.2325 15.2291C48.4938 14.9615 48.8415 14.7951 49.2138 14.7597L50.6267 14.5943C50.8596 14.5655 51.0959 14.5869 51.3198 14.657C51.5437 14.7272 51.75 14.8445 51.9248 15.001C52.0832 15.1432 52.2094 15.3177 52.2947 15.5127C52.3801 15.7078 52.4227 15.9188 52.4197 16.1317L52.4007 17.175C52.3843 17.5576 52.2301 17.9214 51.9664 18.1992C51.7028 18.477 51.3476 18.6501 50.9663 18.6865L49.5197 18.8515C49.4547 18.8589 49.3894 18.8626 49.324 18.8625ZM50.8237 15.8482C50.8065 15.8482 50.7893 15.8494 50.7723 15.8515L49.3611 16.0169C49.2864 16.0203 49.2151 16.0488 49.1588 16.0979C49.1025 16.1471 49.0645 16.2138 49.051 16.2873L48.9966 17.3302C48.9952 17.3628 49.0011 17.3953 49.0141 17.4253C49.027 17.4552 49.0466 17.4819 49.0713 17.5032C49.1123 17.5393 49.1606 17.5661 49.213 17.5819C49.2653 17.5976 49.3204 17.6018 49.3746 17.5943L50.8212 17.4293C50.8974 17.4267 50.9703 17.3975 51.0272 17.3467C51.0841 17.2959 51.1213 17.2268 51.1325 17.1513L51.1515 16.1085C51.1512 16.0763 51.144 16.0446 51.1304 16.0155C51.1168 15.9864 51.0971 15.9606 51.0726 15.9397C51.0038 15.8795 50.9151 15.8469 50.8237 15.8482ZM30.964 20.7069C30.5274 20.7066 30.1081 20.5362 29.795 20.2319C29.482 19.9275 29.2999 19.5132 29.2874 19.0768L29.2575 18.0487C29.251 17.8283 29.288 17.6088 29.3664 17.4028C29.4447 17.1967 29.5629 17.0081 29.7142 16.8477C29.8654 16.6873 30.0468 16.5583 30.2479 16.468C30.449 16.3777 30.666 16.3279 30.8863 16.3215L33.2741 16.2519C33.7192 16.2391 34.1511 16.4035 34.475 16.709C34.7989 17.0145 34.9882 17.4361 35.0013 17.8812L35.0308 18.9097C35.0434 19.3546 34.8791 19.7862 34.5738 20.11C34.2685 20.4338 33.8472 20.6233 33.4024 20.6369L31.0142 20.706L30.964 20.7069ZM33.3231 17.515H33.3108L30.9235 17.5846C30.8692 17.5861 30.8158 17.5983 30.7663 17.6205C30.7167 17.6427 30.6721 17.6744 30.6348 17.7139C30.5976 17.7533 30.5684 17.7997 30.5491 17.8504C30.5298 17.9012 30.5207 17.9552 30.5223 18.0094L30.5522 19.038C30.5536 19.0922 30.5657 19.1456 30.588 19.1951C30.6102 19.2445 30.6421 19.2891 30.6817 19.3261C30.7206 19.3641 30.7669 19.3937 30.8177 19.4131C30.8685 19.4325 30.9227 19.4412 30.977 19.4387L33.3648 19.3691C33.4743 19.3659 33.5779 19.3194 33.6531 19.2399C33.7282 19.1603 33.7687 19.0541 33.7656 18.9447L33.7361 17.9158C33.7322 17.8088 33.687 17.7075 33.6099 17.6332C33.5329 17.5588 33.4301 17.5172 33.3231 17.5171V17.515ZM40.4245 20.0652C40.0153 20.0644 39.6211 19.9114 39.3185 19.636C39.0158 19.3606 38.8265 18.9824 38.7872 18.5752L38.6838 17.4855C38.6432 17.0509 38.7765 16.618 39.0546 16.2817C39.3326 15.9453 39.7328 15.733 40.1672 15.6912L42.3369 15.4853C42.5521 15.4649 42.7692 15.487 42.9758 15.5505C43.1824 15.614 43.3745 15.7175 43.5411 15.8553C43.7077 15.9931 43.8455 16.1623 43.9467 16.3533C44.0478 16.5444 44.1104 16.7534 44.1307 16.9687L44.2349 18.0571C44.2755 18.4916 44.1422 18.9246 43.8642 19.261C43.5861 19.5974 43.186 19.8099 42.7516 19.8518L40.5814 20.0576C40.5293 20.0629 40.4769 20.0654 40.4245 20.0652ZM42.493 16.743C42.4807 16.7423 42.4685 16.7423 42.4563 16.743L40.2865 16.9492C40.2368 16.9539 40.1884 16.9683 40.1443 16.9917C40.1001 17.0151 40.061 17.047 40.0292 17.0855C39.9973 17.124 39.9734 17.1684 39.9588 17.2162C39.9442 17.264 39.9392 17.3142 39.944 17.364L40.0473 18.4532C40.052 18.503 40.0664 18.5513 40.0898 18.5955C40.1132 18.6397 40.1451 18.6788 40.1836 18.7106C40.2221 18.7424 40.2665 18.7663 40.3143 18.781C40.3621 18.7956 40.4123 18.8006 40.462 18.7958L42.6322 18.5895C42.682 18.5848 42.7304 18.5704 42.7745 18.547C42.8187 18.5236 42.8579 18.4917 42.8897 18.4531C42.9215 18.4145 42.9454 18.3701 42.96 18.3222C42.9746 18.2744 42.9796 18.2241 42.9747 18.1744L42.871 17.0859C42.8622 16.9914 42.8184 16.9036 42.7481 16.8398C42.6778 16.776 42.5862 16.7409 42.4913 16.7413L42.493 16.743ZM23.86 39.5356H23.8098L21.4216 39.4664C20.9768 39.4527 20.5556 39.2632 20.2503 38.9395C19.945 38.6157 19.7806 38.1841 19.7931 37.7393L19.8227 36.7111C19.8379 36.2669 20.0278 35.8466 20.3511 35.5415C20.6744 35.2364 21.105 35.0713 21.5494 35.0819L23.9376 35.151C24.158 35.1574 24.3749 35.2071 24.5761 35.2972C24.7773 35.3874 24.9587 35.5164 25.11 35.6767C25.2614 35.837 25.3796 36.0255 25.4581 36.2315C25.5366 36.4375 25.5737 36.657 25.5673 36.8774L25.5374 37.9059C25.5242 38.3422 25.3418 38.7563 25.0287 39.0604C24.7157 39.3646 24.2965 39.535 23.86 39.5356ZM21.4587 38.2004L23.8469 38.2695C23.9014 38.2723 23.956 38.2641 24.0072 38.2452C24.0585 38.2264 24.1054 38.1974 24.1451 38.1599C24.1848 38.1225 24.2166 38.0774 24.2384 38.0273C24.2602 37.9773 24.2717 37.9234 24.2722 37.8688L24.3017 36.8407C24.3033 36.7864 24.2942 36.7323 24.275 36.6816C24.2557 36.6308 24.2266 36.5843 24.1893 36.5448C24.152 36.5053 24.1073 36.4736 24.0578 36.4514C24.0082 36.4292 23.9548 36.4169 23.9005 36.4154L21.5127 36.3462H21.5009C21.3934 36.3464 21.2901 36.3883 21.213 36.4632C21.1359 36.5381 21.0908 36.64 21.0874 36.7474L21.0579 37.776C21.0547 37.8854 21.0952 37.9917 21.1703 38.0714C21.2455 38.151 21.3492 38.1972 21.4587 38.2004ZM14.9601 39.0783C14.9087 39.0783 14.8568 39.0758 14.8053 39.0707L12.8769 38.8876C12.453 38.8468 12.0625 38.6395 11.7912 38.3112C11.5198 37.9829 11.3897 37.5604 11.4295 37.1364L11.5404 35.9686C11.5808 35.5447 11.7878 35.1541 12.116 34.8827C12.4442 34.6113 12.8668 34.4813 13.2908 34.5212L15.2187 34.7043C15.6426 34.7453 16.0328 34.9527 16.3041 35.2809C16.5753 35.6091 16.7054 36.0315 16.6658 36.4555L16.5544 37.6237C16.5167 38.0211 16.3324 38.3903 16.0374 38.6592C15.7423 38.9281 15.3577 39.0775 14.9584 39.0783H14.9601ZM12.9955 37.6279L14.9234 37.811C15.0134 37.8194 15.1031 37.7918 15.1728 37.7343C15.2424 37.6767 15.2864 37.5938 15.2951 37.5038L15.406 36.3357C15.4144 36.2457 15.3867 36.1562 15.3292 36.0866C15.2716 36.017 15.1888 35.9731 15.0989 35.9644L13.171 35.7809C13.081 35.7724 12.9913 35.8 12.9216 35.8576C12.8519 35.9152 12.8079 35.9981 12.7993 36.088L12.6879 37.2562C12.6796 37.3462 12.7073 37.4359 12.7649 37.5056C12.8225 37.5752 12.9054 37.6192 12.9955 37.6279ZM30.1198 39.5356C29.6833 39.5352 29.2641 39.3648 28.9511 39.0604C28.6382 38.7561 28.4562 38.3418 28.4437 37.9055L28.4137 36.8774C28.4073 36.657 28.4443 36.4375 28.5226 36.2315C28.601 36.0254 28.7192 35.8368 28.8704 35.6764C29.0217 35.516 29.203 35.387 29.4042 35.2967C29.6053 35.2064 29.8222 35.1566 30.0426 35.1502L32.4304 35.081C32.8749 35.0703 33.3056 35.2354 33.629 35.5405C33.9524 35.8456 34.1423 36.266 34.1575 36.7103L34.1871 37.7388C34.1996 38.1836 34.0352 38.6152 33.7299 38.9389C33.4246 39.2626 33.0034 39.452 32.5586 39.4656L30.1704 39.5347L30.1198 39.5356ZM32.4793 36.3458H32.4671L30.0797 36.415C30.0255 36.4165 29.972 36.4287 29.9225 36.4509C29.873 36.4731 29.8283 36.5048 29.7911 36.5443C29.7538 36.5837 29.7247 36.6301 29.7054 36.6808C29.6861 36.7315 29.6769 36.7856 29.6785 36.8398L29.7085 37.8683C29.7098 37.9226 29.722 37.9761 29.7442 38.0256C29.7664 38.0752 29.7983 38.1198 29.838 38.1569C29.877 38.1946 29.9233 38.224 29.9741 38.2433C30.0249 38.2626 30.079 38.2714 30.1333 38.2691L32.5215 38.1999C32.631 38.1967 32.7347 38.1502 32.8099 38.0705C32.885 37.9908 32.9255 37.8846 32.9223 37.7751L32.8928 36.7466C32.8893 36.6392 32.8442 36.5374 32.7671 36.4626C32.6899 36.3878 32.5868 36.346 32.4793 36.3458ZM38.7374 39.1049C38.3282 39.104 37.9339 38.951 37.6312 38.6756C37.3285 38.4002 37.1391 38.0221 37.0997 37.6148L36.9963 36.5255C36.9557 36.091 37.089 35.658 37.3671 35.3216C37.6451 34.9852 38.0452 34.7727 38.4797 34.7309L40.6494 34.525C40.8645 34.5045 41.0816 34.5266 41.2882 34.5901C41.4948 34.6535 41.6869 34.7571 41.8535 34.8948C42.0201 35.0325 42.1579 35.2017 42.2591 35.3927C42.3602 35.5837 42.4228 35.7927 42.4432 36.0079L42.5474 37.0972C42.588 37.5317 42.4547 37.9646 42.1766 38.3009C41.8986 38.6373 41.4985 38.8496 41.0641 38.8914L38.8939 39.0977C38.8419 39.1026 38.7897 39.105 38.7374 39.1049ZM40.8055 35.7826H40.7688L38.599 35.9889C38.5493 35.9935 38.5009 36.008 38.4567 36.0314C38.4125 36.0548 38.3733 36.0867 38.3415 36.1253C38.3097 36.1638 38.2858 36.2083 38.2712 36.2562C38.2566 36.304 38.2516 36.3542 38.2565 36.404L38.3598 37.4929C38.3645 37.5426 38.3789 37.591 38.4023 37.6351C38.4257 37.6793 38.4576 37.7184 38.4961 37.7503C38.5346 37.7821 38.579 37.806 38.6268 37.8206C38.6746 37.8352 38.7248 37.8403 38.7745 37.8354L40.9447 37.6312C40.9945 37.6266 41.0429 37.6122 41.087 37.5888C41.1312 37.5653 41.1704 37.5334 41.2022 37.4949C41.234 37.4563 41.2579 37.4118 41.2725 37.364C41.2871 37.3161 41.2921 37.2659 41.2872 37.2161L41.1835 36.1273C41.1747 36.0328 41.1309 35.9449 41.0606 35.8811C40.9903 35.8174 40.8987 35.7822 40.8038 35.7826H40.8055ZM7.24488 38.1911C7.17988 38.1911 7.11494 38.1873 7.05039 38.1797L5.60378 38.0152C5.22262 37.9785 4.86755 37.8053 4.60397 37.5276C4.34039 37.2498 4.18606 36.8861 4.16941 36.5036L4.15042 35.4599C4.14741 35.247 4.19001 35.036 4.27537 34.8409C4.36073 34.6459 4.48686 34.4714 4.64528 34.3292C4.81994 34.1725 5.02623 34.0551 5.25019 33.985C5.47415 33.915 5.71055 33.8938 5.94339 33.923L7.35414 34.0879C7.72641 34.1234 8.07402 34.2898 8.33519 34.5574C8.59635 34.8251 8.75414 35.1767 8.7805 35.5497L8.83492 36.5926C8.84554 36.8088 8.80879 37.0247 8.72725 37.2253C8.6457 37.4258 8.52134 37.6061 8.36285 37.7536C8.0595 38.0365 7.65965 38.1929 7.24488 38.1911ZM5.74764 36.7567L7.19383 36.9217C7.24791 36.9294 7.30303 36.9253 7.35535 36.9095C7.40766 36.8938 7.45592 36.8668 7.49674 36.8305C7.52152 36.8093 7.54115 36.7826 7.55415 36.7527C7.56716 36.7227 7.5732 36.6902 7.57183 36.6576L7.51741 35.6147C7.50386 35.5412 7.46584 35.4745 7.40953 35.4254C7.35323 35.3763 7.28196 35.3477 7.20733 35.3443L5.79658 35.1789C5.74311 35.1712 5.68863 35.175 5.63676 35.1901C5.58489 35.2052 5.53682 35.2311 5.49578 35.2662C5.47119 35.2869 5.45139 35.3128 5.43777 35.3419C5.42415 35.3711 5.41703 35.4028 5.41689 35.435L5.43588 36.4783C5.44727 36.5536 5.48469 36.6226 5.54164 36.6732C5.59859 36.7239 5.67148 36.7529 5.74764 36.7554V36.7567ZM46.7353 38.1911C46.3203 38.1932 45.9201 38.0367 45.6165 37.7536C45.458 37.6061 45.3337 37.4258 45.2521 37.2253C45.1706 37.0247 45.1338 36.8088 45.1444 36.5926L45.1989 35.5497C45.2252 35.1766 45.3831 34.825 45.6443 34.5573C45.9056 34.2897 46.2533 34.1233 46.6256 34.0879L48.036 33.923C48.2688 33.8939 48.5052 33.9152 48.7291 33.9852C48.953 34.0553 49.1593 34.1726 49.3341 34.3292C49.4925 34.4714 49.6186 34.6459 49.704 34.8409C49.7894 35.036 49.832 35.247 49.8289 35.4599L49.81 36.5032C49.7934 36.8858 49.6391 37.2495 49.3755 37.5274C49.1119 37.8053 48.7568 37.9785 48.3756 38.0152L46.929 38.1797C46.8647 38.1872 46.8 38.191 46.7353 38.1911ZM48.2351 35.1768C48.2179 35.1767 48.2007 35.1777 48.1836 35.1797L46.7729 35.3451C46.6982 35.3485 46.627 35.3771 46.5707 35.4262C46.5144 35.4753 46.4763 35.5421 46.4628 35.6155L46.408 36.6584C46.4066 36.6911 46.4127 36.7236 46.4257 36.7536C46.4388 36.7836 46.4586 36.8102 46.4835 36.8314C46.5242 36.8678 46.5723 36.8948 46.6246 36.9105C46.6769 36.9263 46.7319 36.9303 46.786 36.9225L48.2321 36.7575C48.3084 36.755 48.3813 36.7259 48.4383 36.6752C48.4952 36.6245 48.5326 36.5554 48.5439 36.48L48.5633 35.4375C48.5632 35.4053 48.5561 35.3736 48.5424 35.3444C48.5288 35.3153 48.509 35.2895 48.4844 35.2687C48.4155 35.2084 48.3267 35.1756 48.2351 35.1768Z" fill="#D00404"/>
<path d="M42.4826 18.425C42.3206 18.4245 42.165 18.3618 42.0478 18.25C41.9305 18.1382 41.8607 17.9857 41.8526 17.8238C41.8445 17.662 41.8987 17.5033 42.0042 17.3803C42.1096 17.2573 42.2582 17.1794 42.4194 17.1627C44.824 16.9172 47.2604 16.6084 49.6625 16.2451C49.7452 16.2316 49.8296 16.2347 49.9111 16.254C49.9926 16.2734 50.0694 16.3088 50.137 16.3581C50.2047 16.4073 50.262 16.4696 50.3054 16.5411C50.3489 16.6127 50.3777 16.6922 50.3903 16.7749C50.4028 16.8577 50.3988 16.9422 50.3784 17.0234C50.3581 17.1046 50.3218 17.181 50.2718 17.2481C50.2217 17.3152 50.1588 17.3717 50.0868 17.4143C50.0147 17.457 49.9349 17.4849 49.8519 17.4964C47.4251 17.8633 44.9897 18.1717 42.548 18.4216C42.5263 18.4237 42.5045 18.4248 42.4826 18.425ZM33.0634 19.0907C32.9803 19.0923 32.8977 19.0775 32.8203 19.0472C32.7429 19.0169 32.6723 18.9716 32.6124 18.914C32.4914 18.7976 32.4216 18.6379 32.4184 18.4701C32.4151 18.3023 32.4787 18.14 32.5951 18.0191C32.7115 17.8981 32.8711 17.8283 33.039 17.8251C35.7074 17.7207 38.3725 17.5446 41.0314 17.2969C41.1142 17.2892 41.1976 17.2979 41.277 17.3225C41.3564 17.3471 41.4302 17.3871 41.4942 17.4402C41.5581 17.4933 41.611 17.5584 41.6498 17.632C41.6885 17.7055 41.7124 17.786 41.7201 17.8687C41.7278 17.9515 41.7191 18.035 41.6945 18.1144C41.6699 18.1938 41.6299 18.2676 41.5768 18.3315C41.5237 18.3955 41.4585 18.4483 41.385 18.4871C41.3115 18.5259 41.231 18.5498 41.1482 18.5574C38.4675 18.8059 35.7806 18.9833 33.0904 19.0894L33.0634 19.0907ZM20.9362 19.0907H20.9109C18.2207 18.9847 15.5338 18.8073 12.8531 18.5587C12.6858 18.5434 12.5314 18.4623 12.4238 18.3332C12.3163 18.2041 12.2645 18.0375 12.2798 17.8702C12.295 17.7029 12.3762 17.5485 12.5053 17.4409C12.6344 17.3334 12.8009 17.2816 12.9683 17.2969C15.6189 17.5433 18.3079 17.7188 20.9607 17.8246C21.1285 17.8279 21.2882 17.8977 21.4046 18.0186C21.5209 18.1396 21.5845 18.3019 21.5813 18.4697C21.578 18.6375 21.5082 18.7972 21.3873 18.9136C21.2663 19.03 21.104 19.0939 20.9362 19.0907ZM27.1264 19.2071C25.5992 19.2071 24.0712 19.1843 22.552 19.1392C22.4689 19.1367 22.3871 19.1179 22.3113 19.0838C22.2355 19.0497 22.1671 19.001 22.1101 18.9404C22.0531 18.8799 22.0086 18.8087 21.9791 18.731C21.9496 18.6533 21.9357 18.5705 21.9382 18.4874C21.9407 18.4043 21.9595 18.3225 21.9936 18.2467C22.0277 18.1709 22.0764 18.1025 22.1369 18.0455C22.1975 17.9885 22.2686 17.944 22.3464 17.9145C22.4241 17.885 22.5069 17.8711 22.59 17.8736C25.565 17.9626 28.5772 17.9639 31.5438 17.8765C31.7117 17.8717 31.8746 17.9337 31.9967 18.0489C32.1188 18.1641 32.1901 18.3232 32.195 18.491C32.1999 18.6588 32.1379 18.8217 32.0226 18.9438C31.9074 19.0659 31.7484 19.1373 31.5805 19.1422C30.1031 19.1856 28.6148 19.2071 27.1264 19.2071ZM41.0706 37.3845C40.9076 37.3846 40.7509 37.3218 40.6331 37.2092C40.5152 37.0966 40.4454 36.9429 40.438 36.7801C40.4307 36.6173 40.4865 36.458 40.5937 36.3353C40.7009 36.2125 40.8514 36.1359 41.0137 36.1214C43.0049 35.9387 45.0278 35.7134 47.0258 35.4523C47.1902 35.4347 47.3549 35.4821 47.4848 35.5844C47.6146 35.6867 47.6993 35.8357 47.7207 35.9996C47.7421 36.1635 47.6985 36.3293 47.5992 36.4615C47.4999 36.5937 47.3529 36.6818 47.1895 36.7069C45.1738 36.9708 43.1532 37.1958 41.1288 37.3819C41.1095 37.3838 41.0901 37.3847 41.0706 37.3845ZM32.2539 37.9409C32.086 37.9438 31.9239 37.8798 31.8032 37.7632C31.6825 37.6465 31.6131 37.4867 31.6103 37.3189C31.6074 37.151 31.6714 36.9889 31.788 36.8682C31.9047 36.7475 32.0645 36.6781 32.2323 36.6753C34.6501 36.5909 37.1029 36.4492 39.524 36.2505C39.6068 36.2436 39.6902 36.2532 39.7693 36.2786C39.8485 36.304 39.9218 36.3447 39.9852 36.3985C40.0486 36.4522 40.1008 36.5179 40.1388 36.5919C40.1767 36.6658 40.1998 36.7464 40.2066 36.8293C40.2134 36.9121 40.2039 36.9954 40.1785 37.0746C40.1531 37.1537 40.1123 37.2271 40.0586 37.2904C40.0048 37.3538 39.9391 37.406 39.8652 37.444C39.7913 37.482 39.7106 37.505 39.6278 37.5119C37.1864 37.7122 34.7134 37.8561 32.2762 37.9401L32.2539 37.9409ZM26.9889 38.0363C25.7764 38.0363 24.5466 38.0194 23.3337 37.989C23.2506 37.9869 23.1687 37.9686 23.0928 37.9349C23.0168 37.9012 22.9481 37.8528 22.8908 37.7926C22.8335 37.7324 22.7886 37.6615 22.7587 37.5839C22.7288 37.5064 22.7145 37.4237 22.7165 37.3406C22.7186 37.2575 22.737 37.1756 22.7707 37.0996C22.8044 37.0236 22.8527 36.955 22.9129 36.8977C22.9731 36.8404 23.044 36.7955 23.1216 36.7656C23.1992 36.7357 23.2818 36.7213 23.3649 36.7234C24.5677 36.7537 25.7874 36.7694 26.9889 36.7702C28.2646 36.7702 29.5623 36.7516 30.8465 36.7175C30.9296 36.7153 31.0123 36.7294 31.0899 36.7592C31.1676 36.7889 31.2386 36.8337 31.2989 36.8909C31.3592 36.9481 31.4077 37.0166 31.4415 37.0925C31.4754 37.1685 31.4939 37.2503 31.4962 37.3334C31.4984 37.4165 31.4842 37.4992 31.4545 37.5769C31.4247 37.6545 31.3799 37.7255 31.3228 37.7858C31.2656 37.8461 31.197 37.8946 31.1211 37.9285C31.0452 37.9623 30.9633 37.9809 30.8802 37.9831C29.5859 38.0173 28.2764 38.0354 26.9889 38.0363ZM51.1066 17.2872C50.9472 17.2872 50.7937 17.2271 50.6768 17.1189C50.5598 17.0107 50.4879 16.8623 50.4756 16.7034C50.4632 16.5446 50.5112 16.3869 50.6101 16.2619C50.7089 16.1369 50.8513 16.0538 51.0087 16.0291C51.6812 15.9231 52.3541 15.8126 53.0274 15.6975C53.1095 15.6832 53.1935 15.6852 53.2748 15.7034C53.3561 15.7216 53.4329 15.7557 53.501 15.8037C53.5691 15.8517 53.627 15.9127 53.6715 15.9831C53.7159 16.0536 53.7461 16.1321 53.7601 16.2142C53.7742 16.2963 53.7719 16.3803 53.7534 16.4615C53.7348 16.5428 53.7005 16.6195 53.6522 16.6874C53.604 16.7553 53.5428 16.813 53.4722 16.8572C53.4016 16.9014 53.323 16.9313 53.2409 16.945C52.5622 17.0612 51.8838 17.1726 51.2057 17.2792C51.173 17.2845 51.1398 17.2872 51.1066 17.2872ZM11.517 18.425C11.4955 18.425 11.4748 18.425 11.4516 18.4216C9.00992 18.1717 6.57458 17.8633 4.1477 17.4964C4.06477 17.4849 3.98496 17.457 3.9129 17.4143C3.84083 17.3717 3.77794 17.3152 3.72787 17.2481C3.6778 17.181 3.64154 17.1046 3.6212 17.0234C3.60086 16.9422 3.59684 16.8577 3.60937 16.7749C3.6219 16.6922 3.65074 16.6127 3.69421 16.5411C3.73768 16.4696 3.79492 16.4073 3.86261 16.3581C3.9303 16.3088 4.00709 16.2734 4.08855 16.254C4.17 16.2347 4.25449 16.2316 4.33712 16.2451C6.73928 16.6084 9.17603 16.9172 11.5803 17.1627C11.7414 17.1794 11.89 17.2573 11.9955 17.3803C12.1009 17.5033 12.1552 17.662 12.1471 17.8238C12.139 17.9857 12.0691 18.1382 11.9519 18.25C11.8347 18.3618 11.679 18.4245 11.517 18.425ZM2.89304 17.2872C2.85983 17.2872 2.82667 17.2845 2.7939 17.2792C2.11609 17.1723 1.43771 17.0609 0.758777 16.945C0.676628 16.9313 0.598002 16.9014 0.52741 16.8572C0.456818 16.813 0.395648 16.7553 0.347407 16.6874C0.299167 16.6195 0.264806 16.5428 0.246295 16.4615C0.227783 16.3803 0.225486 16.2963 0.239535 16.2142C0.253584 16.1321 0.283702 16.0536 0.328162 15.9831C0.372623 15.9127 0.43055 15.8517 0.498623 15.8037C0.566696 15.7557 0.643574 15.7216 0.724849 15.7034C0.806124 15.6852 0.890197 15.6832 0.972245 15.6975C1.645 15.8126 2.31789 15.9231 2.99092 16.0291C3.14836 16.0538 3.29073 16.1369 3.38957 16.2619C3.48841 16.3869 3.53644 16.5446 3.52408 16.7034C3.51172 16.8623 3.43987 17.0107 3.32289 17.1189C3.20591 17.2271 3.0524 17.2872 2.89304 17.2872ZM48.5644 36.4964C48.4039 36.4968 48.2493 36.4362 48.1318 36.3269C48.0143 36.2175 47.9427 36.0677 47.9316 35.9076C47.9204 35.7475 47.9705 35.5891 48.0717 35.4646C48.1729 35.34 48.3177 35.2586 48.4766 35.2367C49.0847 35.1523 49.6923 35.0629 50.2996 34.9684C50.4655 34.9429 50.6348 34.9843 50.7701 35.0836C50.9055 35.1829 50.9959 35.3319 51.0214 35.4978C51.0469 35.6638 51.0054 35.833 50.9062 35.9684C50.8069 36.1038 50.6579 36.1941 50.4919 36.2197C49.8788 36.3133 49.2661 36.4035 48.6538 36.4901C48.6242 36.4943 48.5943 36.4964 48.5644 36.4964ZM12.9328 37.3845C12.9134 37.3845 12.8939 37.3835 12.8746 37.3815C10.8501 37.1957 8.82933 36.9706 6.81353 36.7065C6.7298 36.6973 6.64875 36.6716 6.57511 36.6307C6.50148 36.5898 6.43675 36.5346 6.38472 36.4684C6.33269 36.4021 6.29441 36.3262 6.27211 36.245C6.24981 36.1637 6.24396 36.0789 6.25488 35.9954C6.2658 35.9119 6.29329 35.8314 6.33573 35.7586C6.37816 35.6859 6.43469 35.6223 6.50201 35.5717C6.56932 35.5211 6.64607 35.4844 6.72774 35.4638C6.80941 35.4432 6.89437 35.4392 6.97764 35.4518C8.97606 35.713 10.9989 35.9383 12.9898 36.1209C13.1521 36.1355 13.3025 36.2121 13.4098 36.3348C13.517 36.4576 13.5727 36.6169 13.5654 36.7797C13.5581 36.9425 13.4882 37.0962 13.3704 37.2088C13.2525 37.3214 13.0958 37.3846 12.9328 37.3845ZM21.7496 37.9409H21.7264C19.2884 37.8565 16.8149 37.7131 14.3748 37.5127C14.292 37.5059 14.2113 37.4828 14.1374 37.4448C14.0635 37.4068 13.9978 37.3547 13.944 37.2913C13.8355 37.1633 13.7822 36.9974 13.796 36.8301C13.8097 36.6628 13.8894 36.5079 14.0174 36.3993C14.1454 36.2908 14.3113 36.2375 14.4786 36.2513C16.8989 36.45 19.3517 36.593 21.7698 36.6761C21.8529 36.6775 21.935 36.6952 22.0112 36.7283C22.0874 36.7614 22.1564 36.8092 22.2142 36.8689C22.272 36.9287 22.3174 36.9992 22.348 37.0765C22.3785 37.1538 22.3935 37.2364 22.3921 37.3195C22.3907 37.4026 22.373 37.4846 22.3399 37.5608C22.3068 37.6371 22.259 37.7061 22.1993 37.7639C22.1396 37.8216 22.069 37.8671 21.9917 37.8976C21.9144 37.9281 21.8318 37.9431 21.7487 37.9417L21.7496 37.9409ZM5.45045 36.4964C5.42053 36.4964 5.39064 36.4943 5.36101 36.4901C4.74845 36.4035 4.13589 36.3133 3.52332 36.2197C3.35739 36.1942 3.20837 36.1039 3.10904 35.9685C3.00971 35.8332 2.9682 35.664 2.99366 35.498C3.01911 35.3321 3.10944 35.1831 3.24477 35.0838C3.3801 34.9844 3.54935 34.9429 3.71528 34.9684C4.32278 35.0615 4.93042 35.1509 5.5382 35.2367C5.69718 35.2586 5.84192 35.34 5.94311 35.4646C6.0443 35.5891 6.09439 35.7475 6.08324 35.9076C6.07209 36.0677 6.00053 36.2175 5.88304 36.3269C5.76556 36.4362 5.61093 36.4968 5.45045 36.4964Z" fill="#D00404"/>
<path d="M4.66449 18.8625C4.5995 18.8626 4.53456 18.8589 4.47 18.8515L3.02339 18.6865C2.64224 18.65 2.28712 18.477 2.02352 18.1993C1.75991 17.9216 1.6056 17.5579 1.58902 17.1754L1.57046 16.1317C1.5675 15.9188 1.61012 15.7078 1.69548 15.5128C1.78083 15.3178 1.90694 15.1433 2.06532 15.001C2.24023 14.8446 2.4466 14.7273 2.67057 14.6572C2.89454 14.587 3.13092 14.5656 3.36385 14.5943L4.77418 14.7597C5.14629 14.7954 5.49371 14.9619 5.7547 15.2295C6.01569 15.4971 6.17336 15.8486 6.19969 16.2215L6.25411 17.2644C6.26473 17.4806 6.22798 17.6965 6.14644 17.8971C6.06489 18.0976 5.94053 18.2779 5.78203 18.4254C5.47864 18.7079 5.07903 18.8642 4.66449 18.8625ZM3.16683 17.4281L4.61302 17.593C4.66716 17.6007 4.72234 17.5966 4.77471 17.5809C4.82709 17.5651 4.87542 17.5382 4.91635 17.5019C4.9411 17.4806 4.96072 17.454 4.97372 17.424C4.98673 17.3941 4.99279 17.3616 4.99144 17.3289L4.93702 16.2861C4.92347 16.2126 4.88545 16.1459 4.82914 16.0968C4.77284 16.0477 4.70157 16.0191 4.62694 16.0156L3.21619 15.8503C3.16272 15.8424 3.1082 15.8462 3.0563 15.8612C3.0044 15.8763 2.95635 15.9023 2.91539 15.9376C2.89087 15.9584 2.87112 15.9842 2.8575 16.0133C2.84388 16.0425 2.83672 16.0742 2.8365 16.1063L2.85507 17.1496C2.86645 17.225 2.90385 17.2941 2.9608 17.3448C3.01774 17.3955 3.09063 17.4246 3.16683 17.4272V17.4281ZM49.1888 33.1809C49.1411 32.7652 48.9804 32.3706 48.7243 32.0398C48.4682 31.709 48.1263 31.4546 47.7358 31.3044C46.7929 30.9002 43.7968 30.7138 42.3358 31.5322C42.1859 31.6147 42.0456 31.7138 41.9177 31.8275C41.5042 31.5335 41.0094 31.3753 40.5019 31.3748L40.415 31.3702C37.4197 31.2074 35.5019 31.5461 34.6003 32.3975C34.1332 32.0609 33.5729 31.8779 32.9972 31.8739C31.4385 31.7423 29.8694 31.8102 28.3279 32.076C27.829 32.1601 27.3662 32.3903 26.9981 32.7375C26.6307 32.3902 26.1683 32.1601 25.6696 32.0764C24.1281 31.8109 22.559 31.743 21.0003 31.8743C20.4246 31.8781 19.8642 32.0611 19.3972 32.3979C18.494 31.5482 16.5778 31.2095 13.5825 31.3723L13.4952 31.377C12.9879 31.3775 12.4932 31.5357 12.0798 31.8296C11.9519 31.7159 11.8117 31.6168 11.6617 31.5343C10.2024 30.7167 7.20544 30.9015 6.26171 31.3065C5.87129 31.4564 5.52936 31.7103 5.27301 32.0407C5.01666 32.3712 4.85567 32.7655 4.8075 33.1809C4.41389 35.6484 5.61539 40.1642 7.38516 41.4015C7.79429 41.6616 8.27261 41.7916 8.7571 41.7745C9.43169 41.7642 10.0937 41.5904 10.6864 41.2681C11.2791 40.9457 11.7847 40.4844 12.1599 39.9237C12.8206 41.4062 13.7728 42.3765 14.9021 42.679C15.1455 42.7441 15.3964 42.7772 15.6484 42.7773C16.5071 42.7529 17.3258 42.409 17.9443 41.8129C18.4254 41.3954 18.8392 40.9062 19.1711 40.3625C19.9752 42.2693 21.5053 43.5725 23.157 43.686C23.2364 43.6915 23.3161 43.6943 23.3957 43.6944C24.812 43.6944 26.0202 42.8115 26.7399 41.2387C26.8416 41.0575 26.9279 40.8681 26.9981 40.6725C27.068 40.8681 27.1541 41.0575 27.2555 41.2387C27.9752 42.8115 29.1834 43.6944 30.5997 43.6944C30.679 43.6944 30.7583 43.6915 30.8385 43.686C32.4901 43.5725 34.0202 42.2693 34.8243 40.362C35.1562 40.9059 35.57 41.3952 36.0511 41.8129C36.6695 42.4091 37.488 42.7533 38.3466 42.7781C38.5986 42.778 38.8494 42.745 39.0929 42.6798C40.2218 42.3773 41.174 41.407 41.8351 39.9246C42.2103 40.4853 42.7159 40.9466 43.3086 41.2689C43.9013 41.5913 44.5633 41.765 45.2379 41.7753C45.7224 41.7925 46.2007 41.6625 46.6098 41.4024C48.38 40.1625 49.5815 35.6484 49.1888 33.1809ZM9.86578 40.2629C9.5986 40.4075 9.30289 40.4915 8.9996 40.5091C8.69632 40.5267 8.39288 40.4773 8.11078 40.3646C6.8595 39.4875 5.70821 35.5725 6.05836 33.3804C6.07209 33.1761 6.146 32.9803 6.27077 32.8178C6.39554 32.6554 6.5656 32.5335 6.75952 32.4675C7.39233 32.1971 9.978 32.0401 11.0416 32.6363C11.1622 32.6941 11.2644 32.7842 11.3369 32.8965C11.0774 33.8327 11.1803 35.9231 11.4744 37.5945C11.5416 37.9217 11.5252 38.2605 11.4267 38.5796C11.2984 38.9536 11.0932 39.2965 10.8243 39.5864C10.5555 39.8763 10.229 40.1067 9.86578 40.2629ZM18.5931 37.7916C18.6142 37.9648 18.6117 38.14 18.5859 38.3126C18.4195 39.318 17.891 40.2278 17.1001 40.8704C16.8624 41.1175 16.5663 41.3008 16.239 41.4032C15.9118 41.5056 15.564 41.5239 15.2278 41.4564C14.3292 41.2155 13.5243 40.195 13.0206 38.6564C12.4481 36.9073 12.3333 33.7036 12.5502 33.2214C12.7345 32.894 12.8565 32.6776 13.5576 32.6409L13.6471 32.6363C17.5106 32.4253 18.4265 33.1374 18.6446 33.4762C18.3953 34.3896 18.4341 36.2813 18.5931 37.7916ZM26.3767 34.9536C26.3691 37.916 26.1202 39.8212 25.6376 40.6169C25.6243 40.6389 25.6123 40.6617 25.6017 40.6852C25.0668 41.874 24.2251 42.4938 23.2447 42.4233C22.128 42.3465 20.7257 41.3303 20.1089 39.2323C19.6904 37.8084 19.6368 34.2622 19.8739 33.7614C20.0182 33.5057 20.1975 33.1876 21.0683 33.1395C21.6292 33.1068 22.1909 33.0893 22.7528 33.0872C23.6431 33.0743 24.5324 33.1511 25.4072 33.3167C26.1797 33.4787 26.3974 33.7808 26.3776 34.6575L26.3767 34.9536ZM33.8861 39.2318C33.2693 41.3303 31.867 42.3465 30.7503 42.4233C29.7732 42.4938 28.9286 41.8749 28.3933 40.6852C28.3827 40.6617 28.3707 40.6389 28.3574 40.6169C27.8748 39.8212 27.6259 37.9169 27.6183 34.9536V34.6583C27.5997 33.7804 27.8174 33.4796 28.5886 33.3176C29.4634 33.1518 30.3527 33.0749 31.243 33.0881C31.8366 33.0881 32.4116 33.1121 32.9276 33.1404C33.7983 33.1885 33.9776 33.5066 34.119 33.7568C34.3594 34.2622 34.3059 37.8084 33.8873 39.2318H33.8861ZM40.9736 38.6564C40.4699 40.195 39.6658 41.2155 38.7663 41.4564C38.4305 41.5237 38.0831 41.5054 37.7562 41.4029C37.4293 41.3005 37.1335 41.1174 36.8962 40.8704C36.1053 40.2277 35.5767 39.318 35.4099 38.3126C35.3844 38.14 35.3822 37.9648 35.4031 37.7916C35.5622 36.2796 35.601 34.3896 35.3496 33.4762C35.5681 33.1387 36.4857 32.4257 40.3471 32.6363L40.4361 32.6409C41.1377 32.6776 41.2596 32.894 41.4393 33.2125C41.6608 33.7036 41.5461 36.9073 40.9736 38.6564ZM45.8855 40.3642C45.6035 40.4773 45.3 40.5269 44.9967 40.5094C44.6933 40.4919 44.3976 40.4077 44.1305 40.2629C43.7673 40.1067 43.4407 39.8763 43.1719 39.5864C42.9031 39.2965 42.6979 38.9536 42.5695 38.5796C42.4711 38.2605 42.4547 37.9217 42.5219 37.5945C42.8172 35.9231 42.9188 33.8327 42.6594 32.8965C42.7319 32.7842 42.8341 32.6941 42.9547 32.6363C44.0183 32.0401 46.6048 32.1967 47.2367 32.4675C47.4307 32.5335 47.6007 32.6554 47.7255 32.8178C47.8503 32.9803 47.9242 33.1761 47.9379 33.3804C48.2881 35.5725 47.1368 39.4875 45.8855 40.3642Z" fill="#D00404"/>
<path d="M51.1243 12.1631C50.4953 11.0873 49.2858 10.6021 47.8864 10.8696C46.5381 11.1594 45.3564 11.9644 44.5933 13.1131C44.5084 12.81 44.3945 12.5157 44.2532 12.2344C43.6411 11.0713 42.0907 10.5638 40.3037 10.9439C38.7806 11.2593 37.4378 12.1499 36.5549 13.4304C36.2829 12.6613 35.7767 11.9967 35.1074 11.5302C34.4382 11.0637 33.6395 10.8187 32.8238 10.8295C31.5236 10.8096 30.2522 11.2131 29.2014 11.9792C28.1506 12.7452 27.3774 13.8322 26.9986 15.0761C26.6289 13.8555 25.8788 12.7851 24.8577 12.021C23.8366 11.257 22.5979 10.8393 21.3227 10.8291H21.1737C20.3581 10.8183 19.5595 11.0633 18.8903 11.5298C18.2212 11.9964 17.715 12.6609 17.4431 13.43C16.5602 12.1495 15.2174 11.2588 13.6943 10.9434C11.9077 10.5638 10.3564 11.07 9.74472 12.234C9.60327 12.5147 9.48912 12.8084 9.40384 13.111C8.64071 11.9623 7.45898 11.1573 6.11068 10.8675C4.71301 10.6009 3.50181 11.0852 2.87237 12.1614C1.82232 13.9573 2.29061 19.1476 2.70995 20.1589C3.2394 21.4338 6.17987 22.0548 7.98972 22.0548C8.1669 22.0548 8.33397 22.0489 8.48626 22.0371C8.83755 22.0172 9.18378 21.9441 9.51311 21.8202C10.5678 22.9196 13.4243 23.3845 15.335 23.3845C15.5949 23.3845 15.837 23.3757 16.0551 23.3592C16.565 23.3362 17.0672 23.2263 17.5401 23.0344C17.9077 23.5336 18.454 23.8715 19.0648 23.9777C20.5159 24.2383 21.9877 24.3663 23.462 24.3603C24.1159 24.3603 24.7597 24.3354 25.368 24.2852C25.9665 24.2488 26.5378 24.0222 26.9986 23.6385C27.459 24.0227 28.0301 24.2498 28.6287 24.2869C29.2374 24.3371 29.8808 24.3616 30.5351 24.3616C32.0094 24.3677 33.4812 24.2398 34.9323 23.9794C35.5434 23.8728 36.0897 23.5342 36.457 23.0344C36.9296 23.2263 37.4315 23.3363 37.9412 23.3596C38.1593 23.3761 38.4014 23.385 38.6613 23.385C40.5728 23.385 43.4285 22.9209 44.4832 21.8206C44.8125 21.9445 45.1587 22.0176 45.51 22.0375C45.6623 22.0493 45.8289 22.0552 46.0066 22.0552C47.8164 22.0552 50.7569 21.4342 51.2863 20.1593C51.7065 19.1498 52.1748 13.9594 51.1243 12.1631ZM5.77529 20.5246C4.48267 20.2205 3.93929 19.821 3.87897 19.6754C3.51151 18.7895 3.22211 14.0733 3.96334 12.8022C4.46368 11.9471 5.46479 12.0348 5.87233 12.1129C6.59964 12.2804 7.26701 12.6443 7.80167 13.1651C8.33633 13.6858 8.71775 14.3434 8.90434 15.066C8.95415 15.2802 8.966 15.5016 8.93936 15.7199C8.76119 17.3648 8.78343 19.0252 9.00559 20.6647C8.59089 20.8195 7.33075 20.8908 5.77529 20.5246ZM13.2374 21.9489C11.2787 21.6312 10.453 21.0832 10.3607 20.868C9.93498 19.8792 9.97084 14.5264 10.8669 12.8254C11.2044 12.1871 12.2342 11.9289 13.4332 12.1833C15.0591 12.5284 16.7571 13.7755 17.0005 15.8001C17.014 15.9262 17.0154 16.0533 17.0048 16.1798C16.9113 18.0755 16.9327 19.9752 17.0689 21.8683C16.6694 22.0835 15.2219 22.2712 13.2374 21.9489ZM26.1468 22.7019C25.9013 22.915 25.5859 23.0302 25.2609 23.0255C23.2694 23.1804 21.2664 23.0833 19.2993 22.7365C19.0082 22.6823 18.746 22.5259 18.5599 22.2955C18.3738 22.0651 18.2761 21.7758 18.2843 21.4798C18.2122 20.5095 18.0135 17.1311 18.4788 14.4345C18.5628 13.7755 18.8886 13.1713 19.3929 12.739C19.8973 12.3067 20.5443 12.0773 21.2083 12.0952C22.2624 12.0837 23.2902 12.4245 24.1287 13.0633C24.9672 13.7022 25.5684 14.6027 25.8371 15.622C26.1704 17.0378 26.259 22.4602 26.1485 22.7019H26.1468ZM35.7082 21.4785C35.7164 21.7745 35.6186 22.0637 35.4325 22.294C35.2465 22.5244 34.9842 22.6807 34.6931 22.7348C32.726 23.0823 30.7227 23.1794 28.7312 23.0238C28.4061 23.0285 28.0907 22.9131 27.8453 22.6998C27.7347 22.4581 27.8237 17.037 28.1545 15.6216C28.4188 14.6215 29.003 13.7352 29.8181 13.0981C30.6331 12.461 31.6342 12.1081 32.6686 12.093H32.7812C33.4452 12.0753 34.0921 12.3048 34.5965 12.737C35.1009 13.1693 35.4267 13.7734 35.5107 14.4323C35.9807 17.1311 35.782 20.5086 35.7099 21.4802L35.7082 21.4785ZM43.6344 20.8659C43.542 21.0815 42.7168 21.6295 40.758 21.9472C38.7752 22.2691 37.3265 22.0822 36.9287 21.8662C37.0644 19.9729 37.0856 18.0731 36.9924 16.1772C36.9817 16.0508 36.9831 15.9237 36.9966 15.7975C37.24 13.7725 38.9372 12.5259 40.5639 12.1808C41.765 11.9277 42.7948 12.1846 43.1302 12.8229C44.0263 14.5264 44.0621 19.8792 43.636 20.8676L43.6344 20.8659ZM50.1173 19.6754C50.057 19.821 49.5136 20.2205 48.2189 20.5246C46.6622 20.8917 45.4033 20.82 44.9869 20.6664C45.2091 19.0269 45.2313 17.3665 45.0531 15.7216C45.0265 15.5033 45.0383 15.2819 45.0881 15.0677C45.2747 14.345 45.6562 13.6875 46.1908 13.1667C46.7255 12.646 47.3928 12.282 48.1202 12.1146C48.5273 12.0374 49.5288 11.9488 50.0291 12.8035C50.775 14.0733 50.4856 18.7907 50.1173 19.6754Z" fill="#D00404"/>
</svg>
