<svg width="54" height="54" viewBox="0 0 54 54" fill="none" xmlns="http://www.w3.org/2000/svg">
<path d="M52.3125 13.219C52.3125 8.94713 48.8363 5.47003 44.5635 5.47003L23.2166 5.47003C18.4379 5.46862 13.7947 7.05795 10.0192 9.98739C6.24371 12.9168 3.55076 17.0197 2.36503 21.6489C1.91531 23.3845 1.68666 25.1843 1.68666 27C1.68666 28.8158 1.91531 30.6155 2.36419 32.3485C3.5496 36.9783 6.24251 41.0818 10.0182 44.0117C13.7939 46.9416 18.4375 48.5313 23.2166 48.53H44.5635C48.8354 48.53 52.3125 45.0537 52.3125 40.781C52.3125 36.5082 48.8363 33.0311 44.5635 33.0311H23.2166C19.8906 33.0311 17.1847 30.3252 17.1847 27C17.1847 23.6748 19.8906 20.9689 23.2166 20.9689H44.5635C48.8354 20.9689 52.3125 17.4926 52.3125 13.219ZM3.85678 22.7045H8.33203C8.34216 22.7045 8.35059 22.6994 8.35987 22.6986C8.42147 22.6969 8.47884 22.6783 8.53791 22.6631C8.586 22.6505 8.63578 22.6454 8.6805 22.6252C8.72943 22.6032 8.76909 22.5669 8.81297 22.5357C8.85684 22.5045 8.90409 22.4783 8.94122 22.4387C8.97412 22.4041 8.99522 22.3594 9.02222 22.318C9.05681 22.2666 9.09309 22.2185 9.11503 22.1594C9.11841 22.1501 9.126 22.1442 9.12938 22.1349C10.141 19.2033 12.0417 16.6601 14.5667 14.8595C17.0917 13.0589 20.1154 12.0906 23.2166 12.0893L44.5635 12.0893C45.1853 12.0893 45.6924 12.5963 45.6924 13.2182C45.6924 13.84 45.1853 14.348 44.5635 14.348L23.2166 14.348C16.2405 14.348 10.5654 20.0239 10.5654 26.9992C10.5654 33.9744 16.2413 39.6503 23.2166 39.6503H44.5635C45.1853 39.6503 45.6924 40.1574 45.6924 40.7801C45.6924 41.4028 45.1853 41.9091 44.5635 41.9091H23.2166C20.1154 41.9078 17.0917 40.9394 14.5667 39.1388C12.0417 37.3382 10.141 34.795 9.12938 31.8634C9.126 31.8541 9.11841 31.8482 9.11503 31.8389C9.09225 31.7807 9.05597 31.7318 9.02222 31.6803C8.99522 31.6398 8.97412 31.5951 8.94122 31.5596C8.90409 31.52 8.85684 31.4947 8.81297 31.4626C8.76909 31.4314 8.72943 31.3951 8.6805 31.3732C8.63662 31.3529 8.58684 31.3478 8.53875 31.3352C8.47969 31.32 8.42231 31.3014 8.36072 31.2989C8.35059 31.2989 8.343 31.293 8.33287 31.293H3.85762C3.23197 28.4635 3.23197 25.5315 3.85762 22.7019L3.85678 22.7045ZM15.4972 27C15.4972 31.2567 18.9599 34.7186 23.2166 34.7186H44.5635C47.9056 34.7186 50.625 37.438 50.625 40.781C50.625 44.1239 47.9056 46.8425 44.5635 46.8425H23.2166C14.5235 46.8425 6.912 41.1936 4.31663 32.983H7.75575C10.2178 39.3533 16.3485 43.5974 23.2166 43.5974H44.5635C46.1168 43.5974 47.3799 42.3343 47.3799 40.781C47.3799 39.2276 46.1168 37.9637 44.5635 37.9637H23.2166C17.1712 37.9637 12.2529 33.0455 12.2529 27C12.2529 20.9545 17.1712 16.0363 23.2166 16.0363H44.5635C46.1168 16.0363 47.3799 14.7724 47.3799 13.219C47.3799 11.6657 46.1168 10.4026 44.5635 10.4026L23.2166 10.4026C16.3485 10.4026 10.2178 14.6467 7.75575 21.017H4.31747C6.912 12.8073 14.5226 7.15753 23.2175 7.15753L44.5635 7.15753C47.9056 7.15753 50.625 9.87694 50.625 13.219C50.625 16.5611 47.9056 19.2814 44.5635 19.2814H23.2166C18.9599 19.2814 15.4972 22.7441 15.4972 27Z" fill="#D00404"/>
</svg>
