<svg width="54" height="54" viewBox="0 0 54 54" fill="none" xmlns="http://www.w3.org/2000/svg">
<path d="M41.2417 3.68086C39.6723 2.12414 37.7992 1.22344 35.675 1.00301C33.7544 0.803671 31.6746 1.16543 29.4924 2.07773C27.8366 2.77066 26.1586 2.77066 24.5027 2.07773C22.3206 1.16437 20.2407 0.802616 18.3201 1.00301C16.196 1.22344 14.3229 2.12414 12.7535 3.68086C10.4764 5.93894 9.29623 8.68008 9.24772 11.8273C9.20236 14.7076 10.1083 17.858 11.9393 21.1897C12.6892 22.5545 14.0666 23.3687 15.6233 23.3687H15.6824L16.274 25.2492C16.62 26.3493 17.6272 27.0886 18.781 27.0886H20.9389L21.1878 30.4752L20.1142 30.7631C18.7346 31.1333 17.913 32.5561 18.2822 33.9356C18.5922 35.0916 19.6417 35.8562 20.7849 35.8562C21.0064 35.8562 21.2311 35.8277 21.4547 35.7676L21.5749 35.7349L21.6899 37.3032L20.651 37.5817C19.2715 37.9508 18.4499 39.3746 18.819 40.7542C19.1291 41.9101 20.1785 42.6748 21.3218 42.6748C21.5433 42.6748 21.7679 42.6463 21.9915 42.5862L22.0769 42.563L22.1845 44.0174L21.095 44.3095C19.7155 44.6797 18.8939 46.1025 19.263 47.482C19.4413 48.1486 19.8705 48.7065 20.4706 49.0535C20.8714 49.2845 21.3155 49.4026 21.7647 49.4026C21.9883 49.4026 22.214 49.3731 22.4355 49.314L22.5716 49.2771L22.5842 49.4469C22.733 51.4677 24.4363 53.0497 26.4623 53.0497H27.5318C29.5578 53.0497 31.2612 51.4666 31.4099 49.4469L31.6008 46.8577L32.9001 46.5096C33.5667 46.3314 34.1246 45.9021 34.4716 45.302C34.8186 44.7019 34.9114 44.0037 34.7321 43.3371C34.5539 42.6705 34.1246 42.1126 33.5235 41.7656C33.0552 41.4946 32.5268 41.3796 32.0005 41.4271L32.1154 39.8725L33.3442 39.5434C34.0107 39.3652 34.5687 38.9359 34.9156 38.3347C35.2626 37.7346 35.3555 37.0364 35.1762 36.3698C34.9979 35.7033 34.5687 35.1454 33.9675 34.7984C33.5192 34.54 33.0172 34.4229 32.5141 34.4545L32.6386 32.7691L33.8821 32.4359C34.5486 32.2576 35.1065 31.8284 35.4535 31.2282C35.8005 30.6281 35.8933 29.9299 35.714 29.2634C35.5358 28.5968 35.1065 28.0389 34.5054 27.6919C34.0529 27.4303 33.5456 27.3143 33.0372 27.348L33.0562 27.0865H35.2141C36.368 27.0865 37.3752 26.3471 37.7211 25.2471L38.3128 23.3666H38.3719C39.9286 23.3666 41.306 22.5524 42.0559 21.1876C43.8868 17.8559 44.7928 14.7055 44.7474 11.8252C44.6989 8.67902 43.5187 5.93789 41.2417 3.68086ZM29.9386 49.3393C29.8447 50.6134 28.8111 51.5742 27.5328 51.5742H26.4634C25.1862 51.5742 24.1515 50.6134 24.0576 49.3393L24.0249 48.889L30.0915 47.2637L29.9386 49.3393ZM32.7862 43.046C33.0457 43.1958 33.2303 43.4352 33.3062 43.721C33.3832 44.0068 33.3421 44.3064 33.1933 44.5648C33.0436 44.8242 32.8042 45.0088 32.5183 45.0847L22.0548 47.8881C21.769 47.964 21.4694 47.9239 21.211 47.7752C20.9516 47.6255 20.767 47.3861 20.6911 47.1002C20.6141 46.8144 20.6552 46.5149 20.8039 46.2565C20.9537 45.9981 21.1931 45.8125 21.4779 45.7365L31.9414 42.9332C32.2272 42.8562 32.5268 42.8962 32.7862 43.046ZM30.4933 41.792L23.6368 43.6293L23.5292 42.1748L30.6041 40.2796L30.4933 41.792ZM33.2292 36.0798C33.4887 36.2296 33.6732 36.469 33.7492 36.7548C33.8262 37.0406 33.785 37.3402 33.6363 37.5986C33.4865 37.8569 33.2471 38.0426 32.9624 38.1185L21.6108 41.1602C21.3249 41.2362 21.0254 41.1961 20.767 41.0474C20.5076 40.8976 20.323 40.6582 20.2471 40.3734C20.1701 40.0876 20.2112 39.7881 20.3599 39.5297C20.5097 39.2713 20.7491 39.0857 21.0338 39.0097L32.3854 35.968C32.6702 35.89 32.9708 35.93 33.2292 36.0798ZM31.008 34.8068L23.1432 36.9141L23.0283 35.3457L31.1283 33.1752L31.008 34.8068ZM33.7671 28.9723C34.0265 29.122 34.2111 29.3614 34.2871 29.6473C34.364 29.9331 34.3229 30.2326 34.1742 30.491C34.0244 30.7494 33.785 30.935 33.5003 31.011L21.0729 34.3406C20.7871 34.4176 20.4875 34.3765 20.2291 34.2278C19.9697 34.078 19.7851 33.8386 19.7092 33.5528C19.5499 32.96 19.9032 32.3473 20.497 32.188L32.9233 28.8584C33.2081 28.7824 33.5076 28.8225 33.7671 28.9723ZM31.5312 27.7035L22.6412 30.086L22.4208 27.0886H31.5776L31.5312 27.7035ZM36.3131 24.8062C36.1591 25.2956 35.7278 25.612 35.2141 25.612H18.7821C18.2685 25.612 17.8371 25.2956 17.6831 24.8062L17.2306 23.3687H36.7656L36.3131 24.8062ZM40.7628 20.4778C40.2692 21.3764 39.3981 21.8911 38.3729 21.8911H15.6233C14.5981 21.8911 13.727 21.3754 13.2334 20.4778C10.7675 15.9912 8.86381 9.61664 13.7934 4.72816C15.5189 3.01746 17.4753 2.42683 19.3558 2.42683C21.0096 2.42683 22.6053 2.88457 23.9321 3.43933C25.9656 4.29047 28.0285 4.29047 30.062 3.43933C32.898 2.25281 36.9586 1.51348 40.2017 4.72816C45.1324 9.61769 43.2276 15.9912 40.7628 20.4778ZM40.5034 8.64844C40.5546 8.76088 40.5768 8.8844 40.5679 9.00766C40.559 9.13091 40.5193 9.24996 40.4524 9.35388C40.3856 9.4578 40.2937 9.54327 40.1852 9.60244C40.0767 9.66162 39.9551 9.69261 39.8315 9.69258C39.551 9.69258 39.2831 9.53226 39.1597 9.26016C38.8264 8.5282 38.3423 7.84476 37.7222 7.22988C36.1855 5.70586 34.1837 5.53394 31.4225 6.68883C31.046 6.84598 30.6136 6.66879 30.4564 6.29226C30.2993 5.91574 30.4765 5.48332 30.853 5.32617C34.1415 3.9498 36.8025 4.23773 38.7621 6.18047C39.5099 6.92297 40.0963 7.75301 40.5034 8.64844Z" fill="#D00404"/>
</svg>
