<svg width="54" height="54" viewBox="0 0 54 54" fill="none" xmlns="http://www.w3.org/2000/svg">
<path fill-rule="evenodd" clip-rule="evenodd" d="M42.3638 24.0139C42.7636 24.0139 43.0882 24.3374 43.0882 24.7342V25.0516C43.9439 25.137 44.7118 25.3262 45.421 25.6314C45.7878 25.7901 45.9557 26.2173 45.7964 26.5835C45.6371 26.9498 45.2104 27.1206 44.8443 26.962C44.1284 26.6507 43.322 26.4859 42.3779 26.4615H42.3718C41.9006 26.4677 41.4788 26.5409 41.1193 26.6873H41.1083C40.4393 26.9437 40.3629 27.2306 40.3496 27.371C40.3758 27.6212 40.6352 27.847 41.1223 28.0546C41.4873 28.2024 41.9762 28.2804 42.4107 28.2804C43.9922 28.2804 45.7777 29.0412 45.869 30.5875C45.871 30.6221 45.8706 30.6568 45.8678 30.6913C45.7676 31.9351 44.6149 32.7491 43.0882 32.9436V33.267C43.0882 33.6699 42.7636 33.9933 42.3638 33.9933C41.9639 33.9933 41.6399 33.6699 41.6399 33.267V32.9558C40.8276 32.8764 40.0445 32.6872 39.3041 32.3759C38.9349 32.2233 38.7597 31.8022 38.9123 31.4298C39.0661 31.0636 39.4897 30.8866 39.8589 31.0392C40.9196 31.4775 42.517 31.7692 43.6566 31.32C44.2975 31.0637 44.397 30.7829 44.4184 30.6364C44.3982 30.496 44.2975 30.2153 43.6518 29.9528C43.2444 29.7935 42.8122 29.7292 42.3657 29.727C41.7352 29.7208 41.1395 29.6172 40.5926 29.4035C40.5852 29.4035 40.5773 29.3974 40.5706 29.3974C39.2279 28.8297 38.9208 27.9996 38.8989 27.3954C38.8989 27.377 38.8989 27.3526 38.9001 27.3282C38.9661 26.0923 40.1044 25.2892 41.6401 25.0638V24.7342C41.6399 24.3374 41.9641 24.0139 42.3638 24.0139ZM32.1751 24.1176H19.493C19.8696 30.7889 25.4141 36.0989 32.175 36.0989C33.7077 36.0989 35.192 35.8304 36.602 35.3054C34.8953 33.7429 33.8236 31.4968 33.8236 29.0004C33.8236 23.3507 39.2264 19.2897 44.6043 20.7605C43.4336 15.1757 38.6423 11.0314 32.8989 10.7079V23.3912C32.899 23.7941 32.5749 24.1176 32.1751 24.1176ZM49.4556 29.0005C49.4556 25.0941 46.2744 21.9142 42.3638 21.9142C38.4532 21.9142 35.272 25.0941 35.272 29.0005C35.272 32.9129 38.4532 36.099 42.3638 36.099C46.2744 36.099 49.4556 32.9129 49.4556 29.0005ZM18.0239 23.3913C18.0239 31.1977 24.3723 37.5456 32.175 37.5456C34.1916 37.5456 36.1326 37.1305 37.9533 36.3126C39.2417 37.0939 40.7511 37.5456 42.3637 37.5456C47.0732 37.5456 50.9044 33.7125 50.9044 29.0005C50.9044 25.6679 48.9788 22.7687 46.1808 21.3649C45.1871 14.4251 39.2355 9.24318 32.1749 9.24318C31.7751 9.24318 31.4505 9.56664 31.4505 9.96343V22.6711H18.7484C18.348 22.671 18.0239 22.9946 18.0239 23.3913ZM47.3474 48.1963C47.3474 48.3551 47.2144 48.4893 47.0557 48.4893H44.6771C44.519 48.4893 44.3848 48.3551 44.3848 48.1963V40.109C44.3848 39.9504 44.519 39.816 44.6771 39.816H47.0557C47.2144 39.816 47.3474 39.9503 47.3474 40.109V48.1963ZM39.649 47.5127C37.0915 47.7995 34.345 48.0071 31.5916 47.6042C28.9945 47.2198 27.6084 46.5423 25.2695 45.1872L16.3839 40.0602C15.8511 39.755 15.6662 39.0653 15.9756 38.5343C16.2838 37.9972 16.9686 37.814 17.5027 38.1254L25.0589 42.4895C25.9741 43.0129 26.6062 43.4544 27.9264 43.2463C28.1704 43.5815 28.4903 43.8541 28.8599 44.0419C29.2295 44.2297 29.6384 44.3273 30.0529 44.3267H36.3213C36.4165 44.3266 36.5109 44.3078 36.5988 44.2713C36.6868 44.2348 36.7667 44.1812 36.834 44.1138C36.9012 44.0463 36.9545 43.9662 36.9907 43.8781C37.027 43.79 37.0455 43.6956 37.0452 43.6004C37.0452 43.2036 36.7211 42.8801 36.3213 42.8801H30.0529C29.3977 42.8801 28.864 42.3401 28.864 41.6899C28.864 41.0369 29.398 40.4998 30.0529 40.4998H36.3213C36.3848 40.4998 36.4476 40.4937 36.5086 40.4754C38.5637 39.9261 40.1927 40.2618 42.08 40.6462C42.3595 40.7012 42.6452 40.7622 42.9357 40.8172V47.2077C41.8383 47.2888 40.7426 47.3905 39.649 47.5127ZM47.0556 38.3695C48.0163 38.3695 48.7963 39.1508 48.7963 40.109V48.1963C48.7963 49.1606 48.0163 49.9419 47.0556 49.9419H44.677C43.8755 49.9419 43.2005 49.3926 42.9985 48.6541C41.9603 48.7335 40.9306 48.825 39.8105 48.9532C37.0483 49.2659 34.2093 49.4533 31.3796 49.0325C28.437 48.5991 26.8349 47.769 24.5448 46.4446L15.6592 41.3177C14.4337 40.6096 14.0125 39.035 14.7205 37.8081C15.4245 36.5875 16.9938 36.1563 18.2264 36.8682L25.7833 41.2322C26.4401 41.6163 26.6945 41.8425 27.4202 41.8425C27.3261 40.3437 28.5347 39.0532 30.0527 39.0532H36.2271C38.5684 38.449 40.416 38.8274 42.3697 39.2241C42.6089 39.2729 42.8543 39.3279 43.1015 39.3767C43.3798 38.7846 43.9804 38.3696 44.6768 38.3696L47.0556 38.3695ZM8.93387 17.1412C8.94856 17.0558 8.95763 16.9642 8.95763 16.8666V8.77932C8.95763 8.60846 8.93203 8.4375 8.88559 8.28489L11.1012 7.26559C13.221 6.26465 14.5009 5.66039 15.9346 5.51999C16.9961 5.42235 18.2051 5.86181 20.0356 6.52709L23.5843 7.78442C22.6626 8.20542 21.7881 8.72305 20.9757 9.32861C18.6953 9.32861 16.1606 9.38963 14.3172 11.2756C13.5232 12.0875 13.5348 13.3997 14.3435 14.1993C14.858 14.7059 15.5893 15.0294 16.5151 15.1636L20.2706 15.1698C20.9249 15.1698 21.459 15.7008 21.459 16.3599C21.459 17.013 20.9249 17.5441 20.2706 17.5441H11.4577C10.6077 17.4717 9.76417 17.3371 8.93387 17.1412ZM7.50924 16.8666C7.50924 17.0252 7.37618 17.1596 7.21753 17.1596H4.83775C4.67964 17.1596 4.54604 17.0253 4.54604 16.8666V8.77932C4.54604 8.62067 4.67975 8.48631 4.83775 8.48631H7.21753C7.37618 8.48631 7.50924 8.62056 7.50924 8.77932V16.8666ZM16.6696 13.7232C16.0824 13.6316 15.6424 13.4486 15.3609 13.1678C15.1181 12.9298 15.1149 12.5331 15.3536 12.2889C16.3601 11.2574 17.6558 10.9217 19.2837 10.824C18.44 11.6925 17.7126 12.6671 17.1201 13.7231L16.6696 13.7232ZM28.726 19.9427H16.7684C16.7868 19.6253 16.8179 19.308 16.8582 18.9967H20.2706C21.7251 18.9967 22.908 17.8125 22.908 16.3599C22.908 14.9072 21.7252 13.7232 20.2706 13.7232H18.8137C21.0177 10.3419 24.6811 8.21167 28.726 7.98584V19.9427ZM15.2993 20.669C15.2993 20.1075 15.3335 19.5521 15.3976 18.9967L11.3668 18.9905C10.2315 18.8989 9.1084 18.6975 8.02321 18.4106C7.77375 18.5382 7.49771 18.6051 7.21753 18.6059H4.83775C3.87882 18.6059 3.09766 17.8246 3.09766 16.8664V8.77932C3.09766 7.82103 3.87893 7.03976 4.83775 7.03976H7.21753C7.43602 7.03976 7.64359 7.07637 7.83583 7.15575C8.54755 6.8567 9.14263 6.58811 9.59548 6.37448C11.8801 5.29589 13.8083 4.26924 15.7967 4.07959C17.1847 3.94535 18.5892 4.45802 20.5319 5.16607L22.5399 5.88017C23.5818 6.24639 24.4913 6.5637 25.668 7.02767C26.8999 6.68701 28.1723 6.51456 29.4504 6.51499C29.8502 6.51499 30.1749 6.84461 30.1749 7.24129V20.669C30.1751 20.7643 30.1565 20.8587 30.1202 20.9468C30.0839 21.0349 30.0306 21.115 29.9633 21.1825C29.896 21.2499 29.8161 21.3035 29.7281 21.34C29.6401 21.3765 29.5457 21.3953 29.4504 21.3953H16.0237C15.9284 21.3954 15.8341 21.3766 15.7461 21.34C15.658 21.3035 15.5781 21.25 15.5108 21.1825C15.4435 21.1151 15.3902 21.035 15.3539 20.9469C15.3176 20.8587 15.299 20.7643 15.2993 20.669Z" fill="#D00404"/>
</svg>
