<svg width="54" height="54" viewBox="0 0 54 54" fill="none" xmlns="http://www.w3.org/2000/svg">
<path d="M3.96343 28.8141C5.34612 29.1284 7.35847 29.2264 9.02593 28.8615C9.18307 28.8299 9.32968 28.7719 9.46257 28.6938C9.84753 29.1948 10.4086 29.5597 11.071 29.6895C13.2457 30.1113 15.2032 30.1799 17.2926 29.7548C17.5489 29.7032 17.7767 29.584 17.9623 29.4184C18.3905 29.8761 18.9653 30.1957 19.6171 30.2938C20.5431 30.4341 21.4755 30.5037 22.4078 30.5037C23.5606 30.5037 24.7144 30.3971 25.8587 30.1841C26.307 30.1008 26.7004 29.8835 27.0041 29.5798C27.3068 29.8846 27.7013 30.1008 28.1495 30.1841C29.0787 30.3571 30.0163 30.4594 30.9487 30.4921C30.6323 32.2481 30.531 34.0189 30.5046 35.2614C30.4825 36.3277 31.2303 37.2431 32.2818 37.4393C33.8944 37.7388 35.525 37.8306 37.1534 37.7051C38.4201 39.3831 39.1974 41.367 39.402 43.4647L39.8703 48.2678C39.903 48.6169 40.2194 48.8711 40.5611 48.8363C40.7281 48.82 40.8817 48.7381 40.9883 48.6085C41.0949 48.479 41.1457 48.3124 41.1296 48.1454L40.6613 43.3424C40.4567 41.2541 39.7426 39.2692 38.5857 37.5384C38.669 37.5237 38.7502 37.5057 38.8314 37.4846C41.5187 40.7668 41.2635 44.3317 41.7181 48.2688C41.8257 49.0957 43.0301 48.986 42.9774 48.1465C42.5112 43.6968 42.6757 39.9379 39.5169 36.3277C39.4927 36.3023 37.5826 34.1719 37.4825 34.0675C37.2515 33.847 37.5826 33.5095 37.8052 33.7405L39.7996 35.5061C39.8239 35.5271 39.8481 35.5504 39.8713 35.5714C43.9456 39.2407 43.5807 43.3139 44.0532 48.2614C44.1491 49.0873 45.3567 48.9955 45.3146 48.1539L44.8705 42.9701C44.6058 39.8619 43.22 36.9932 40.9587 34.8532C40.9714 33.0761 40.8195 31.378 40.5748 30.0069C41.3247 29.9573 42.1041 29.8529 42.9373 29.6905C43.5766 29.5658 44.1482 29.2117 44.5446 28.6949C44.6775 28.7729 44.8252 28.8309 44.9823 28.8626C45.8535 29.0366 46.654 29.1009 47.3733 29.1009C48.4628 29.1009 49.3667 28.9533 50.0438 28.8141C51.3242 28.5525 52.2228 27.4198 52.1806 26.1204C52.0255 21.1992 50.5057 18.3758 48.0103 18.3748C46.0444 18.3748 44.9939 20.1519 44.4381 22.2296C42.758 16.5428 37.8484 16.0882 36.3023 22.0693C35.7728 19.4674 34.2962 16.8296 31.5899 16.8761C28.7159 16.9098 27.5483 19.961 27.002 22.3109C26.211 18.5203 24.2419 16.7885 22.412 16.8761C19.7226 16.8761 18.3578 19.1711 17.706 22.0725C16.7304 18.5171 14.9839 17.7599 13.6718 17.7599C11.8071 17.8042 10.1502 20.0538 9.56698 22.2296C9.01116 20.1519 7.96069 18.3737 5.99475 18.3748C3.50042 18.3748 1.98061 21.1992 1.82557 26.1204C1.78444 27.4198 2.68304 28.5525 3.96237 28.8141H3.96343ZM37.243 32.4527C36.5912 32.6236 36.1325 33.229 36.1388 33.8955C36.1388 34.2795 36.2843 34.6433 36.548 34.9218L37.8505 36.3656C36.0776 36.585 34.2846 36.5259 32.5128 36.1958C32.073 36.1136 31.7597 35.7318 31.7692 35.2888C31.7671 32.651 32.4495 25.2524 35.7253 25.3969C38.9558 25.3948 39.5623 30.5849 39.6762 33.7078L38.6489 32.7987C38.2671 32.4454 37.7419 32.3156 37.242 32.4527H37.243ZM48.0103 19.6404C50.5163 19.6404 50.8675 24.6312 50.916 26.1605C50.9382 26.8418 50.4646 27.4356 49.7907 27.5738C48.7739 27.7826 47.1961 28.0136 45.2323 27.6212C45.1532 27.6054 45.0962 27.5368 45.0973 27.4567C45.1047 26.4083 45.1859 24.3844 45.6478 22.6114C46.1615 20.6392 46.9557 19.6404 48.0103 19.6404ZM40.3322 19.0255C42.5502 19.4759 43.7399 22.8118 43.8348 27.0295C43.8496 27.7182 43.3697 28.3152 42.6947 28.4481C41.8436 28.6147 41.0547 28.7149 40.2995 28.7539C39.6709 26.3914 38.6025 24.9223 37.1175 24.3738C37.4498 22.1621 38.2808 19.0255 40.3322 19.0255ZM27.6369 28.0262C27.6222 25.8746 28.1959 18.0373 31.592 18.1417C34.2825 18.1944 35.0124 21.4861 35.372 24.1502C32.9832 24.3791 31.7998 26.9104 31.2166 29.2349C30.2747 29.2138 29.3223 29.1168 28.3805 28.9406C27.9407 28.8594 27.6253 28.4692 27.6369 28.0262ZM19.3872 20.81C20.0674 19.015 21.0578 18.1417 22.4152 18.1417C25.8134 18.0425 26.3819 25.8694 26.3703 28.0283C26.3808 28.4713 26.0655 28.8594 25.6257 28.9406C23.6935 29.3003 21.7349 29.3351 19.8038 29.044C19.0191 28.9259 18.4327 28.2298 18.4401 27.425C18.4654 24.6259 18.7839 22.4005 19.3861 20.81H19.3872ZM11.8335 20.3418C13.8617 17.6418 15.7791 19.4474 16.5564 22.6684C17.1069 24.8495 17.1734 27.3712 17.1766 28.3532C17.1766 28.4312 17.1196 28.4998 17.0384 28.5166C15.2475 28.8837 13.4292 28.8626 11.3135 28.4491C10.9866 28.3853 10.6927 28.2079 10.4839 27.9483C10.2751 27.6887 10.1647 27.3637 10.1724 27.0306C10.2557 23.2907 11.1205 21.3289 11.8324 20.3418H11.8335ZM3.90964 21.4871C4.42538 20.2447 5.10776 19.6404 5.99686 19.6404C8.55132 19.5634 8.94893 25.8588 8.90991 27.4577C8.90991 27.5368 8.85401 27.6054 8.77597 27.6212C6.81214 28.0136 5.23327 27.7826 4.21655 27.5748C3.54261 27.4366 3.06905 26.8429 3.09015 26.1615C3.15026 24.2504 3.43397 22.6346 3.90858 21.4882L3.90964 21.4871Z" fill="#D00404"/>
</svg>
