<svg width="54" height="54" viewBox="0 0 54 54" fill="none" xmlns="http://www.w3.org/2000/svg">
<g clip-path="url(#clip0_1371_23356)">
<path d="M10.2407 28.1728C10.185 28.1727 10.1296 28.1654 10.0757 28.1513C6.34088 27.1468 3.14645 25.7044 0.83668 23.9836C0.702079 23.8832 0.612859 23.7335 0.58865 23.5674C0.56444 23.4012 0.607223 23.2323 0.707586 23.0977C0.80795 22.9631 0.957673 22.8738 1.12382 22.8496C1.28996 22.8254 1.45892 22.8682 1.59352 22.9686C3.77546 24.5962 6.82224 25.9639 10.4044 26.9287C10.5527 26.9684 10.6816 27.0607 10.7669 27.1884C10.8523 27.3161 10.8882 27.4705 10.8682 27.6228C10.8481 27.775 10.7733 27.9148 10.6578 28.016C10.5422 28.1172 10.3943 28.1729 10.2407 28.1728Z" fill="#D00404"/>
<path d="M27.9812 53.5781H5.30879C4.84736 53.5858 4.39004 53.4903 3.97026 53.2986C3.55049 53.1068 3.17887 52.8237 2.88259 52.4699C2.58374 52.1029 2.37899 51.6685 2.28613 51.2045C2.19328 50.7404 2.21512 50.2607 2.34976 49.807C4.01617 44.1378 6.28628 36.415 4.04106 34.6958C3.40065 34.2056 2.71131 33.7778 2.04517 33.3644C1.65159 33.1234 1.26215 32.8757 0.876995 32.6215C0.739478 32.5274 0.64463 32.3828 0.61304 32.2192C0.581451 32.0556 0.615669 31.8861 0.708268 31.7476C0.800867 31.6091 0.944371 31.5126 1.10763 31.4793C1.27089 31.4459 1.44072 31.4782 1.58026 31.5693C1.94771 31.8149 2.32824 32.0507 2.71215 32.289C3.40445 32.7185 4.12079 33.1628 4.81014 33.6909C7.74554 35.9387 5.52732 43.4784 3.5732 50.1331C3.48694 50.4096 3.4743 50.7039 3.53652 50.9868C3.59874 51.2697 3.73367 51.5315 3.92799 51.7463C4.0987 51.9293 4.306 52.0742 4.53641 52.1718C4.76682 52.2693 5.01518 52.3173 5.26534 52.3125H27.9812C28.3396 52.314 28.689 52.2011 28.9788 51.9903C29.2687 51.7796 29.4837 51.4819 29.5928 51.1405C30.1479 49.3066 31.4123 47.0711 32.0194 46.5948C33.8588 45.1533 35.1543 45.317 36.6554 45.5081C37.4831 45.6329 38.3207 45.6785 39.1571 45.6443C41.7166 45.5017 43.7361 44.6086 44.844 43.1295C45.7413 41.931 46.002 40.3827 45.5974 38.6518C45.4915 38.1999 45.3616 37.7705 45.2359 37.3549C44.752 35.7543 44.2943 34.2423 45.6999 32.7181C46.6369 31.7305 47.0761 30.7965 47.0128 29.9358C46.9561 29.3329 46.6733 28.7738 46.2214 28.3707C46.1239 28.2943 46.051 28.191 46.0116 28.0736C45.9723 27.9561 45.9683 27.8297 46 27.71C46.0318 27.5904 46.0981 27.4826 46.1905 27.4002C46.2829 27.3178 46.3975 27.2643 46.5201 27.2464C47.2972 27.1325 48.7425 26.0111 49.0703 24.7544C49.3087 23.8406 48.9264 22.9901 47.9342 22.2265C47.8676 22.1759 47.8118 22.1126 47.7701 22.0401C47.7283 21.9676 47.7015 21.8876 47.6912 21.8046C47.4803 20.0218 50.0832 18.8325 51.2088 18.4047C51.8838 18.1478 52.274 17.8103 52.3626 17.4015C52.4833 16.8472 52.0673 16.1186 51.6302 15.676C49.5775 13.5818 47.6553 11.3635 45.8746 9.03361C45.4764 8.50608 45.22 7.88525 45.1301 7.23043C45.0401 6.5756 45.1195 5.90865 45.3608 5.29327C45.891 3.87904 46.0719 2.35766 45.8881 0.858515C45.8755 0.69288 45.9285 0.528918 46.0357 0.402017C46.1429 0.275117 46.2957 0.195455 46.4611 0.180226C46.6265 0.164996 46.7913 0.215421 46.9198 0.320617C47.0484 0.425812 47.1304 0.577342 47.1482 0.7425C47.3521 2.44524 47.1403 4.17202 46.531 5.77505C46.372 6.18881 46.3218 6.63643 46.3851 7.07515C46.4484 7.51388 46.6231 7.92904 46.8926 8.28098C48.6368 10.5631 50.5196 12.7358 52.5305 14.7867C53.2026 15.4668 53.8362 16.5818 53.5996 17.6702C53.473 18.2571 53.0317 19.0662 51.6589 19.5881C50.7197 19.8946 49.8658 20.4181 49.1665 21.1161C49.1051 21.1958 49.0758 21.2956 49.0844 21.3959C49.0929 21.4961 49.1386 21.5896 49.2125 21.6578C49.6923 22.0701 50.0478 22.608 50.239 23.2111C50.4302 23.8141 50.4496 24.4586 50.295 25.072C50.087 25.7327 49.7495 26.3453 49.3021 26.874C48.8548 27.4028 48.3066 27.8371 47.6895 28.1517C48.0262 28.6547 48.2279 29.2358 48.2751 29.8392C48.3662 31.0702 47.811 32.3283 46.6251 33.5791C45.7573 34.5208 45.9678 35.3932 46.4488 36.9849C46.58 37.4199 46.7162 37.8688 46.831 38.3602C47.3233 40.4671 46.9871 42.3773 45.8582 43.8868C44.5225 45.6705 42.168 46.7429 39.2288 46.9066C38.3159 46.9478 37.4011 46.8995 36.4976 46.7623C35.0801 46.5822 34.2254 46.4742 32.8015 47.5896C32.4885 47.8474 31.325 49.7893 30.8052 51.5059C30.6165 52.107 30.2409 52.6322 29.7329 53.0049C29.2249 53.3777 28.6112 53.5785 27.9812 53.5781Z" fill="#D00404"/>
<path d="M45.2305 11.5552C44.826 10.8011 44.3551 10.0846 43.8235 9.41414C43.3565 8.78766 42.8271 8.07764 42.7811 7.74478C42.7023 7.1268 42.7607 6.49904 42.9524 5.90625C43.1984 4.95433 43.3573 3.98197 43.427 3.00122C43.4475 2.20729 43.3495 1.41474 43.1363 0.649689C43.0963 0.486668 42.9932 0.346213 42.8496 0.259224C42.7061 0.172235 42.5338 0.145837 42.3708 0.185837C42.2078 0.225837 42.0673 0.328959 41.9804 0.472517C41.8934 0.616074 41.867 0.788308 41.907 0.95133C42.0844 1.58677 42.1713 2.24405 42.1651 2.90377C42.1 3.81601 41.952 4.72044 41.723 5.60588C41.4918 6.35279 41.4252 7.14093 41.5277 7.91606C41.618 8.57124 42.1698 9.31163 42.8089 10.1689C43.2931 10.777 43.7231 11.4263 44.094 12.1095C44.1816 12.2986 44.1906 12.5148 44.1191 12.7105C44.0475 12.9063 43.9011 13.0657 43.7122 13.1536C42.2607 13.9895 41.1661 15.3285 40.6354 16.9172C40.4812 17.3412 40.4146 17.7921 40.4398 18.2426C40.4649 18.693 40.5813 19.1337 40.7818 19.5379C41.3425 20.566 41.934 22.7808 42.1428 24.2536C32.8109 23.4942 26.5735 22.6083 23.5803 21.6203C23.6385 20.8385 23.76 20.0171 23.8815 19.2092C24.2574 16.7088 24.6464 14.1235 22.664 13.3992C19.7041 12.3175 18.549 14.6939 17.7053 16.4287C17.1619 17.5462 16.6506 18.6017 15.8587 18.7646C15.5453 18.8287 15.3997 18.7258 15.012 17.31C14.8655 16.7121 14.6679 16.1279 14.4214 15.5638C13.6337 13.8894 12.1458 13.2228 10.4427 13.7814C10.0575 13.8988 9.70379 14.1019 9.40813 14.3753C9.11247 14.6488 8.88248 14.9856 8.73536 15.3605C8.08693 16.9817 8.84336 19.1346 9.33357 20.0467C10.9724 23.1885 12.3223 26.4728 13.3667 29.859C13.7101 30.8973 14.0067 31.7938 14.3079 32.559C15.5077 35.6029 17.5437 37.4106 20.531 38.0856C22.9711 38.7128 25.376 39.4699 27.7353 40.3536C31.8836 41.8103 35.8649 43.208 38.672 43.208C39.605 43.261 40.5312 43.0205 41.3206 42.5204C42.9106 41.3792 42.5275 40.0735 42.1221 38.6931C41.6707 37.1571 41.1096 35.2506 42.2765 32.1637C42.2934 32.1195 42.3761 31.8777 42.3921 31.8233C43.0426 29.6504 43.4086 27.4023 43.481 25.1353C43.481 25.0712 43.4742 24.7822 43.4687 24.7134C43.3447 23.1411 42.6284 20.28 41.893 18.9338C41.6621 18.4144 41.6447 17.8251 41.8445 17.2931C42.2711 16.03 43.1382 14.9629 44.2872 14.2868C44.5286 14.1695 44.7445 14.0058 44.9226 13.805C45.1007 13.6041 45.2374 13.3702 45.325 13.1165C45.4127 12.8628 45.4494 12.5943 45.4332 12.3264C45.417 12.0585 45.3481 11.7964 45.2305 11.5552ZM36.2239 24.983C37.0263 25.0651 37.8589 25.1463 38.7218 25.2264C38.6255 25.9141 38.5129 26.5994 38.3843 27.2818C37.6081 27.1806 36.7846 27.0667 35.9374 26.9443C36.056 26.2545 36.1593 25.5703 36.2239 24.983ZM35.713 28.1926C36.5513 28.3141 37.3684 28.4276 38.1409 28.5301C37.9721 29.3541 37.8122 30.0637 37.7026 30.5332C37.1014 30.3936 36.4791 30.24 35.8286 30.0788L35.3599 29.9616C35.451 29.5266 35.5793 28.8984 35.713 28.1926ZM32.0583 24.5067C32.9729 24.6234 33.9424 24.7378 34.9667 24.8497C34.9047 25.4116 34.8022 26.0824 34.6862 26.7583C33.747 26.6159 32.809 26.4663 31.8722 26.3094C31.9452 25.6842 32.0115 25.0594 32.0583 24.5067ZM31.7178 27.5687C32.6261 27.7206 33.5488 27.8678 34.46 28.0062C34.3546 28.5595 34.2445 29.1119 34.1297 29.6633C33.2978 29.465 32.4241 29.2684 31.5162 29.0896C31.5685 28.7061 31.6406 28.1715 31.7178 27.5687ZM27.921 23.8984C28.7996 24.0486 29.7603 24.1954 30.8032 24.3388C30.761 24.8678 30.6948 25.4779 30.6231 26.0947C29.6401 25.9225 28.6955 25.7462 27.8222 25.5715C27.8522 24.9999 27.886 24.4207 27.9201 23.8996L27.921 23.8984ZM27.7564 26.8469C28.6099 27.0156 29.5245 27.1869 30.4695 27.3531C30.4053 27.8553 30.3388 28.3572 30.27 28.8588C29.3978 28.7172 28.5361 28.5175 27.6906 28.261C27.705 27.9218 27.7277 27.4219 27.7556 26.8481L27.7564 26.8469ZM26.668 23.6714C26.6338 24.1777 26.6001 24.7425 26.5689 25.3095C25.6458 25.1207 24.7334 24.8828 23.8355 24.597C23.7426 24.229 23.6688 23.8564 23.6145 23.4807C23.5879 23.3052 23.5723 23.1225 23.5609 22.9365C24.5834 23.2336 25.6201 23.4793 26.6672 23.6727L26.668 23.6714ZM26.5022 26.5874C26.4803 27.0333 26.46 27.4421 26.4452 27.7788C25.632 27.4252 24.9398 26.8417 24.4536 26.1001C25.0404 26.2592 25.734 26.4229 26.5014 26.5887L26.5022 26.5874ZM40.5831 41.4897C38.6847 42.8541 33.0898 40.8898 28.1551 39.1576C25.7502 38.2565 23.2983 37.4859 20.8103 36.8491C18.2275 36.2656 16.535 34.7545 15.4854 32.0933C15.1972 31.3626 14.9057 30.4817 14.5682 29.4616C13.5018 26.0058 12.1229 22.6542 10.4486 19.4484C10.0086 18.6304 9.47364 16.9248 9.9107 15.8317C9.98906 15.6281 10.1137 15.4456 10.2748 15.2985C10.4359 15.1514 10.629 15.0438 10.8388 14.9842C11.0833 14.9001 11.3397 14.8554 11.5982 14.8517C12.3238 14.8517 12.8879 15.2702 13.2794 16.103C13.495 16.6011 13.6679 17.1166 13.7962 17.6441C14.1067 18.7785 14.5336 20.331 16.119 20.0045C17.5192 19.7151 18.1951 18.3258 18.8481 16.9822C19.8058 15.0128 20.4348 13.9316 22.2345 14.588C23.1753 14.9318 23.0036 16.5666 22.6344 19.0211C22.4724 19.9881 22.3597 20.9628 22.2969 21.9413C22.2855 22.0042 22.2836 22.0685 22.2915 22.132C22.2692 22.6458 22.2928 23.1605 22.3619 23.6701C22.4375 24.181 22.5503 24.6856 22.6994 25.18C22.7098 25.247 22.7311 25.3118 22.7623 25.372C23.6664 28.1003 25.7454 29.3764 30.1329 30.1206C32.0853 30.4518 38.1464 31.9288 38.2054 31.9414C39.0819 32.1398 39.9694 32.2857 40.8632 32.3785C40.1377 34.5451 40.1541 36.8917 40.9101 39.0479C41.3239 40.4641 41.4075 40.8983 40.5831 41.4897ZM41.2687 31.1378C40.4859 31.076 39.708 30.9642 38.9395 30.8032C39.0555 30.3058 39.2243 29.5587 39.4036 28.6875C40.3013 28.7963 41.1096 28.8841 41.7872 28.9453C41.6442 29.6828 41.4712 30.4143 41.2687 31.1378ZM41.9934 27.6931C41.2087 27.6213 40.4252 27.5369 39.6432 27.44C39.7697 26.7536 39.8887 26.0377 39.9845 25.3395C40.7042 25.4028 41.4446 25.4661 42.2014 25.5264C42.1685 26.2517 42.0991 26.9748 41.9934 27.6931Z" fill="#D00404"/>
</g>
<defs>
<clipPath id="clip0_1371_23356">
<rect width="54" height="54" fill="white"/>
</clipPath>
</defs>
</svg>
