<svg width="54" height="54" viewBox="0 0 54 54" fill="none" xmlns="http://www.w3.org/2000/svg">
<path d="M36.9113 12.6276C37.5017 12.6276 38.0489 12.7836 38.5709 12.9768C39.0935 13.1682 39.5645 13.4052 40.1963 13.4052C40.8281 13.4052 41.2967 13.1682 41.8181 12.9768C42.3395 12.7836 42.8903 12.6276 43.4807 12.6276C44.4707 12.6276 45.3017 13.3374 45.7649 14.4684C46.2299 15.603 46.2557 17.0934 45.6023 18.3936C45.2927 19.0056 45.0305 19.4526 44.7749 19.9242C44.3495 20.703 43.6841 20.9088 43.0427 20.9088H37.3499C36.7091 20.9088 36.0395 20.703 35.6177 19.9242C35.3621 19.4526 35.1023 19.0056 34.7927 18.3936C34.1399 17.0934 34.1621 15.603 34.6241 14.4684C35.0897 13.3374 35.9207 12.6276 36.9113 12.6276ZM23.7647 12.6276C24.3551 12.6276 24.9053 12.7836 25.4273 12.9768C25.9493 13.1682 26.4179 13.4052 27.0491 13.4052C27.6803 13.4052 28.1525 13.1682 28.6739 12.9768C29.1953 12.7836 29.7461 12.6276 30.3335 12.6276C31.3235 12.6276 32.1557 13.3374 32.6177 14.4684C33.0839 15.603 33.1055 17.0934 32.4527 18.3936C32.1467 19.0056 31.8845 19.4526 31.6277 19.9242C31.2059 20.703 30.5369 20.9088 29.8967 20.9088H24.2057C23.5619 20.9088 22.8929 20.703 22.4711 19.9242C22.2155 19.4526 21.9527 19.0056 21.6461 18.3936C20.9891 17.0934 21.0179 15.603 21.4805 14.4684C21.9425 13.3374 22.7771 12.6276 23.7647 12.6276ZM10.5839 12.6276C11.1743 12.6276 11.7239 12.7836 12.2465 12.9768C12.7679 13.1682 13.2365 13.4052 13.8683 13.4052C14.4995 13.4052 14.9711 13.1682 15.4931 12.9768C16.0157 12.7836 16.5653 12.6276 17.1533 12.6276C18.1433 12.6276 18.9749 13.3374 19.4375 14.4684C19.9031 15.603 19.9313 17.0934 19.2749 18.3936C18.9689 19.0056 18.7091 19.4526 18.4535 19.9242C18.0311 20.703 17.3555 20.9088 16.7159 20.9088H11.0237C10.3805 20.9088 9.71509 20.703 9.29209 19.9242C9.03289 19.4526 8.77369 19.0056 8.46769 18.3936C7.81489 17.0934 7.83649 15.603 8.29909 14.4684C8.76169 13.3374 9.59569 12.6276 10.5839 12.6276ZM10.5839 11.3766C8.99629 11.3766 7.74949 12.5304 7.14649 13.9962C6.54649 15.462 6.52369 17.3028 7.35289 18.9522C7.67749 19.599 7.94989 20.0676 8.19289 20.5176C8.85289 21.7332 10.0553 22.158 11.0243 22.158H16.7153C17.6807 22.158 18.8867 21.7332 19.5467 20.5176C19.9091 19.8648 20.1899 19.3488 20.4617 18.786C20.7305 19.383 21.0893 20.0016 21.3743 20.5176C22.0337 21.7332 23.2367 22.158 24.2057 22.158H29.8967C30.8621 22.158 32.0681 21.7332 32.7281 20.5176C33.0403 19.9598 33.338 19.394 33.6209 18.8208C33.8927 19.4046 34.2395 20.0142 34.5209 20.5176C35.1773 21.7332 36.3839 22.158 37.3499 22.158H43.0427C44.0081 22.158 45.2153 21.7332 45.8717 20.5176C46.1177 20.0676 46.3895 19.599 46.7153 18.9522C47.5403 17.3022 47.5217 15.462 46.9217 13.9962C46.3217 12.531 45.0713 11.3766 43.4813 11.3766C42.6683 11.3766 41.9651 11.5932 41.3909 11.8044C40.8563 12.0024 40.4501 12.165 40.2005 12.2172C39.9497 12.1644 39.5441 12.0042 39.0065 11.8044C38.4311 11.5926 37.7255 11.3766 36.9125 11.3766C35.4383 11.3766 34.2665 12.3714 33.6221 13.683C32.9825 12.3708 31.8101 11.3766 30.3347 11.3766C29.5223 11.3766 28.8161 11.5932 28.2407 11.8044C27.7037 12.0042 27.3005 12.165 27.0503 12.2172C26.8007 12.1644 26.3909 12.0018 25.8563 11.8044C25.2821 11.5926 24.5783 11.3766 23.7659 11.3766C22.2821 11.3766 21.1001 12.3864 20.4593 13.7112C19.8215 12.3864 18.6377 11.3766 17.1539 11.3766C16.3409 11.3766 15.6413 11.5932 15.0629 11.8044C14.5283 12.0024 14.1221 12.165 13.8725 12.2172C13.6223 12.1644 13.2167 12.0042 12.6827 11.8044C12.1055 11.5932 11.3957 11.3766 10.5839 11.3766ZM40.1993 28.1118H45.2147C44.9801 28.6242 44.5985 29.6022 44.4797 30.3024C44.1761 32.0868 44.3447 32.9304 43.3979 34.7868C43.0133 35.5392 42.6083 35.6586 42.4079 35.637C42.2075 35.6148 42.0389 35.4996 42.0389 35.0682V33.2496C42.0389 32.6496 41.9453 32.1084 41.6333 31.6686C41.3207 31.2282 40.7675 30.9774 40.1987 30.9774C39.6269 30.9774 39.0701 31.2282 38.7575 31.6686C38.4455 32.1078 38.3543 32.6496 38.3543 33.2496V35.0682C38.3543 35.4996 38.1833 35.6148 37.9829 35.637C37.7825 35.6586 37.3769 35.5392 36.9929 34.7868C36.0461 32.9304 36.2267 32.0832 35.9075 30.3024C35.7732 29.5434 35.528 28.8084 35.1797 28.1208C36.8429 28.0932 38.5271 28.1118 40.1993 28.1118ZM8.85229 28.1118H13.8707C15.5393 28.1178 17.2301 28.0932 18.8891 28.1214C18.5645 28.803 18.2579 29.6742 18.1523 30.303C17.8547 32.0874 18.0179 32.931 17.0741 34.7874C16.6889 35.5398 16.2809 35.6592 16.0805 35.6376C15.8837 35.6154 15.7151 35.5002 15.7151 35.0688V33.2502C15.7151 32.6502 15.6179 32.109 15.3053 31.6692C14.9927 31.2288 14.4425 30.978 13.8707 30.978C13.3019 30.978 12.7427 31.2288 12.4301 31.6692C12.1181 32.1084 12.0269 32.6502 12.0269 33.2502V35.0688C12.0269 35.5002 11.8547 35.6154 11.6543 35.6376C11.4575 35.6592 11.0489 35.5398 10.6643 34.7874C9.72049 32.931 9.89869 32.0838 9.58369 30.303C9.44573 29.5414 9.19943 28.8035 8.85229 28.1118ZM6.17389 27.8178C6.72049 27.7494 7.44649 28.1526 7.77409 28.7742C8.10529 29.4 8.22709 29.7618 8.35249 30.5088C8.62729 32.1492 8.50849 33.3 9.55249 35.3496C10.0895 36.4032 10.9523 36.9684 11.7923 36.8772C12.6329 36.7842 13.2737 35.9964 13.2737 35.0682V33.2496C13.2737 32.793 13.3463 32.493 13.4489 32.3898C13.7489 32.0898 14.0423 32.1426 14.2859 32.3898C14.3891 32.493 14.4641 32.793 14.4641 33.2496V35.0682C14.4641 35.9964 15.1079 36.7836 15.9491 36.8772C16.7891 36.9684 17.6489 36.4032 18.1859 35.3496C19.2299 33.3 19.1117 32.1492 19.3859 30.5088C19.5113 29.7492 19.6391 29.3874 19.9235 28.8714C20.0363 28.674 20.1149 28.4586 20.1461 28.2396C21.0773 28.3932 22.0463 28.6896 22.4987 29.1426C23.1575 29.8032 23.7179 30.39 24.4205 30.8304C25.1237 31.2708 25.9643 31.5336 27.0335 31.5336C28.1057 31.5336 28.9493 31.2708 29.6525 30.8304C30.3557 30.39 30.9113 29.8026 31.5707 29.1426C32.0243 28.6896 32.9861 28.3968 33.9179 28.2396C33.9521 28.4586 34.0325 28.674 34.1429 28.8714C34.4267 29.3868 34.5521 29.7492 34.6799 30.5088C34.9517 32.1492 34.8371 33.3 35.8799 35.3496C36.4175 36.4032 37.2803 36.9684 38.1203 36.8772C38.9615 36.7842 39.5993 35.9964 39.5993 35.0682V33.2496C39.5993 32.793 39.6743 32.493 39.7775 32.3898C40.0775 32.0898 40.4081 32.1618 40.6145 32.3898C40.7117 32.4966 40.7927 32.793 40.7927 33.2496V35.0682C40.7927 35.9964 41.4305 36.7836 42.2717 36.8772C43.1117 36.9684 43.9745 36.4032 44.5121 35.3496C45.5549 33.3 45.4403 32.1492 45.7121 30.5088C45.8399 29.7492 45.9677 29.3874 46.3685 28.728C46.7681 28.0686 47.3741 27.7932 47.8523 27.8178C48.5027 27.8496 48.7217 28.2246 48.7217 28.677V38.9052C48.7217 39.5592 48.6305 40.212 48.3617 40.6374C48.0899 41.0592 47.6807 41.3628 46.6217 41.3628H7.40569C6.34669 41.3628 5.93389 41.0592 5.66509 40.6374C5.39269 40.212 5.30569 39.5592 5.30569 38.9052V28.6764C5.30509 28.0392 5.68909 27.8802 6.17389 27.8178ZM38.1989 25.4274H42.1889C42.4889 25.4274 42.6515 25.4928 42.7517 25.5678C42.8549 25.6386 42.9275 25.7388 42.9743 25.9362L43.2089 26.8644H37.1831L37.4207 25.9362C37.4711 25.7388 37.5365 25.6386 37.6361 25.5678C37.7363 25.4934 37.8989 25.4274 38.1989 25.4274ZM11.8739 25.4274H15.8645C16.1615 25.4274 16.3301 25.4928 16.4297 25.5678C16.5299 25.6386 16.5983 25.7388 16.6487 25.9362L16.8803 26.8644H10.8581L11.0927 25.9362C11.1431 25.7388 11.2121 25.6386 11.3123 25.5678C11.4119 25.4934 11.5739 25.4274 11.8739 25.4274ZM11.8739 24.18C11.3807 24.18 10.9271 24.3024 10.5707 24.5652C10.2149 24.828 9.98329 25.215 9.88069 25.6308L9.57109 26.865H8.79889C8.49889 26.865 8.19889 26.9898 7.97089 27.1836C7.42069 26.7732 6.78049 26.562 6.15829 26.571C5.63329 26.5764 5.10529 26.742 4.70209 27.108C4.29889 27.4764 4.05469 28.0428 4.05469 28.6764V38.9046C4.05469 39.6486 4.12369 40.5372 4.61509 41.3046C5.10229 42.0732 6.05269 42.6114 7.40509 42.6114H46.6211C47.9711 42.6114 48.9203 42.0738 49.4081 41.3046C49.8989 40.5372 49.9685 39.6486 49.9685 38.9046V28.6764C49.9685 28.0422 49.7249 27.4764 49.3217 27.108C48.9209 26.7426 48.3935 26.5764 47.8649 26.571C47.2523 26.5614 46.6181 26.7708 46.0775 27.168C45.8489 26.9826 45.5549 26.8644 45.2645 26.8644H44.4935L44.1839 25.6302C44.0807 25.2144 43.8485 24.8268 43.4927 24.5646C43.1369 24.3024 42.6839 24.18 42.1895 24.18H38.1995C37.7087 24.18 37.2563 24.3024 36.8999 24.5652C36.5399 24.828 36.3119 25.215 36.2087 25.6308L35.8991 26.865C35.6177 26.8524 35.3153 26.874 35.0435 26.88C33.7427 26.9046 31.8491 27.1026 30.6863 28.2618C30.0209 28.9272 29.5145 29.4462 28.9871 29.7768C28.4621 30.105 27.9185 30.2868 27.0341 30.2868C26.1533 30.2868 25.6121 30.105 25.0865 29.7768C24.5585 29.4456 24.0467 28.9272 23.3807 28.2618C22.2179 27.099 20.3183 26.9178 19.0205 26.8764C18.7427 26.868 18.4493 26.8644 18.1679 26.8644L17.8583 25.6302C17.7527 25.2144 17.5235 24.8268 17.1683 24.5646C16.8089 24.3018 16.3553 24.1794 15.8651 24.1794L11.8739 24.18Z" fill="#D00404"/>
</svg>
