<svg width="24" height="24" viewBox="0 0 24 24" fill="none" xmlns="http://www.w3.org/2000/svg">
<path d="M15.6293 16.2928L16.2908 15.6313L12.4678 11.8045V7.0468H11.5448V12.1928L15.6293 16.2928ZM12.0031 20.8468C10.7799 20.8468 9.62943 20.6144 8.55159 20.1495C7.47376 19.6847 6.53618 19.054 5.73884 18.2573C4.94151 17.4605 4.31109 16.5247 3.84759 15.45C3.38409 14.3754 3.15234 13.227 3.15234 12.005C3.15234 10.7819 3.38476 9.63138 3.84959 8.55355C4.31443 7.47571 4.94518 6.53813 5.74184 5.7408C6.53868 4.94346 7.47443 4.31305 8.54909 3.84955C9.62376 3.38605 10.7721 3.1543 11.9941 3.1543C13.2173 3.1543 14.3678 3.38671 15.4456 3.85155C16.5234 4.31638 17.461 4.94713 18.2583 5.7438C19.0557 6.54046 19.6861 7.47621 20.1496 8.55105C20.6131 9.62571 20.8448 10.774 20.8448 11.996C20.8448 13.2192 20.6124 14.3697 20.1476 15.4475C19.6828 16.5254 19.052 17.463 18.2553 18.2603C17.4587 19.0576 16.5229 19.688 15.4481 20.1515C14.3734 20.615 13.2251 20.8468 12.0031 20.8468ZM11.9986 19.9235C14.1928 19.9235 16.0618 19.1516 17.6058 17.6078C19.1497 16.0638 19.9216 14.1947 19.9216 12.0005C19.9216 9.80638 19.1497 7.9373 17.6058 6.3933C16.0618 4.84946 14.1928 4.07755 11.9986 4.07755C9.80443 4.07755 7.93534 4.84946 6.39134 6.3933C4.84751 7.9373 4.07559 9.80638 4.07559 12.0005C4.07559 14.1947 4.84751 16.0638 6.39134 17.6078C7.93534 19.1516 9.80443 19.9235 11.9986 19.9235Z" fill="#D00404"/>
</svg>
