<svg width="17" height="17" viewBox="0 0 17 17" fill="none" xmlns="http://www.w3.org/2000/svg">
<path d="M8.5 1.85938C7.18661 1.85937 5.90271 2.24884 4.81067 2.97852C3.71862 3.7082 2.86748 4.74533 2.36487 5.95874C1.86225 7.17216 1.73075 8.50737 1.98698 9.79552C2.24321 11.0837 2.87566 12.2669 3.80437 13.1956C4.73308 14.1243 5.91633 14.7568 7.20448 15.013C8.49264 15.2693 9.82784 15.1378 11.0413 14.6351C12.2547 14.1325 13.2918 13.2814 14.0215 12.1893C14.7512 11.0973 15.1406 9.81339 15.1406 8.5C15.1387 6.73939 14.4384 5.05144 13.1935 3.8065C11.9486 2.56156 10.2606 1.86131 8.5 1.85938ZM8.5 14.6094C7.29168 14.6094 6.1105 14.2511 5.10582 13.5798C4.10113 12.9085 3.31808 11.9543 2.85568 10.838C2.39327 9.72161 2.27229 8.49322 2.50802 7.30812C2.74375 6.12302 3.32561 5.03443 4.18002 4.18002C5.03443 3.32561 6.12302 2.74375 7.30812 2.50801C8.49323 2.27228 9.72162 2.39327 10.838 2.85567C11.9543 3.31808 12.9085 4.10113 13.5798 5.10581C14.2511 6.11049 14.6094 7.29168 14.6094 8.5C14.6076 10.1198 13.9634 11.6727 12.818 12.818C11.6727 13.9634 10.1198 14.6076 8.5 14.6094ZM10.8375 10.2538C10.4695 10.7442 9.95644 11.1064 9.37111 11.2892C8.78579 11.4719 8.15781 11.4658 7.57613 11.2718C6.99444 11.0778 6.48853 10.7057 6.13003 10.2083C5.77153 9.71082 5.57863 9.11318 5.57863 8.5C5.57863 7.88682 5.77153 7.28918 6.13003 6.79172C6.48853 6.29426 6.99444 5.92218 7.57613 5.7282C8.15781 5.53421 8.78579 5.52814 9.37111 5.71085C9.95644 5.89355 10.4695 6.25577 10.8375 6.74621C10.8585 6.77412 10.8737 6.80588 10.8824 6.83969C10.8911 6.8735 10.8931 6.90869 10.8882 6.94325C10.8833 6.97781 10.8716 7.01107 10.8539 7.04112C10.8361 7.07118 10.8126 7.09745 10.7847 7.11842C10.7568 7.13939 10.725 7.15466 10.6912 7.16336C10.6574 7.17206 10.6222 7.17401 10.5877 7.16911C10.5531 7.16421 10.5199 7.15254 10.4898 7.13479C10.4597 7.11703 10.4335 7.09353 10.4125 7.06563C10.1115 6.66422 9.69174 6.36772 9.21281 6.21812C8.73388 6.06851 8.22002 6.07339 7.74402 6.23205C7.26802 6.39072 6.85401 6.69514 6.56063 7.10218C6.26725 7.50922 6.10938 7.99825 6.10938 8.5C6.10938 9.00175 6.26725 9.49078 6.56063 9.89782C6.85401 10.3049 7.26802 10.6093 7.74402 10.7679C8.22002 10.9266 8.73388 10.9315 9.21281 10.7819C9.69174 10.6323 10.1115 10.3358 10.4125 9.93438C10.4549 9.87802 10.5179 9.84079 10.5877 9.83089C10.6575 9.82099 10.7284 9.83922 10.7847 9.88158C10.8411 9.92394 10.8783 9.98695 10.8882 10.0568C10.8981 10.1266 10.8799 10.1974 10.8375 10.2538Z" fill="white"/>
</svg>
