<svg width="25" height="24" viewBox="0 0 25 24" fill="none" xmlns="http://www.w3.org/2000/svg">
<path d="M12.1007 11.8125C12.5842 11.8125 12.9979 11.6404 13.3417 11.2962C13.6855 10.9519 13.8575 10.538 13.8575 10.0547C13.8575 9.57138 13.685 9.1578 13.3402 8.81397C12.9954 8.46997 12.5808 8.29797 12.0965 8.29797C11.6121 8.29797 11.1989 8.47047 10.8567 8.81547C10.5144 9.1603 10.3432 9.57488 10.3432 10.0592C10.3432 10.5434 10.5153 10.9566 10.8595 11.299C11.2036 11.6413 11.6174 11.8125 12.1007 11.8125ZM12.098 19.453C14.0208 17.7063 15.4927 16.0377 16.5137 14.4472C17.5345 12.8567 18.045 11.4663 18.045 10.276C18.045 8.47463 17.4761 6.9948 16.3385 5.83647C15.2006 4.67813 13.7865 4.09897 12.0962 4.09897C10.4057 4.09897 8.9922 4.67813 7.8557 5.83647C6.7192 6.9948 6.15095 8.47463 6.15095 10.276C6.15095 11.4663 6.66137 12.8567 7.6822 14.4472C8.7032 16.0377 10.1751 17.7063 12.098 19.453ZM12.098 21.3077C9.64029 19.1455 7.80154 17.1501 6.5817 15.3215C5.36187 13.493 4.75195 11.8127 4.75195 10.2807C4.75195 8.03055 5.47945 6.20613 6.93445 4.80747C8.38962 3.40897 10.1108 2.70972 12.098 2.70972C14.0851 2.70972 15.8063 3.40897 17.2615 4.80747C18.7165 6.20613 19.444 8.03055 19.444 10.2807C19.444 11.8127 18.834 13.493 17.6142 15.3215C16.3944 17.1501 14.5556 19.1455 12.098 21.3077Z" fill="#D00404"/>
</svg>
