<svg width="26" height="25" viewBox="0 0 26 25" fill="none" xmlns="http://www.w3.org/2000/svg">
<path d="M16.3994 16.7443L17.3927 15.751L13.6559 12.0097V7.3585H12.2569V12.5817L16.3994 16.7443ZM12.9487 21.596C11.6629 21.596 10.454 21.3517 9.32219 20.863C8.19019 20.3742 7.20552 19.7108 6.36819 18.873C5.53102 18.0352 4.86844 17.0514 4.38044 15.9218C3.89244 14.7919 3.64844 13.5847 3.64844 12.3003C3.64844 11.0144 3.89277 9.80558 4.38144 8.67375C4.87027 7.54175 5.5336 6.55708 6.37144 5.71975C7.20927 4.88258 8.19302 4.22 9.32269 3.732C10.4525 3.244 11.6597 3 12.9442 3C14.23 3 15.4389 3.24433 16.5707 3.733C17.7027 4.22183 18.6874 4.88517 19.5247 5.723C20.3619 6.56083 21.0244 7.54458 21.5124 8.67425C22.0004 9.80408 22.2444 11.0112 22.2444 12.2957C22.2444 13.5816 22.0001 14.7904 21.5114 15.9223C21.0226 17.0543 20.3593 18.0389 19.5214 18.8763C18.6836 19.7134 17.6999 20.376 16.5702 20.864C15.4404 21.352 14.2332 21.596 12.9487 21.596ZM12.9464 20.197C15.1311 20.197 16.9938 19.4267 18.5344 17.886C20.0751 16.3453 20.8454 14.4827 20.8454 12.298C20.8454 10.1133 20.0751 8.25067 18.5344 6.71C16.9938 5.16933 15.1311 4.399 12.9464 4.399C10.7618 4.399 8.8991 5.16933 7.35844 6.71C5.81777 8.25067 5.04744 10.1133 5.04744 12.298C5.04744 14.4827 5.81777 16.3453 7.35844 17.886C8.8991 19.4267 10.7618 20.197 12.9464 20.197Z" fill="#D00404"/>
</svg>
