<svg width="25" height="24" viewBox="0 0 25 24" fill="none" xmlns="http://www.w3.org/2000/svg">
<path d="M7.81412 22.2979C7.34146 22.2979 6.93921 22.132 6.60737 21.8002C6.27537 21.4682 6.10938 21.066 6.10938 20.5937V3.40615C6.10938 2.93382 6.27537 2.53165 6.60737 2.19965C6.93921 1.86782 7.34146 1.7019 7.81412 1.7019H17.0816C17.5543 1.7019 17.9565 1.86782 18.2884 2.19965C18.6204 2.53165 18.7864 2.93382 18.7864 3.40615V20.5937C18.7864 21.066 18.6204 21.4682 18.2884 21.8002C17.9565 22.132 17.5543 22.2979 17.0816 22.2979H7.81412ZM7.50838 19.6087V20.5912C7.50838 20.6682 7.54046 20.7387 7.60462 20.8029C7.66879 20.8669 7.73929 20.8989 7.81613 20.8989H17.0796C17.1565 20.8989 17.227 20.8669 17.2911 20.8029C17.3553 20.7387 17.3874 20.6682 17.3874 20.5912V19.6087H7.50838ZM7.50838 18.2097H17.3874V5.79015H7.50838V18.2097ZM7.50838 4.39115H17.3874V3.40865C17.3874 3.33165 17.3553 3.26107 17.2911 3.1969C17.227 3.1329 17.1565 3.1009 17.0796 3.1009H7.81613C7.73929 3.1009 7.66879 3.1329 7.60462 3.1969C7.54046 3.26107 7.50838 3.33165 7.50838 3.40865V4.39115Z" fill="#D00404"/>
</svg>
