<svg width="25" height="24" viewBox="0 0 25 24" fill="none" xmlns="http://www.w3.org/2000/svg">
<path d="M4.85294 19.3181C4.38044 19.3181 3.97819 19.1521 3.64619 18.8201C3.31435 18.4883 3.14844 18.0861 3.14844 17.6134V6.38639C3.14844 5.91372 3.31435 5.51147 3.64619 5.17964C3.97819 4.84764 4.38044 4.68164 4.85294 4.68164H20.0399C20.5124 4.68164 20.9147 4.84764 21.2467 5.17964C21.5785 5.51147 21.7444 5.91372 21.7444 6.38639V17.6134C21.7444 18.0861 21.5785 18.4883 21.2467 18.8201C20.9147 19.1521 20.5124 19.3181 20.0399 19.3181H4.85294ZM12.4464 12.4821L4.54744 7.42189V17.6114C4.54744 17.7012 4.57627 17.775 4.63394 17.8326C4.6916 17.8903 4.76535 17.9191 4.85519 17.9191H20.0377C20.1275 17.9191 20.2013 17.8903 20.2589 17.8326C20.3166 17.775 20.3454 17.7012 20.3454 17.6114V7.42189L12.4464 12.4821ZM12.4464 11.0201L20.1714 6.08064H4.72144L12.4464 11.0201ZM4.54744 7.42189V6.08064V17.6114C4.54744 17.7012 4.57627 17.775 4.63394 17.8326C4.6916 17.8903 4.76535 17.9191 4.85519 17.9191H4.54744V7.42189Z" fill="#D00404"/>
</svg>
