<svg width="225" height="44" viewBox="0 0 225 44" fill="none" xmlns="http://www.w3.org/2000/svg">
<circle cx="10" cy="10" r="10" fill="#D00404"/>
<circle cx="34" cy="10" r="10" fill="#D00404"/>
<circle cx="10" cy="34" r="10" fill="#D00404"/>
<circle cx="34" cy="34" r="10" fill="#D00404"/>
<path d="M63.31 18.17C63.23 18.31 63.1433 18.4133 63.05 18.48C62.9633 18.54 62.8533 18.57 62.72 18.57C62.58 18.57 62.4267 18.52 62.26 18.42C62.1 18.3133 61.9067 18.1967 61.68 18.07C61.4533 17.9433 61.1867 17.83 60.88 17.73C60.58 17.6233 60.2233 17.57 59.81 17.57C59.4367 17.57 59.11 17.6167 58.83 17.71C58.55 17.7967 58.3133 17.92 58.12 18.08C57.9333 18.24 57.7933 18.4333 57.7 18.66C57.6067 18.88 57.56 19.1233 57.56 19.39C57.56 19.73 57.6533 20.0133 57.84 20.24C58.0333 20.4667 58.2867 20.66 58.6 20.82C58.9133 20.98 59.27 21.1233 59.67 21.25C60.07 21.3767 60.48 21.5133 60.9 21.66C61.32 21.8 61.73 21.9667 62.13 22.16C62.53 22.3467 62.8867 22.5867 63.2 22.88C63.5133 23.1667 63.7633 23.52 63.95 23.94C64.1433 24.36 64.24 24.87 64.24 25.47C64.24 26.1233 64.1267 26.7367 63.9 27.31C63.68 27.8767 63.3533 28.3733 62.92 28.8C62.4933 29.22 61.97 29.5533 61.35 29.8C60.73 30.04 60.02 30.16 59.22 30.16C58.76 30.16 58.3067 30.1133 57.86 30.02C57.4133 29.9333 56.9833 29.8067 56.57 29.64C56.1633 29.4733 55.78 29.2733 55.42 29.04C55.06 28.8067 54.74 28.5467 54.46 28.26L55.25 26.97C55.3167 26.8767 55.4033 26.8 55.51 26.74C55.6167 26.6733 55.73 26.64 55.85 26.64C56.0167 26.64 56.1967 26.71 56.39 26.85C56.5833 26.9833 56.8133 27.1333 57.08 27.3C57.3467 27.4667 57.6567 27.62 58.01 27.76C58.37 27.8933 58.8 27.96 59.3 27.96C60.0667 27.96 60.66 27.78 61.08 27.42C61.5 27.0533 61.71 26.53 61.71 25.85C61.71 25.47 61.6133 25.16 61.42 24.92C61.2333 24.68 60.9833 24.48 60.67 24.32C60.3567 24.1533 60 24.0133 59.6 23.9C59.2 23.7867 58.7933 23.6633 58.38 23.53C57.9667 23.3967 57.56 23.2367 57.16 23.05C56.76 22.8633 56.4033 22.62 56.09 22.32C55.7767 22.02 55.5233 21.6467 55.33 21.2C55.1433 20.7467 55.05 20.19 55.05 19.53C55.05 19.0033 55.1533 18.49 55.36 17.99C55.5733 17.49 55.88 17.0467 56.28 16.66C56.68 16.2733 57.1733 15.9633 57.76 15.73C58.3467 15.4967 59.02 15.38 59.78 15.38C60.6333 15.38 61.42 15.5133 62.14 15.78C62.86 16.0467 63.4733 16.42 63.98 16.9L63.31 18.17ZM80.3766 22.77C80.3766 23.83 80.1999 24.8133 79.8466 25.72C79.4999 26.62 79.0066 27.4 78.3666 28.06C77.7266 28.72 76.9566 29.2367 76.0566 29.61C75.1566 29.9767 74.1566 30.16 73.0566 30.16C71.9632 30.16 70.9666 29.9767 70.0666 29.61C69.1666 29.2367 68.3932 28.72 67.7466 28.06C67.1066 27.4 66.6099 26.62 66.2566 25.72C65.9032 24.8133 65.7266 23.83 65.7266 22.77C65.7266 21.71 65.9032 20.73 66.2566 19.83C66.6099 18.9233 67.1066 18.14 67.7466 17.48C68.3932 16.82 69.1666 16.3067 70.0666 15.94C70.9666 15.5667 71.9632 15.38 73.0566 15.38C73.7899 15.38 74.4799 15.4667 75.1266 15.64C75.7732 15.8067 76.3666 16.0467 76.9066 16.36C77.4466 16.6667 77.9299 17.0433 78.3566 17.49C78.7899 17.93 79.1566 18.4233 79.4566 18.97C79.7566 19.5167 79.9832 20.11 80.1366 20.75C80.2966 21.39 80.3766 22.0633 80.3766 22.77ZM77.6266 22.77C77.6266 21.9767 77.5199 21.2667 77.3066 20.64C77.0932 20.0067 76.7899 19.47 76.3966 19.03C76.0032 18.59 75.5232 18.2533 74.9566 18.02C74.3966 17.7867 73.7632 17.67 73.0566 17.67C72.3499 17.67 71.7132 17.7867 71.1466 18.02C70.5866 18.2533 70.1066 18.59 69.7066 19.03C69.3132 19.47 69.0099 20.0067 68.7966 20.64C68.5832 21.2667 68.4766 21.9767 68.4766 22.77C68.4766 23.5633 68.5832 24.2767 68.7966 24.91C69.0099 25.5367 69.3132 26.07 69.7066 26.51C70.1066 26.9433 70.5866 27.2767 71.1466 27.51C71.7132 27.7433 72.3499 27.86 73.0566 27.86C73.7632 27.86 74.3966 27.7433 74.9566 27.51C75.5232 27.2767 76.0032 26.9433 76.3966 26.51C76.7899 26.07 77.0932 25.5367 77.3066 24.91C77.5199 24.2767 77.6266 23.5633 77.6266 22.77ZM91.2089 27.78V30H82.7389V15.54H85.4289V27.78H91.2089ZM106.412 22.77C106.412 23.83 106.235 24.8133 105.882 25.72C105.535 26.62 105.042 27.4 104.402 28.06C103.762 28.72 102.992 29.2367 102.092 29.61C101.192 29.9767 100.192 30.16 99.0917 30.16C97.9984 30.16 97.0017 29.9767 96.1017 29.61C95.2017 29.2367 94.4284 28.72 93.7817 28.06C93.1417 27.4 92.6451 26.62 92.2917 25.72C91.9384 24.8133 91.7617 23.83 91.7617 22.77C91.7617 21.71 91.9384 20.73 92.2917 19.83C92.6451 18.9233 93.1417 18.14 93.7817 17.48C94.4284 16.82 95.2017 16.3067 96.1017 15.94C97.0017 15.5667 97.9984 15.38 99.0917 15.38C99.8251 15.38 100.515 15.4667 101.162 15.64C101.808 15.8067 102.402 16.0467 102.942 16.36C103.482 16.6667 103.965 17.0433 104.392 17.49C104.825 17.93 105.192 18.4233 105.492 18.97C105.792 19.5167 106.018 20.11 106.172 20.75C106.332 21.39 106.412 22.0633 106.412 22.77ZM103.662 22.77C103.662 21.9767 103.555 21.2667 103.342 20.64C103.128 20.0067 102.825 19.47 102.432 19.03C102.038 18.59 101.558 18.2533 100.992 18.02C100.432 17.7867 99.7984 17.67 99.0917 17.67C98.3851 17.67 97.7484 17.7867 97.1817 18.02C96.6217 18.2533 96.1417 18.59 95.7417 19.03C95.3484 19.47 95.0451 20.0067 94.8317 20.64C94.6184 21.2667 94.5117 21.9767 94.5117 22.77C94.5117 23.5633 94.6184 24.2767 94.8317 24.91C95.0451 25.5367 95.3484 26.07 95.7417 26.51C96.1417 26.9433 96.6217 27.2767 97.1817 27.51C97.7484 27.7433 98.3851 27.86 99.0917 27.86C99.7984 27.86 100.432 27.7433 100.992 27.51C101.558 27.2767 102.038 26.9433 102.432 26.51C102.825 26.07 103.128 25.5367 103.342 24.91C103.555 24.2767 103.662 23.5633 103.662 22.77ZM126.395 22.84C126.395 23.9133 126.225 24.89 125.885 25.77C125.545 26.65 125.065 27.4033 124.445 28.03C123.825 28.6567 123.078 29.1433 122.205 29.49C121.338 29.83 120.378 30 119.325 30H113.975V15.67H119.325C120.378 15.67 121.338 15.8433 122.205 16.19C123.078 16.53 123.825 17.0167 124.445 17.65C125.065 18.2767 125.545 19.03 125.885 19.91C126.225 20.79 126.395 21.7667 126.395 22.84ZM124.405 22.84C124.405 21.96 124.285 21.1733 124.045 20.48C123.805 19.7867 123.465 19.2 123.025 18.72C122.585 18.24 122.051 17.8733 121.425 17.62C120.798 17.3667 120.098 17.24 119.325 17.24H115.915V28.43H119.325C120.098 28.43 120.798 28.3033 121.425 28.05C122.051 27.7967 122.585 27.4333 123.025 26.96C123.465 26.48 123.805 25.8933 124.045 25.2C124.285 24.5067 124.405 23.72 124.405 22.84ZM135.413 23.83C135.413 23.4167 135.353 23.04 135.233 22.7C135.119 22.3533 134.949 22.0567 134.723 21.81C134.503 21.5567 134.233 21.3633 133.913 21.23C133.593 21.09 133.229 21.02 132.823 21.02C131.969 21.02 131.293 21.27 130.793 21.77C130.299 22.2633 129.993 22.95 129.873 23.83H135.413ZM136.853 28.58C136.633 28.8467 136.369 29.08 136.063 29.28C135.756 29.4733 135.426 29.6333 135.073 29.76C134.726 29.8867 134.366 29.98 133.993 30.04C133.619 30.1067 133.249 30.14 132.883 30.14C132.183 30.14 131.536 30.0233 130.943 29.79C130.356 29.55 129.846 29.2033 129.413 28.75C128.986 28.29 128.653 27.7233 128.413 27.05C128.173 26.3767 128.053 25.6033 128.053 24.73C128.053 24.0233 128.159 23.3633 128.373 22.75C128.593 22.1367 128.906 21.6067 129.313 21.16C129.719 20.7067 130.216 20.3533 130.803 20.1C131.389 19.84 132.049 19.71 132.783 19.71C133.389 19.71 133.949 19.8133 134.463 20.02C134.983 20.22 135.429 20.5133 135.803 20.9C136.183 21.28 136.479 21.7533 136.693 22.32C136.906 22.88 137.013 23.52 137.013 24.24C137.013 24.52 136.983 24.7067 136.923 24.8C136.863 24.8933 136.749 24.94 136.583 24.94H129.813C129.833 25.58 129.919 26.1367 130.073 26.61C130.233 27.0833 130.453 27.48 130.733 27.8C131.013 28.1133 131.346 28.35 131.733 28.51C132.119 28.6633 132.553 28.74 133.033 28.74C133.479 28.74 133.863 28.69 134.183 28.59C134.509 28.4833 134.789 28.37 135.023 28.25C135.256 28.13 135.449 28.02 135.603 27.92C135.763 27.8133 135.899 27.76 136.013 27.76C136.159 27.76 136.273 27.8167 136.353 27.93L136.853 28.58ZM140.879 21.34C141.099 21.0933 141.332 20.87 141.579 20.67C141.826 20.47 142.086 20.3 142.359 20.16C142.639 20.0133 142.932 19.9033 143.239 19.83C143.552 19.75 143.889 19.71 144.249 19.71C144.802 19.71 145.289 19.8033 145.709 19.99C146.136 20.17 146.489 20.43 146.769 20.77C147.056 21.1033 147.272 21.5067 147.419 21.98C147.566 22.4533 147.639 22.9767 147.639 23.55V30H145.849V23.55C145.849 22.7833 145.672 22.19 145.319 21.77C144.972 21.3433 144.442 21.13 143.729 21.13C143.202 21.13 142.709 21.2567 142.249 21.51C141.796 21.7633 141.376 22.1067 140.989 22.54V30H139.199V19.87H140.269C140.522 19.87 140.679 19.9933 140.739 20.24L140.879 21.34ZM153.325 30.16C152.525 30.16 151.908 29.9367 151.475 29.49C151.048 29.0433 150.835 28.4 150.835 27.56V21.36H149.615C149.508 21.36 149.418 21.33 149.345 21.27C149.271 21.2033 149.235 21.1033 149.235 20.97V20.26L150.895 20.05L151.305 16.92C151.325 16.82 151.368 16.74 151.435 16.68C151.508 16.6133 151.601 16.58 151.715 16.58H152.615V20.07H155.545V21.36H152.615V27.44C152.615 27.8667 152.718 28.1833 152.925 28.39C153.131 28.5967 153.398 28.7 153.725 28.7C153.911 28.7 154.071 28.6767 154.205 28.63C154.345 28.5767 154.465 28.52 154.565 28.46C154.665 28.4 154.748 28.3467 154.815 28.3C154.888 28.2467 154.951 28.22 155.005 28.22C155.098 28.22 155.181 28.2767 155.255 28.39L155.775 29.24C155.468 29.5267 155.098 29.7533 154.665 29.92C154.231 30.08 153.785 30.16 153.325 30.16ZM162.873 25.44C162.053 25.4667 161.353 25.5333 160.773 25.64C160.199 25.74 159.729 25.8733 159.363 26.04C159.003 26.2067 158.739 26.4033 158.573 26.63C158.413 26.8567 158.333 27.11 158.333 27.39C158.333 27.6567 158.376 27.8867 158.463 28.08C158.549 28.2733 158.666 28.4333 158.813 28.56C158.966 28.68 159.143 28.77 159.343 28.83C159.549 28.8833 159.769 28.91 160.003 28.91C160.316 28.91 160.603 28.88 160.863 28.82C161.123 28.7533 161.366 28.66 161.593 28.54C161.826 28.42 162.046 28.2767 162.253 28.11C162.466 27.9433 162.673 27.7533 162.873 27.54V25.44ZM157.123 21.3C157.683 20.76 158.286 20.3567 158.933 20.09C159.579 19.8233 160.296 19.69 161.083 19.69C161.649 19.69 162.153 19.7833 162.593 19.97C163.033 20.1567 163.403 20.4167 163.703 20.75C164.003 21.0833 164.229 21.4867 164.383 21.96C164.536 22.4333 164.613 22.9533 164.613 23.52V30H163.823C163.649 30 163.516 29.9733 163.423 29.92C163.329 29.86 163.256 29.7467 163.203 29.58L163.003 28.62C162.736 28.8667 162.476 29.0867 162.223 29.28C161.969 29.4667 161.703 29.6267 161.423 29.76C161.143 29.8867 160.843 29.9833 160.523 30.05C160.209 30.1233 159.859 30.16 159.473 30.16C159.079 30.16 158.709 30.1067 158.363 30C158.016 29.8867 157.713 29.72 157.453 29.5C157.199 29.28 156.996 29.0033 156.843 28.67C156.696 28.33 156.623 27.93 156.623 27.47C156.623 27.07 156.733 26.6867 156.953 26.32C157.173 25.9467 157.529 25.6167 158.023 25.33C158.516 25.0433 159.159 24.81 159.953 24.63C160.746 24.4433 161.719 24.3367 162.873 24.31V23.52C162.873 22.7333 162.703 22.14 162.363 21.74C162.023 21.3333 161.526 21.13 160.873 21.13C160.433 21.13 160.063 21.1867 159.763 21.3C159.469 21.4067 159.213 21.53 158.993 21.67C158.779 21.8033 158.593 21.9267 158.433 22.04C158.279 22.1467 158.126 22.2 157.973 22.2C157.853 22.2 157.749 22.17 157.663 22.11C157.576 22.0433 157.503 21.9633 157.443 21.87L157.123 21.3ZM169.164 15.27V30H167.384V15.27H169.164ZM187.648 27.04C187.754 27.04 187.848 27.0833 187.928 27.17L188.698 28C188.111 28.68 187.398 29.21 186.558 29.59C185.724 29.97 184.714 30.16 183.528 30.16C182.501 30.16 181.568 29.9833 180.728 29.63C179.888 29.27 179.171 28.77 178.578 28.13C177.984 27.4833 177.524 26.71 177.198 25.81C176.871 24.91 176.708 23.92 176.708 22.84C176.708 21.76 176.878 20.77 177.218 19.87C177.558 18.97 178.034 18.1967 178.648 17.55C179.268 16.9033 180.008 16.4033 180.868 16.05C181.728 15.69 182.678 15.51 183.718 15.51C184.738 15.51 185.638 15.6733 186.418 16C187.198 16.3267 187.884 16.77 188.478 17.33L187.838 18.22C187.798 18.2867 187.744 18.3433 187.678 18.39C187.618 18.43 187.534 18.45 187.428 18.45C187.308 18.45 187.161 18.3867 186.988 18.26C186.814 18.1267 186.588 17.98 186.308 17.82C186.028 17.66 185.678 17.5167 185.258 17.39C184.838 17.2567 184.321 17.19 183.708 17.19C182.968 17.19 182.291 17.32 181.678 17.58C181.064 17.8333 180.534 18.2033 180.088 18.69C179.648 19.1767 179.304 19.77 179.058 20.47C178.811 21.17 178.688 21.96 178.688 22.84C178.688 23.7333 178.814 24.53 179.068 25.23C179.328 25.93 179.678 26.5233 180.118 27.01C180.564 27.49 181.088 27.8567 181.688 28.11C182.294 28.3633 182.948 28.49 183.648 28.49C184.074 28.49 184.458 28.4667 184.798 28.42C185.144 28.3667 185.461 28.2867 185.748 28.18C186.041 28.0733 186.311 27.94 186.558 27.78C186.811 27.6133 187.061 27.4167 187.308 27.19C187.421 27.09 187.534 27.04 187.648 27.04ZM192.367 15.27V30H190.587V15.27H192.367ZM197.134 19.87V30H195.354V19.87H197.134ZM197.514 16.69C197.514 16.8633 197.477 17.0267 197.404 17.18C197.337 17.3267 197.244 17.46 197.124 17.58C197.01 17.6933 196.874 17.7833 196.714 17.85C196.56 17.9167 196.397 17.95 196.224 17.95C196.05 17.95 195.887 17.9167 195.734 17.85C195.587 17.7833 195.457 17.6933 195.344 17.58C195.23 17.46 195.14 17.3267 195.074 17.18C195.007 17.0267 194.974 16.8633 194.974 16.69C194.974 16.5167 195.007 16.3533 195.074 16.2C195.14 16.04 195.23 15.9033 195.344 15.79C195.457 15.67 195.587 15.5767 195.734 15.51C195.887 15.4433 196.05 15.41 196.224 15.41C196.397 15.41 196.56 15.4433 196.714 15.51C196.874 15.5767 197.01 15.67 197.124 15.79C197.244 15.9033 197.337 16.04 197.404 16.2C197.477 16.3533 197.514 16.5167 197.514 16.69ZM201.738 21.34C201.958 21.0933 202.192 20.87 202.438 20.67C202.685 20.47 202.945 20.3 203.218 20.16C203.498 20.0133 203.792 19.9033 204.098 19.83C204.412 19.75 204.748 19.71 205.108 19.71C205.662 19.71 206.148 19.8033 206.568 19.99C206.995 20.17 207.348 20.43 207.628 20.77C207.915 21.1033 208.132 21.5067 208.278 21.98C208.425 22.4533 208.498 22.9767 208.498 23.55V30H206.708V23.55C206.708 22.7833 206.532 22.19 206.178 21.77C205.832 21.3433 205.302 21.13 204.588 21.13C204.062 21.13 203.568 21.2567 203.108 21.51C202.655 21.7633 202.235 22.1067 201.848 22.54V30H200.058V19.87H201.128C201.382 19.87 201.538 19.9933 201.598 20.24L201.738 21.34ZM213.091 19.87V30H211.311V19.87H213.091ZM213.471 16.69C213.471 16.8633 213.434 17.0267 213.361 17.18C213.294 17.3267 213.201 17.46 213.081 17.58C212.967 17.6933 212.831 17.7833 212.671 17.85C212.517 17.9167 212.354 17.95 212.181 17.95C212.007 17.95 211.844 17.9167 211.691 17.85C211.544 17.7833 211.414 17.6933 211.301 17.58C211.187 17.46 211.097 17.3267 211.031 17.18C210.964 17.0267 210.931 16.8633 210.931 16.69C210.931 16.5167 210.964 16.3533 211.031 16.2C211.097 16.04 211.187 15.9033 211.301 15.79C211.414 15.67 211.544 15.5767 211.691 15.51C211.844 15.4433 212.007 15.41 212.181 15.41C212.354 15.41 212.517 15.4433 212.671 15.51C212.831 15.5767 212.967 15.67 213.081 15.79C213.201 15.9033 213.294 16.04 213.361 16.2C213.434 16.3533 213.471 16.5167 213.471 16.69ZM223.065 21.67C223.012 21.7433 222.959 21.8 222.905 21.84C222.852 21.88 222.779 21.9 222.685 21.9C222.585 21.9 222.475 21.86 222.355 21.78C222.235 21.6933 222.085 21.6 221.905 21.5C221.732 21.4 221.515 21.31 221.255 21.23C221.002 21.1433 220.689 21.1 220.315 21.1C219.815 21.1 219.375 21.19 218.995 21.37C218.615 21.5433 218.295 21.7967 218.035 22.13C217.782 22.4633 217.589 22.8667 217.455 23.34C217.329 23.8133 217.265 24.3433 217.265 24.93C217.265 25.5433 217.335 26.09 217.475 26.57C217.615 27.0433 217.812 27.4433 218.065 27.77C218.325 28.09 218.635 28.3367 218.995 28.51C219.362 28.6767 219.772 28.76 220.225 28.76C220.659 28.76 221.015 28.71 221.295 28.61C221.575 28.5033 221.805 28.3867 221.985 28.26C222.172 28.1333 222.325 28.02 222.445 27.92C222.572 27.8133 222.695 27.76 222.815 27.76C222.962 27.76 223.075 27.8167 223.155 27.93L223.655 28.58C223.435 28.8533 223.185 29.0867 222.905 29.28C222.625 29.4733 222.322 29.6367 221.995 29.77C221.675 29.8967 221.339 29.99 220.985 30.05C220.632 30.11 220.272 30.14 219.905 30.14C219.272 30.14 218.682 30.0233 218.135 29.79C217.595 29.5567 217.125 29.22 216.725 28.78C216.325 28.3333 216.012 27.7867 215.785 27.14C215.559 26.4933 215.445 25.7567 215.445 24.93C215.445 24.1767 215.549 23.48 215.755 22.84C215.969 22.2 216.275 21.65 216.675 21.19C217.082 20.7233 217.579 20.36 218.165 20.1C218.759 19.84 219.439 19.71 220.205 19.71C220.919 19.71 221.545 19.8267 222.085 20.06C222.632 20.2867 223.115 20.61 223.535 21.03L223.065 21.67Z" fill="white"/>
</svg>
