<svg width="22" height="22" viewBox="0 0 22 22" fill="none" xmlns="http://www.w3.org/2000/svg">
<path d="M7.62969 11.8836L7.37045 11.6229C7.30269 11.5546 7.2221 11.5005 7.1333 11.4635C7.04451 11.4265 6.94927 11.4075 6.85309 11.4075C6.7569 11.4075 6.66166 11.4265 6.57287 11.4635C6.48407 11.5005 6.40348 11.5546 6.33572 11.6229L4.78142 13.1838C4.64369 13.3226 4.56641 13.5102 4.56641 13.7058C4.56641 13.9013 4.64369 14.0889 4.78142 14.2277L5.04028 14.4877C5.10801 14.5559 5.18858 14.6101 5.27734 14.6471C5.36611 14.6841 5.46131 14.7031 5.55747 14.7031C5.65362 14.7031 5.74883 14.6841 5.83759 14.6471C5.92636 14.6101 6.00692 14.5559 6.07465 14.4877L7.62932 12.9268C7.76696 12.7881 7.84423 12.6007 7.8443 12.4053C7.84437 12.2099 7.76723 12.0224 7.62969 11.8836ZM8.66772 18.1309C8.80665 18.2641 8.99168 18.3385 9.18417 18.3385C9.37665 18.3385 9.56169 18.2641 9.70062 18.1309V18.129L11.2553 16.57L11.2575 16.5681C11.3948 16.4296 11.4719 16.2424 11.4719 16.0473C11.4719 15.8522 11.3948 15.665 11.2575 15.5264L10.9986 15.2657C10.8595 15.1321 10.6741 15.0575 10.4813 15.0575C10.2884 15.0575 10.103 15.1321 9.96388 15.2657L8.40958 16.8266C8.27172 16.9652 8.19434 17.1528 8.19434 17.3482C8.19434 17.5437 8.27172 17.7312 8.40958 17.8698L8.66772 18.1309ZM10.482 19.9514C10.5497 20.0195 10.6302 20.0736 10.7189 20.1105C10.8076 20.1474 10.9027 20.1664 10.9988 20.1664C11.0949 20.1664 11.19 20.1474 11.2787 20.1105C11.3674 20.0736 11.4479 20.0195 11.5156 19.9514L13.0692 18.3908C13.2069 18.2523 13.2842 18.065 13.2842 17.8696C13.2842 17.6743 13.2069 17.4869 13.0692 17.3484L12.8125 17.0859C12.6748 16.9489 12.4883 16.8721 12.2941 16.8725C12.1987 16.8724 12.1043 16.8911 12.0162 16.9276C11.9281 16.9641 11.8481 17.0176 11.7807 17.0851L10.2264 18.6457C10.0891 18.7842 10.012 18.9714 10.012 19.1665C10.012 19.3616 10.0891 19.5488 10.2264 19.6874L10.482 19.9514ZM7.37119 16.5249C7.46747 16.5251 7.56284 16.5062 7.65173 16.4691C7.74062 16.4321 7.82125 16.3778 7.88892 16.3093L9.44322 14.7487C9.58095 14.6099 9.65823 14.4223 9.65823 14.2268C9.65823 14.0313 9.58095 13.8436 9.44322 13.7048L9.18435 13.4441C9.11649 13.376 9.03583 13.3219 8.94702 13.285C8.8582 13.2481 8.76298 13.2291 8.6668 13.2291C8.57063 13.2291 8.4754 13.2481 8.38658 13.285C8.29777 13.3219 8.21711 13.376 8.14925 13.4441L6.59495 15.0054C6.45722 15.1442 6.37994 15.3318 6.37994 15.5274C6.37994 15.7229 6.45722 15.9105 6.59495 16.0493L6.85419 16.3093C6.92176 16.3777 7.00227 16.432 7.09103 16.469C7.17979 16.506 7.27502 16.525 7.37119 16.5249Z" fill="#D00404"/>
<path d="M13.0719 9.02401L17.2174 13.1871C17.3563 13.3209 17.5417 13.3956 17.7346 13.3956C17.9274 13.3956 18.1128 13.3209 18.2518 13.1871L18.511 12.9268C18.6488 12.7882 18.7261 12.6007 18.7261 12.4052C18.7261 12.2098 18.6488 12.0223 18.511 11.8836L12.8108 6.15998C12.7416 6.09295 12.649 6.05548 12.5527 6.05548C12.4563 6.05548 12.3637 6.09295 12.2945 6.15998L9.44478 9.01998C9.24087 9.22485 8.9985 9.38743 8.73157 9.49836C8.46465 9.60929 8.17844 9.6664 7.88938 9.6664C7.60033 9.6664 7.31412 9.60929 7.0472 9.49836C6.78027 9.38743 6.5379 9.22485 6.33398 9.01998C6.1283 8.81282 6.01287 8.53274 6.01287 8.24081C6.01287 7.94889 6.1283 7.6688 6.33398 7.46165L10.4682 3.31135C9.35419 2.31808 7.90171 1.78986 6.40993 1.83549C4.91815 1.88113 3.50068 2.49714 2.44952 3.55665C1.35086 4.66419 0.734375 6.16103 0.734375 7.72106C0.734375 9.2811 1.35086 10.7779 2.44952 11.8855L3.88795 13.3301C3.95131 13.0796 4.08013 12.8505 4.26122 12.6661L5.81552 11.1052C5.95147 10.9685 6.1131 10.86 6.29112 10.786C6.46913 10.712 6.66003 10.6739 6.85282 10.6739C7.04561 10.6739 7.2365 10.712 7.41452 10.786C7.59253 10.86 7.75416 10.9685 7.89012 11.1052L8.14898 11.3659C8.29783 11.5164 8.41222 11.6974 8.48427 11.8965C8.55631 12.0955 8.58428 12.3078 8.56625 12.5187C8.7738 12.5021 8.98251 12.5299 9.17849 12.6002C9.37448 12.6705 9.55325 12.7817 9.70292 12.9264L9.96215 13.1871C10.1093 13.3361 10.2227 13.5149 10.2948 13.7114C10.3669 13.9079 10.396 14.1176 10.3802 14.3264C10.4135 14.3242 10.4458 14.3168 10.4795 14.3168C10.6724 14.3164 10.8634 14.3544 11.0414 14.4284C11.2195 14.5024 11.3811 14.6111 11.5168 14.748L11.7757 15.0087C11.9246 15.1593 12.039 15.3404 12.111 15.5395C12.1831 15.7386 12.211 15.951 12.193 16.1619C12.4004 16.1456 12.6089 16.1734 12.8048 16.2435C13.0008 16.3135 13.1796 16.4243 13.3296 16.5685L13.5812 16.8252C13.5834 16.827 13.5863 16.8278 13.5881 16.8296C13.6559 16.8979 13.7365 16.9521 13.8253 16.989C13.9141 17.026 14.0093 17.0451 14.1055 17.0451C14.2017 17.0451 14.2969 17.026 14.3857 16.989C14.4745 16.9521 14.5551 16.8979 14.6229 16.8296L14.8821 16.5689C15.0195 16.4303 15.0967 16.2429 15.0967 16.0477C15.0967 15.8525 15.0195 15.6651 14.8821 15.5265L10.7384 11.363C10.7044 11.3288 10.6775 11.2883 10.6591 11.2438C10.6408 11.1992 10.6314 11.1515 10.6315 11.1033C10.6316 11.0552 10.6412 11.0075 10.6597 10.963C10.6782 10.9185 10.7053 10.8781 10.7395 10.8441C10.7736 10.8102 10.8141 10.7832 10.8587 10.7649C10.9032 10.7465 10.951 10.7371 10.9991 10.7372C11.0964 10.7374 11.1897 10.7763 11.2583 10.8452L15.4039 15.0087C15.5429 15.1422 15.7283 15.2168 15.921 15.2168C16.1138 15.2168 16.2991 15.1422 16.4382 15.0087L16.6971 14.7484C16.8348 14.6097 16.9121 14.4221 16.9121 14.2266C16.9121 14.0312 16.8348 13.8436 16.6971 13.7049L12.5519 9.54175C12.5179 9.50761 12.491 9.46711 12.4726 9.42256C12.4543 9.37801 12.4449 9.33028 12.445 9.2821C12.4451 9.23392 12.4547 9.18624 12.4732 9.14177C12.4918 9.09729 12.5189 9.05691 12.553 9.02291C12.5872 8.98892 12.6277 8.96198 12.6722 8.94364C12.7168 8.92529 12.7645 8.91591 12.8127 8.91601C12.91 8.91622 13.0032 8.95507 13.0719 9.02401Z" fill="#D00404"/>
<path d="M19.4034 12.0296L19.546 11.8863C20.6446 10.7788 21.2611 9.28202 21.2611 7.72205C21.2611 6.16207 20.6446 4.6653 19.546 3.55781C19.003 3.01166 18.3575 2.57824 17.6464 2.28248C16.9353 1.98673 16.1728 1.83447 15.4027 1.83447C14.6325 1.83447 13.87 1.98673 13.1589 2.28248C12.4479 2.57824 11.8023 3.01166 11.2593 3.55781L6.85383 7.98091C6.78482 8.05042 6.74609 8.1444 6.74609 8.24235C6.74609 8.34029 6.78482 8.43427 6.85383 8.50378C7.13226 8.77126 7.50338 8.92065 7.88948 8.92065C8.27558 8.92065 8.6467 8.77126 8.92513 8.50378L11.7749 5.64378C11.9841 5.44299 12.2629 5.33088 12.5529 5.33088C12.8429 5.33088 13.1217 5.44299 13.331 5.64378L19.0297 11.3667C19.2109 11.5506 19.3398 11.7794 19.4034 12.0296Z" fill="#D00404"/>
</svg>
