<svg width="43" height="45" viewBox="0 0 43 45" fill="none" xmlns="http://www.w3.org/2000/svg">
<path d="M36.6582 0H6.33868C2.8524 0 0 2.98507 0 6.6335V38.3665C0 42.0149 2.8524 45 6.33868 45H36.6613C40.1476 45 43 42.0149 43 38.3665V6.6335C42.9968 2.98507 40.1476 0 36.6582 0ZM36.2509 24.0182H31.1483V43.3383H23.5133V24.0182H19.6943V17.3582H23.5133V13.3615C23.5133 7.92869 25.6685 4.69652 31.8011 4.69652H36.899V11.3549H33.7107C31.3273 11.3549 31.1689 12.2886 31.1689 14.0249L31.1483 17.3582H36.9244L36.2509 24.0182Z" fill="#2B2D42"/>
</svg>
