<svg width="40" height="86" viewBox="0 0 40 86" fill="none" xmlns="http://www.w3.org/2000/svg">
<path d="M-0.00087475 8.20095C1.06113 7.13895 2.26079 6.11629 3.59813 5.13295C4.93546 4.14962 6.39079 3.28429 7.96413 2.53695C9.57679 1.75028 11.3271 1.14062 13.2151 0.707953C15.1031 0.23595 17.1485 -5.16176e-05 19.3511 -5.16176e-05C22.0651 -5.16176e-05 24.6415 0.412949 27.0801 1.23895C29.5581 2.06495 31.7018 3.24495 33.5111 4.77895C35.3598 6.31295 36.8151 8.20095 37.8771 10.443C38.9785 12.6456 39.5291 15.1236 39.5291 17.877C39.5291 20.8663 39.0571 23.4426 38.1131 25.606C37.2085 27.7693 36.0481 29.677 34.6321 31.329C33.2161 32.9416 31.6821 34.3773 30.0301 35.636C28.3781 36.8553 26.8245 38.0156 25.3691 39.117C23.9138 40.179 22.6748 41.2606 21.6521 42.362C20.6688 43.4633 20.1378 44.6826 20.0591 46.02L19.4101 55.696H15.5751L15.2211 45.607C15.1425 43.955 15.5555 42.4996 16.4601 41.241C17.3648 39.9823 18.5251 38.7826 19.9411 37.642C21.3571 36.5013 22.8911 35.341 24.5431 34.161C26.1951 32.981 27.7291 31.6436 29.1451 30.149C30.6005 28.6543 31.8001 26.9433 32.7441 25.0159C33.7275 23.0886 34.2191 20.7876 34.2191 18.113C34.2191 15.989 33.8061 14.101 32.9801 12.449C32.1541 10.7576 31.0331 9.34162 29.6171 8.20095C28.2011 7.02095 26.5688 6.13595 24.7201 5.54595C22.8715 4.91662 20.9441 4.60195 18.9381 4.60195C16.3421 4.60195 14.0805 4.95595 12.1531 5.66395C10.2651 6.33262 8.67213 7.09962 7.37413 7.96495C6.07613 8.79095 5.05346 9.55795 4.30613 10.2659C3.55879 10.9346 3.04746 11.269 2.77213 11.269C2.18213 11.269 1.74946 11.033 1.47413 10.5609L-0.00087475 8.20095ZM11.9171 79.886C11.9171 79.1386 12.0548 78.4306 12.3301 77.762C12.6055 77.0933 12.9791 76.523 13.4511 76.051C13.9625 75.5396 14.5328 75.1463 15.1621 74.871C15.8308 74.5563 16.5585 74.399 17.3451 74.399C18.0925 74.399 18.8005 74.5563 19.4691 74.871C20.1378 75.1463 20.7081 75.5396 21.1801 76.051C21.6915 76.523 22.0848 77.0933 22.3601 77.762C22.6748 78.4306 22.8321 79.1386 22.8321 79.886C22.8321 80.6726 22.6748 81.4003 22.3601 82.069C22.0848 82.6983 21.6915 83.2686 21.1801 83.78C20.7081 84.252 20.1378 84.6256 19.4691 84.901C18.8005 85.1763 18.0925 85.314 17.3451 85.314C15.8111 85.314 14.5131 84.8026 13.4511 83.78C12.4285 82.718 11.9171 81.42 11.9171 79.886Z" fill="#B82A2A"/>
</svg>
