<svg width="25" height="25" viewBox="0 0 25 25" fill="none" xmlns="http://www.w3.org/2000/svg">
<path d="M12.792 21.7981C11.5152 21.7981 10.3119 21.5547 9.18225 21.0679C8.05275 20.5809 7.06675 19.9162 6.22425 19.0739C5.38192 18.2314 4.71725 17.2454 4.23025 16.1159C3.74342 14.9862 3.5 13.783 3.5 12.5061C3.5 11.2163 3.74342 10.0089 4.23025 8.8839C4.71725 7.7589 5.38192 6.77456 6.22425 5.9309C7.06675 5.08706 8.05275 4.42132 9.18225 3.93365C10.3119 3.44598 11.5152 3.20215 12.792 3.20215C14.0818 3.20215 15.2893 3.44606 16.4143 3.9339C17.5393 4.42173 18.5236 5.08765 19.3673 5.93165C20.2111 6.77548 20.8768 7.76006 21.3645 8.8854C21.8522 10.0106 22.096 11.2155 22.096 12.5001C22.096 13.781 21.8522 14.9862 21.3645 16.1159C20.8768 17.2454 20.2111 18.2314 19.3673 19.0739C18.5236 19.9162 17.5393 20.5809 16.4143 21.0679C15.2893 21.5547 14.0818 21.7981 12.792 21.7981ZM12.798 20.4386C13.3185 19.755 13.7552 19.0617 14.108 18.3589C14.461 17.6562 14.7487 16.894 14.971 16.0721H10.6298C10.8586 16.9228 11.1478 17.6979 11.4975 18.3974C11.8473 19.0969 12.2808 19.7773 12.798 20.4386ZM10.9827 20.1434C10.5859 19.5716 10.2303 18.9341 9.91575 18.2309C9.60142 17.5277 9.35883 16.8081 9.188 16.0721H5.77775C6.30592 17.1325 7.02017 18.0138 7.9205 18.7161C8.82083 19.4183 9.84158 19.8941 10.9827 20.1434ZM14.6132 20.1434C15.7511 19.8972 16.771 19.4222 17.673 18.7184C18.575 18.0146 19.2917 17.1325 19.823 16.0721H16.4128C16.2068 16.8145 15.9465 17.5373 15.632 18.2406C15.3177 18.9438 14.9781 19.5781 14.6132 20.1434ZM5.2095 14.6731H8.89425C8.83142 14.2963 8.78592 13.9286 8.75775 13.5699C8.72942 13.2112 8.71525 12.8546 8.71525 12.5001C8.71525 12.1456 8.72942 11.7891 8.75775 11.4304C8.78592 11.0717 8.83142 10.704 8.89425 10.3271H5.2095C5.105 10.6751 5.02717 11.0311 4.976 11.3951C4.92467 11.7591 4.899 12.1275 4.899 12.5001C4.899 12.8728 4.92467 13.2411 4.976 13.6051C5.02717 13.9691 5.105 14.3251 5.2095 14.6731ZM10.3057 14.6731H15.2952C15.3599 14.2963 15.4072 13.9331 15.437 13.5836C15.4668 13.234 15.4817 12.8728 15.4817 12.5001C15.4817 12.1275 15.4668 11.7663 15.437 11.4166C15.4072 11.0671 15.3599 10.704 15.2952 10.3271H10.3057C10.2377 10.704 10.1888 11.0671 10.159 11.4166C10.1292 11.7663 10.1143 12.1275 10.1143 12.5001C10.1143 12.8728 10.1292 13.234 10.159 13.5836C10.1888 13.9331 10.2377 14.2963 10.3057 14.6731ZM16.7018 14.6731H20.3912C20.4926 14.3251 20.5688 13.9691 20.62 13.6051C20.6713 13.2411 20.697 12.8728 20.697 12.5001C20.697 12.1275 20.6713 11.7591 20.62 11.3951C20.5688 11.0311 20.4926 10.6751 20.3912 10.3271H16.7018C16.7646 10.704 16.8101 11.0717 16.8382 11.4304C16.8666 11.7891 16.8807 12.1456 16.8807 12.5001C16.8807 12.8546 16.8666 13.2112 16.8382 13.5699C16.8101 13.9286 16.7646 14.2963 16.7018 14.6731ZM16.4128 8.92815H19.823C19.2883 7.85815 18.5781 6.97681 17.6923 6.28415C16.8063 5.59165 15.7799 5.11265 14.6132 4.84715C15.0101 5.45098 15.3633 6.09973 15.673 6.7934C15.9827 7.48706 16.2292 8.19865 16.4128 8.92815ZM10.6298 8.92815H14.971C14.739 8.08698 14.4433 7.3079 14.084 6.5909C13.7247 5.87373 13.296 5.19732 12.798 4.56165C12.3 5.19732 11.8713 5.87373 11.512 6.5909C11.1527 7.3079 10.8586 8.08698 10.6298 8.92815ZM5.77775 8.92815H9.188C9.36833 8.19865 9.61333 7.48706 9.923 6.7934C10.2327 6.09973 10.5859 5.45098 10.9827 4.84715C9.81275 5.11581 8.78558 5.59648 7.90125 6.28915C7.01708 6.98181 6.30925 7.86148 5.77775 8.92815Z" fill="#181818"/>
</svg>
