<svg width="24" height="24" viewBox="0 0 24 24" fill="none" xmlns="http://www.w3.org/2000/svg">
<path d="M12.003 11.8127C12.4865 11.8127 12.9002 11.6406 13.244 11.2965C13.5879 10.9521 13.7598 10.5383 13.7598 10.055C13.7598 9.57163 13.5874 9.15804 13.2425 8.81421C12.8977 8.47021 12.4831 8.29821 11.9988 8.29821C11.5145 8.29821 11.1012 8.47071 10.759 8.81571C10.4167 9.16054 10.2455 9.57513 10.2455 10.0595C10.2455 10.5436 10.4176 10.9569 10.7618 11.2992C11.106 11.6415 11.5197 11.8127 12.003 11.8127ZM12.0003 19.4532C13.9231 17.7065 15.395 16.038 16.416 14.4475C17.4369 12.857 17.9473 11.4665 17.9473 10.2762C17.9473 8.47488 17.3785 6.99504 16.2408 5.83671C15.103 4.67838 13.6889 4.09921 11.9985 4.09921C10.308 4.09921 8.89455 4.67838 7.75805 5.83671C6.62155 6.99504 6.0533 8.47488 6.0533 10.2762C6.0533 11.4665 6.56371 12.857 7.58455 14.4475C8.60555 16.038 10.0775 17.7065 12.0003 19.4532ZM12.0003 21.308C9.54263 19.1458 7.70388 17.1504 6.48405 15.3217C5.26421 13.4932 4.6543 11.813 4.6543 10.281C4.6543 8.03079 5.3818 6.20638 6.8368 4.80771C8.29196 3.40921 10.0131 2.70996 12.0003 2.70996C13.9875 2.70996 15.7086 3.40921 17.1638 4.80771C18.6188 6.20638 19.3463 8.03079 19.3463 10.281C19.3463 11.813 18.7364 13.4932 17.5165 15.3217C16.2967 17.1504 14.458 19.1458 12.0003 21.308Z" fill="white"/>
</svg>
