<svg width="226" height="45" viewBox="0 0 226 45" fill="none" xmlns="http://www.w3.org/2000/svg">
<circle cx="10.5" cy="10.5" r="10" fill="#D00404"/>
<circle cx="34.5" cy="10.5" r="10" fill="#D00404"/>
<circle cx="10.5" cy="34.5" r="10" fill="#D00404"/>
<circle cx="34.5" cy="34.5" r="10" fill="#D00404"/>
<path d="M63.81 18.67C63.73 18.81 63.6433 18.9133 63.55 18.98C63.4633 19.04 63.3533 19.07 63.22 19.07C63.08 19.07 62.9267 19.02 62.76 18.92C62.6 18.8133 62.4067 18.6967 62.18 18.57C61.9533 18.4433 61.6867 18.33 61.38 18.23C61.08 18.1233 60.7233 18.07 60.31 18.07C59.9367 18.07 59.61 18.1167 59.33 18.21C59.05 18.2967 58.8133 18.42 58.62 18.58C58.4333 18.74 58.2933 18.9333 58.2 19.16C58.1067 19.38 58.06 19.6233 58.06 19.89C58.06 20.23 58.1533 20.5133 58.34 20.74C58.5333 20.9667 58.7867 21.16 59.1 21.32C59.4133 21.48 59.77 21.6233 60.17 21.75C60.57 21.8767 60.98 22.0133 61.4 22.16C61.82 22.3 62.23 22.4667 62.63 22.66C63.03 22.8467 63.3867 23.0867 63.7 23.38C64.0133 23.6667 64.2633 24.02 64.45 24.44C64.6433 24.86 64.74 25.37 64.74 25.97C64.74 26.6233 64.6267 27.2367 64.4 27.81C64.18 28.3767 63.8533 28.8733 63.42 29.3C62.9933 29.72 62.47 30.0533 61.85 30.3C61.23 30.54 60.52 30.66 59.72 30.66C59.26 30.66 58.8067 30.6133 58.36 30.52C57.9133 30.4333 57.4833 30.3067 57.07 30.14C56.6633 29.9733 56.28 29.7733 55.92 29.54C55.56 29.3067 55.24 29.0467 54.96 28.76L55.75 27.47C55.8167 27.3767 55.9033 27.3 56.01 27.24C56.1167 27.1733 56.23 27.14 56.35 27.14C56.5167 27.14 56.6967 27.21 56.89 27.35C57.0833 27.4833 57.3133 27.6333 57.58 27.8C57.8467 27.9667 58.1567 28.12 58.51 28.26C58.87 28.3933 59.3 28.46 59.8 28.46C60.5667 28.46 61.16 28.28 61.58 27.92C62 27.5533 62.21 27.03 62.21 26.35C62.21 25.97 62.1133 25.66 61.92 25.42C61.7333 25.18 61.4833 24.98 61.17 24.82C60.8567 24.6533 60.5 24.5133 60.1 24.4C59.7 24.2867 59.2933 24.1633 58.88 24.03C58.4667 23.8967 58.06 23.7367 57.66 23.55C57.26 23.3633 56.9033 23.12 56.59 22.82C56.2767 22.52 56.0233 22.1467 55.83 21.7C55.6433 21.2467 55.55 20.69 55.55 20.03C55.55 19.5033 55.6533 18.99 55.86 18.49C56.0733 17.99 56.38 17.5467 56.78 17.16C57.18 16.7733 57.6733 16.4633 58.26 16.23C58.8467 15.9967 59.52 15.88 60.28 15.88C61.1333 15.88 61.92 16.0133 62.64 16.28C63.36 16.5467 63.9733 16.92 64.48 17.4L63.81 18.67ZM80.8766 23.27C80.8766 24.33 80.6999 25.3133 80.3466 26.22C79.9999 27.12 79.5066 27.9 78.8666 28.56C78.2266 29.22 77.4566 29.7367 76.5566 30.11C75.6566 30.4767 74.6566 30.66 73.5566 30.66C72.4632 30.66 71.4666 30.4767 70.5666 30.11C69.6666 29.7367 68.8932 29.22 68.2466 28.56C67.6066 27.9 67.1099 27.12 66.7566 26.22C66.4032 25.3133 66.2266 24.33 66.2266 23.27C66.2266 22.21 66.4032 21.23 66.7566 20.33C67.1099 19.4233 67.6066 18.64 68.2466 17.98C68.8932 17.32 69.6666 16.8067 70.5666 16.44C71.4666 16.0667 72.4632 15.88 73.5566 15.88C74.2899 15.88 74.9799 15.9667 75.6266 16.14C76.2732 16.3067 76.8666 16.5467 77.4066 16.86C77.9466 17.1667 78.4299 17.5433 78.8566 17.99C79.2899 18.43 79.6566 18.9233 79.9566 19.47C80.2566 20.0167 80.4832 20.61 80.6366 21.25C80.7966 21.89 80.8766 22.5633 80.8766 23.27ZM78.1266 23.27C78.1266 22.4767 78.0199 21.7667 77.8066 21.14C77.5932 20.5067 77.2899 19.97 76.8966 19.53C76.5032 19.09 76.0232 18.7533 75.4566 18.52C74.8966 18.2867 74.2632 18.17 73.5566 18.17C72.8499 18.17 72.2132 18.2867 71.6466 18.52C71.0866 18.7533 70.6066 19.09 70.2066 19.53C69.8132 19.97 69.5099 20.5067 69.2966 21.14C69.0832 21.7667 68.9766 22.4767 68.9766 23.27C68.9766 24.0633 69.0832 24.7767 69.2966 25.41C69.5099 26.0367 69.8132 26.57 70.2066 27.01C70.6066 27.4433 71.0866 27.7767 71.6466 28.01C72.2132 28.2433 72.8499 28.36 73.5566 28.36C74.2632 28.36 74.8966 28.2433 75.4566 28.01C76.0232 27.7767 76.5032 27.4433 76.8966 27.01C77.2899 26.57 77.5932 26.0367 77.8066 25.41C78.0199 24.7767 78.1266 24.0633 78.1266 23.27ZM91.7089 28.28V30.5H83.2389V16.04H85.9289V28.28H91.7089ZM106.912 23.27C106.912 24.33 106.735 25.3133 106.382 26.22C106.035 27.12 105.542 27.9 104.902 28.56C104.262 29.22 103.492 29.7367 102.592 30.11C101.692 30.4767 100.692 30.66 99.5917 30.66C98.4984 30.66 97.5017 30.4767 96.6017 30.11C95.7017 29.7367 94.9284 29.22 94.2817 28.56C93.6417 27.9 93.1451 27.12 92.7917 26.22C92.4384 25.3133 92.2617 24.33 92.2617 23.27C92.2617 22.21 92.4384 21.23 92.7917 20.33C93.1451 19.4233 93.6417 18.64 94.2817 17.98C94.9284 17.32 95.7017 16.8067 96.6017 16.44C97.5017 16.0667 98.4984 15.88 99.5917 15.88C100.325 15.88 101.015 15.9667 101.662 16.14C102.308 16.3067 102.902 16.5467 103.442 16.86C103.982 17.1667 104.465 17.5433 104.892 17.99C105.325 18.43 105.692 18.9233 105.992 19.47C106.292 20.0167 106.518 20.61 106.672 21.25C106.832 21.89 106.912 22.5633 106.912 23.27ZM104.162 23.27C104.162 22.4767 104.055 21.7667 103.842 21.14C103.628 20.5067 103.325 19.97 102.932 19.53C102.538 19.09 102.058 18.7533 101.492 18.52C100.932 18.2867 100.298 18.17 99.5917 18.17C98.8851 18.17 98.2484 18.2867 97.6817 18.52C97.1217 18.7533 96.6417 19.09 96.2417 19.53C95.8484 19.97 95.5451 20.5067 95.3317 21.14C95.1184 21.7667 95.0117 22.4767 95.0117 23.27C95.0117 24.0633 95.1184 24.7767 95.3317 25.41C95.5451 26.0367 95.8484 26.57 96.2417 27.01C96.6417 27.4433 97.1217 27.7767 97.6817 28.01C98.2484 28.2433 98.8851 28.36 99.5917 28.36C100.298 28.36 100.932 28.2433 101.492 28.01C102.058 27.7767 102.538 27.4433 102.932 27.01C103.325 26.57 103.628 26.0367 103.842 25.41C104.055 24.7767 104.162 24.0633 104.162 23.27ZM126.895 23.34C126.895 24.4133 126.725 25.39 126.385 26.27C126.045 27.15 125.565 27.9033 124.945 28.53C124.325 29.1567 123.578 29.6433 122.705 29.99C121.838 30.33 120.878 30.5 119.825 30.5H114.475V16.17H119.825C120.878 16.17 121.838 16.3433 122.705 16.69C123.578 17.03 124.325 17.5167 124.945 18.15C125.565 18.7767 126.045 19.53 126.385 20.41C126.725 21.29 126.895 22.2667 126.895 23.34ZM124.905 23.34C124.905 22.46 124.785 21.6733 124.545 20.98C124.305 20.2867 123.965 19.7 123.525 19.22C123.085 18.74 122.551 18.3733 121.925 18.12C121.298 17.8667 120.598 17.74 119.825 17.74H116.415V28.93H119.825C120.598 28.93 121.298 28.8033 121.925 28.55C122.551 28.2967 123.085 27.9333 123.525 27.46C123.965 26.98 124.305 26.3933 124.545 25.7C124.785 25.0067 124.905 24.22 124.905 23.34ZM135.913 24.33C135.913 23.9167 135.853 23.54 135.733 23.2C135.619 22.8533 135.449 22.5567 135.223 22.31C135.003 22.0567 134.733 21.8633 134.413 21.73C134.093 21.59 133.729 21.52 133.323 21.52C132.469 21.52 131.793 21.77 131.293 22.27C130.799 22.7633 130.493 23.45 130.373 24.33H135.913ZM137.353 29.08C137.133 29.3467 136.869 29.58 136.563 29.78C136.256 29.9733 135.926 30.1333 135.573 30.26C135.226 30.3867 134.866 30.48 134.493 30.54C134.119 30.6067 133.749 30.64 133.383 30.64C132.683 30.64 132.036 30.5233 131.443 30.29C130.856 30.05 130.346 29.7033 129.913 29.25C129.486 28.79 129.153 28.2233 128.913 27.55C128.673 26.8767 128.553 26.1033 128.553 25.23C128.553 24.5233 128.659 23.8633 128.873 23.25C129.093 22.6367 129.406 22.1067 129.813 21.66C130.219 21.2067 130.716 20.8533 131.303 20.6C131.889 20.34 132.549 20.21 133.283 20.21C133.889 20.21 134.449 20.3133 134.963 20.52C135.483 20.72 135.929 21.0133 136.303 21.4C136.683 21.78 136.979 22.2533 137.193 22.82C137.406 23.38 137.513 24.02 137.513 24.74C137.513 25.02 137.483 25.2067 137.423 25.3C137.363 25.3933 137.249 25.44 137.083 25.44H130.313C130.333 26.08 130.419 26.6367 130.573 27.11C130.733 27.5833 130.953 27.98 131.233 28.3C131.513 28.6133 131.846 28.85 132.233 29.01C132.619 29.1633 133.053 29.24 133.533 29.24C133.979 29.24 134.363 29.19 134.683 29.09C135.009 28.9833 135.289 28.87 135.523 28.75C135.756 28.63 135.949 28.52 136.103 28.42C136.263 28.3133 136.399 28.26 136.513 28.26C136.659 28.26 136.773 28.3167 136.853 28.43L137.353 29.08ZM141.379 21.84C141.599 21.5933 141.832 21.37 142.079 21.17C142.326 20.97 142.586 20.8 142.859 20.66C143.139 20.5133 143.432 20.4033 143.739 20.33C144.052 20.25 144.389 20.21 144.749 20.21C145.302 20.21 145.789 20.3033 146.209 20.49C146.636 20.67 146.989 20.93 147.269 21.27C147.556 21.6033 147.772 22.0067 147.919 22.48C148.066 22.9533 148.139 23.4767 148.139 24.05V30.5H146.349V24.05C146.349 23.2833 146.172 22.69 145.819 22.27C145.472 21.8433 144.942 21.63 144.229 21.63C143.702 21.63 143.209 21.7567 142.749 22.01C142.296 22.2633 141.876 22.6067 141.489 23.04V30.5H139.699V20.37H140.769C141.022 20.37 141.179 20.4933 141.239 20.74L141.379 21.84ZM153.825 30.66C153.025 30.66 152.408 30.4367 151.975 29.99C151.548 29.5433 151.335 28.9 151.335 28.06V21.86H150.115C150.008 21.86 149.918 21.83 149.845 21.77C149.771 21.7033 149.735 21.6033 149.735 21.47V20.76L151.395 20.55L151.805 17.42C151.825 17.32 151.868 17.24 151.935 17.18C152.008 17.1133 152.101 17.08 152.215 17.08H153.115V20.57H156.045V21.86H153.115V27.94C153.115 28.3667 153.218 28.6833 153.425 28.89C153.631 29.0967 153.898 29.2 154.225 29.2C154.411 29.2 154.571 29.1767 154.705 29.13C154.845 29.0767 154.965 29.02 155.065 28.96C155.165 28.9 155.248 28.8467 155.315 28.8C155.388 28.7467 155.451 28.72 155.505 28.72C155.598 28.72 155.681 28.7767 155.755 28.89L156.275 29.74C155.968 30.0267 155.598 30.2533 155.165 30.42C154.731 30.58 154.285 30.66 153.825 30.66ZM163.373 25.94C162.553 25.9667 161.853 26.0333 161.273 26.14C160.699 26.24 160.229 26.3733 159.863 26.54C159.503 26.7067 159.239 26.9033 159.073 27.13C158.913 27.3567 158.833 27.61 158.833 27.89C158.833 28.1567 158.876 28.3867 158.963 28.58C159.049 28.7733 159.166 28.9333 159.313 29.06C159.466 29.18 159.643 29.27 159.843 29.33C160.049 29.3833 160.269 29.41 160.503 29.41C160.816 29.41 161.103 29.38 161.363 29.32C161.623 29.2533 161.866 29.16 162.093 29.04C162.326 28.92 162.546 28.7767 162.753 28.61C162.966 28.4433 163.173 28.2533 163.373 28.04V25.94ZM157.623 21.8C158.183 21.26 158.786 20.8567 159.433 20.59C160.079 20.3233 160.796 20.19 161.583 20.19C162.149 20.19 162.653 20.2833 163.093 20.47C163.533 20.6567 163.903 20.9167 164.203 21.25C164.503 21.5833 164.729 21.9867 164.883 22.46C165.036 22.9333 165.113 23.4533 165.113 24.02V30.5H164.323C164.149 30.5 164.016 30.4733 163.923 30.42C163.829 30.36 163.756 30.2467 163.703 30.08L163.503 29.12C163.236 29.3667 162.976 29.5867 162.723 29.78C162.469 29.9667 162.203 30.1267 161.923 30.26C161.643 30.3867 161.343 30.4833 161.023 30.55C160.709 30.6233 160.359 30.66 159.973 30.66C159.579 30.66 159.209 30.6067 158.863 30.5C158.516 30.3867 158.213 30.22 157.953 30C157.699 29.78 157.496 29.5033 157.343 29.17C157.196 28.83 157.123 28.43 157.123 27.97C157.123 27.57 157.233 27.1867 157.453 26.82C157.673 26.4467 158.029 26.1167 158.523 25.83C159.016 25.5433 159.659 25.31 160.453 25.13C161.246 24.9433 162.219 24.8367 163.373 24.81V24.02C163.373 23.2333 163.203 22.64 162.863 22.24C162.523 21.8333 162.026 21.63 161.373 21.63C160.933 21.63 160.563 21.6867 160.263 21.8C159.969 21.9067 159.713 22.03 159.493 22.17C159.279 22.3033 159.093 22.4267 158.933 22.54C158.779 22.6467 158.626 22.7 158.473 22.7C158.353 22.7 158.249 22.67 158.163 22.61C158.076 22.5433 158.003 22.4633 157.943 22.37L157.623 21.8ZM169.664 15.77V30.5H167.884V15.77H169.664ZM188.148 27.54C188.254 27.54 188.348 27.5833 188.428 27.67L189.198 28.5C188.611 29.18 187.898 29.71 187.058 30.09C186.224 30.47 185.214 30.66 184.028 30.66C183.001 30.66 182.068 30.4833 181.228 30.13C180.388 29.77 179.671 29.27 179.078 28.63C178.484 27.9833 178.024 27.21 177.698 26.31C177.371 25.41 177.208 24.42 177.208 23.34C177.208 22.26 177.378 21.27 177.718 20.37C178.058 19.47 178.534 18.6967 179.148 18.05C179.768 17.4033 180.508 16.9033 181.368 16.55C182.228 16.19 183.178 16.01 184.218 16.01C185.238 16.01 186.138 16.1733 186.918 16.5C187.698 16.8267 188.384 17.27 188.978 17.83L188.338 18.72C188.298 18.7867 188.244 18.8433 188.178 18.89C188.118 18.93 188.034 18.95 187.928 18.95C187.808 18.95 187.661 18.8867 187.488 18.76C187.314 18.6267 187.088 18.48 186.808 18.32C186.528 18.16 186.178 18.0167 185.758 17.89C185.338 17.7567 184.821 17.69 184.208 17.69C183.468 17.69 182.791 17.82 182.178 18.08C181.564 18.3333 181.034 18.7033 180.588 19.19C180.148 19.6767 179.804 20.27 179.558 20.97C179.311 21.67 179.188 22.46 179.188 23.34C179.188 24.2333 179.314 25.03 179.568 25.73C179.828 26.43 180.178 27.0233 180.618 27.51C181.064 27.99 181.588 28.3567 182.188 28.61C182.794 28.8633 183.448 28.99 184.148 28.99C184.574 28.99 184.958 28.9667 185.298 28.92C185.644 28.8667 185.961 28.7867 186.248 28.68C186.541 28.5733 186.811 28.44 187.058 28.28C187.311 28.1133 187.561 27.9167 187.808 27.69C187.921 27.59 188.034 27.54 188.148 27.54ZM192.867 15.77V30.5H191.087V15.77H192.867ZM197.634 20.37V30.5H195.854V20.37H197.634ZM198.014 17.19C198.014 17.3633 197.977 17.5267 197.904 17.68C197.837 17.8267 197.744 17.96 197.624 18.08C197.51 18.1933 197.374 18.2833 197.214 18.35C197.06 18.4167 196.897 18.45 196.724 18.45C196.55 18.45 196.387 18.4167 196.234 18.35C196.087 18.2833 195.957 18.1933 195.844 18.08C195.73 17.96 195.64 17.8267 195.574 17.68C195.507 17.5267 195.474 17.3633 195.474 17.19C195.474 17.0167 195.507 16.8533 195.574 16.7C195.64 16.54 195.73 16.4033 195.844 16.29C195.957 16.17 196.087 16.0767 196.234 16.01C196.387 15.9433 196.55 15.91 196.724 15.91C196.897 15.91 197.06 15.9433 197.214 16.01C197.374 16.0767 197.51 16.17 197.624 16.29C197.744 16.4033 197.837 16.54 197.904 16.7C197.977 16.8533 198.014 17.0167 198.014 17.19ZM202.238 21.84C202.458 21.5933 202.692 21.37 202.938 21.17C203.185 20.97 203.445 20.8 203.718 20.66C203.998 20.5133 204.292 20.4033 204.598 20.33C204.912 20.25 205.248 20.21 205.608 20.21C206.162 20.21 206.648 20.3033 207.068 20.49C207.495 20.67 207.848 20.93 208.128 21.27C208.415 21.6033 208.632 22.0067 208.778 22.48C208.925 22.9533 208.998 23.4767 208.998 24.05V30.5H207.208V24.05C207.208 23.2833 207.032 22.69 206.678 22.27C206.332 21.8433 205.802 21.63 205.088 21.63C204.562 21.63 204.068 21.7567 203.608 22.01C203.155 22.2633 202.735 22.6067 202.348 23.04V30.5H200.558V20.37H201.628C201.882 20.37 202.038 20.4933 202.098 20.74L202.238 21.84ZM213.591 20.37V30.5H211.811V20.37H213.591ZM213.971 17.19C213.971 17.3633 213.934 17.5267 213.861 17.68C213.794 17.8267 213.701 17.96 213.581 18.08C213.467 18.1933 213.331 18.2833 213.171 18.35C213.017 18.4167 212.854 18.45 212.681 18.45C212.507 18.45 212.344 18.4167 212.191 18.35C212.044 18.2833 211.914 18.1933 211.801 18.08C211.687 17.96 211.597 17.8267 211.531 17.68C211.464 17.5267 211.431 17.3633 211.431 17.19C211.431 17.0167 211.464 16.8533 211.531 16.7C211.597 16.54 211.687 16.4033 211.801 16.29C211.914 16.17 212.044 16.0767 212.191 16.01C212.344 15.9433 212.507 15.91 212.681 15.91C212.854 15.91 213.017 15.9433 213.171 16.01C213.331 16.0767 213.467 16.17 213.581 16.29C213.701 16.4033 213.794 16.54 213.861 16.7C213.934 16.8533 213.971 17.0167 213.971 17.19ZM223.565 22.17C223.512 22.2433 223.459 22.3 223.405 22.34C223.352 22.38 223.279 22.4 223.185 22.4C223.085 22.4 222.975 22.36 222.855 22.28C222.735 22.1933 222.585 22.1 222.405 22C222.232 21.9 222.015 21.81 221.755 21.73C221.502 21.6433 221.189 21.6 220.815 21.6C220.315 21.6 219.875 21.69 219.495 21.87C219.115 22.0433 218.795 22.2967 218.535 22.63C218.282 22.9633 218.089 23.3667 217.955 23.84C217.829 24.3133 217.765 24.8433 217.765 25.43C217.765 26.0433 217.835 26.59 217.975 27.07C218.115 27.5433 218.312 27.9433 218.565 28.27C218.825 28.59 219.135 28.8367 219.495 29.01C219.862 29.1767 220.272 29.26 220.725 29.26C221.159 29.26 221.515 29.21 221.795 29.11C222.075 29.0033 222.305 28.8867 222.485 28.76C222.672 28.6333 222.825 28.52 222.945 28.42C223.072 28.3133 223.195 28.26 223.315 28.26C223.462 28.26 223.575 28.3167 223.655 28.43L224.155 29.08C223.935 29.3533 223.685 29.5867 223.405 29.78C223.125 29.9733 222.822 30.1367 222.495 30.27C222.175 30.3967 221.839 30.49 221.485 30.55C221.132 30.61 220.772 30.64 220.405 30.64C219.772 30.64 219.182 30.5233 218.635 30.29C218.095 30.0567 217.625 29.72 217.225 29.28C216.825 28.8333 216.512 28.2867 216.285 27.64C216.059 26.9933 215.945 26.2567 215.945 25.43C215.945 24.6767 216.049 23.98 216.255 23.34C216.469 22.7 216.775 22.15 217.175 21.69C217.582 21.2233 218.079 20.86 218.665 20.6C219.259 20.34 219.939 20.21 220.705 20.21C221.419 20.21 222.045 20.3267 222.585 20.56C223.132 20.7867 223.615 21.11 224.035 21.53L223.565 22.17Z" fill="#181818"/>
</svg>
