<svg width="148" height="44" viewBox="0 0 148 44" fill="none" xmlns="http://www.w3.org/2000/svg">
<circle cx="12.5" cy="10" r="10" fill="#D00404"/>
<circle cx="36.5" cy="10" r="10" fill="#D00404"/>
<circle cx="12.5" cy="34" r="10" fill="#D00404"/>
<circle cx="36.5" cy="34" r="10" fill="#D00404"/>
<path d="M68.741 8.987C68.653 9.141 68.5577 9.25467 68.455 9.328C68.3597 9.394 68.2387 9.427 68.092 9.427C67.938 9.427 67.7693 9.372 67.586 9.262C67.41 9.14467 67.1973 9.01633 66.948 8.877C66.6987 8.73767 66.4053 8.613 66.068 8.503C65.738 8.38567 65.3457 8.327 64.891 8.327C64.4803 8.327 64.121 8.37833 63.813 8.481C63.505 8.57633 63.2447 8.712 63.032 8.888C62.8267 9.064 62.6727 9.27667 62.57 9.526C62.4673 9.768 62.416 10.0357 62.416 10.329C62.416 10.703 62.5187 11.0147 62.724 11.264C62.9367 11.5133 63.2153 11.726 63.56 11.902C63.9047 12.078 64.297 12.2357 64.737 12.375C65.177 12.5143 65.628 12.6647 66.09 12.826C66.552 12.98 67.003 13.1633 67.443 13.376C67.883 13.5813 68.2753 13.8453 68.62 14.168C68.9647 14.4833 69.2397 14.872 69.445 15.334C69.6577 15.796 69.764 16.357 69.764 17.017C69.764 17.7357 69.6393 18.4103 69.39 19.041C69.148 19.6643 68.7887 20.2107 68.312 20.68C67.8427 21.142 67.267 21.5087 66.585 21.78C65.903 22.044 65.122 22.176 64.242 22.176C63.736 22.176 63.2373 22.1247 62.746 22.022C62.2547 21.9267 61.7817 21.7873 61.327 21.604C60.8797 21.4207 60.458 21.2007 60.062 20.944C59.666 20.6873 59.314 20.4013 59.006 20.086L59.875 18.667C59.9483 18.5643 60.0437 18.48 60.161 18.414C60.2783 18.3407 60.403 18.304 60.535 18.304C60.7183 18.304 60.9163 18.381 61.129 18.535C61.3417 18.6817 61.5947 18.8467 61.888 19.03C62.1813 19.2133 62.5223 19.382 62.911 19.536C63.307 19.6827 63.78 19.756 64.33 19.756C65.1733 19.756 65.826 19.558 66.288 19.162C66.75 18.7587 66.981 18.183 66.981 17.435C66.981 17.017 66.8747 16.676 66.662 16.412C66.4567 16.148 66.1817 15.928 65.837 15.752C65.4923 15.5687 65.1 15.4147 64.66 15.29C64.22 15.1653 63.7727 15.0297 63.318 14.883C62.8633 14.7363 62.416 14.5603 61.976 14.355C61.536 14.1497 61.1437 13.882 60.799 13.552C60.4543 13.222 60.1757 12.8113 59.963 12.32C59.7577 11.8213 59.655 11.209 59.655 10.483C59.655 9.90367 59.7687 9.339 59.996 8.789C60.2307 8.239 60.568 7.75133 61.008 7.326C61.448 6.90067 61.9907 6.55967 62.636 6.303C63.2813 6.04633 64.022 5.918 64.858 5.918C65.7967 5.918 66.662 6.06467 67.454 6.358C68.246 6.65133 68.9207 7.062 69.478 7.59L68.741 8.987ZM87.5142 14.047C87.5142 15.213 87.3199 16.2947 86.9312 17.292C86.5499 18.282 86.0072 19.14 85.3032 19.866C84.5992 20.592 83.7522 21.1603 82.7622 21.571C81.7722 21.9743 80.6722 22.176 79.4622 22.176C78.2596 22.176 77.1632 21.9743 76.1732 21.571C75.1832 21.1603 74.3326 20.592 73.6212 19.866C72.9172 19.14 72.3709 18.282 71.9822 17.292C71.5936 16.2947 71.3992 15.213 71.3992 14.047C71.3992 12.881 71.5936 11.803 71.9822 10.813C72.3709 9.81567 72.9172 8.954 73.6212 8.228C74.3326 7.502 75.1832 6.93733 76.1732 6.534C77.1632 6.12333 78.2596 5.918 79.4622 5.918C80.2689 5.918 81.0279 6.01333 81.7392 6.204C82.4506 6.38733 83.1032 6.65133 83.6972 6.996C84.2912 7.33333 84.8229 7.74767 85.2922 8.239C85.7689 8.723 86.1722 9.26567 86.5022 9.867C86.8322 10.4683 87.0816 11.121 87.2502 11.825C87.4262 12.529 87.5142 13.2697 87.5142 14.047ZM84.4892 14.047C84.4892 13.1743 84.3719 12.3933 84.1372 11.704C83.9026 11.0073 83.5689 10.417 83.1362 9.933C82.7036 9.449 82.1756 9.07867 81.5522 8.822C80.9362 8.56533 80.2396 8.437 79.4622 8.437C78.6849 8.437 77.9846 8.56533 77.3612 8.822C76.7452 9.07867 76.2172 9.449 75.7772 9.933C75.3446 10.417 75.0109 11.0073 74.7762 11.704C74.5416 12.3933 74.4242 13.1743 74.4242 14.047C74.4242 14.9197 74.5416 15.7043 74.7762 16.401C75.0109 17.0903 75.3446 17.677 75.7772 18.161C76.2172 18.6377 76.7452 19.0043 77.3612 19.261C77.9846 19.5177 78.6849 19.646 79.4622 19.646C80.2396 19.646 80.9362 19.5177 81.5522 19.261C82.1756 19.0043 82.7036 18.6377 83.1362 18.161C83.5689 17.677 83.9026 17.0903 84.1372 16.401C84.3719 15.7043 84.4892 14.9197 84.4892 14.047ZM99.4298 19.558V22H90.1128V6.094H93.0718V19.558H99.4298ZM116.153 14.047C116.153 15.213 115.959 16.2947 115.57 17.292C115.189 18.282 114.646 19.14 113.942 19.866C113.238 20.592 112.391 21.1603 111.401 21.571C110.411 21.9743 109.311 22.176 108.101 22.176C106.898 22.176 105.802 21.9743 104.812 21.571C103.822 21.1603 102.971 20.592 102.26 19.866C101.556 19.14 101.01 18.282 100.621 17.292C100.232 16.2947 100.038 15.213 100.038 14.047C100.038 12.881 100.232 11.803 100.621 10.813C101.01 9.81567 101.556 8.954 102.26 8.228C102.971 7.502 103.822 6.93733 104.812 6.534C105.802 6.12333 106.898 5.918 108.101 5.918C108.908 5.918 109.667 6.01333 110.378 6.204C111.089 6.38733 111.742 6.65133 112.336 6.996C112.93 7.33333 113.462 7.74767 113.931 8.239C114.408 8.723 114.811 9.26567 115.141 9.867C115.471 10.4683 115.72 11.121 115.889 11.825C116.065 12.529 116.153 13.2697 116.153 14.047ZM113.128 14.047C113.128 13.1743 113.011 12.3933 112.776 11.704C112.541 11.0073 112.208 10.417 111.775 9.933C111.342 9.449 110.814 9.07867 110.191 8.822C109.575 8.56533 108.878 8.437 108.101 8.437C107.324 8.437 106.623 8.56533 106 8.822C105.384 9.07867 104.856 9.449 104.416 9.933C103.983 10.417 103.65 11.0073 103.415 11.704C103.18 12.3933 103.063 13.1743 103.063 14.047C103.063 14.9197 103.18 15.7043 103.415 16.401C103.65 17.0903 103.983 17.677 104.416 18.161C104.856 18.6377 105.384 19.0043 106 19.261C106.623 19.5177 107.324 19.646 108.101 19.646C108.878 19.646 109.575 19.5177 110.191 19.261C110.814 19.0043 111.342 18.6377 111.775 18.161C112.208 17.677 112.541 17.0903 112.776 16.401C113.011 15.7043 113.128 14.9197 113.128 14.047ZM69.9 35.272C69.9 36.1307 69.764 36.912 69.492 37.616C69.22 38.32 68.836 38.9227 68.34 39.424C67.844 39.9253 67.2467 40.3147 66.548 40.592C65.8547 40.864 65.0867 41 64.244 41H59.964V29.536H64.244C65.0867 29.536 65.8547 29.6747 66.548 29.952C67.2467 30.224 67.844 30.6133 68.34 31.12C68.836 31.6213 69.22 32.224 69.492 32.928C69.764 33.632 69.9 34.4133 69.9 35.272ZM68.308 35.272C68.308 34.568 68.212 33.9387 68.02 33.384C67.828 32.8293 67.556 32.36 67.204 31.976C66.852 31.592 66.4253 31.2987 65.924 31.096C65.4227 30.8933 64.8627 30.792 64.244 30.792H61.516V39.744H64.244C64.8627 39.744 65.4227 39.6427 65.924 39.44C66.4253 39.2373 66.852 38.9467 67.204 38.568C67.556 38.184 67.828 37.7147 68.02 37.16C68.212 36.6053 68.308 35.976 68.308 35.272ZM77.1145 36.064C77.1145 35.7333 77.0665 35.432 76.9705 35.16C76.8798 34.8827 76.7438 34.6453 76.5625 34.448C76.3865 34.2453 76.1705 34.0907 75.9145 33.984C75.6585 33.872 75.3678 33.816 75.0425 33.816C74.3598 33.816 73.8185 34.016 73.4185 34.416C73.0238 34.8107 72.7785 35.36 72.6825 36.064H77.1145ZM78.2665 39.864C78.0905 40.0773 77.8798 40.264 77.6345 40.424C77.3892 40.5787 77.1252 40.7067 76.8425 40.808C76.5652 40.9093 76.2772 40.984 75.9785 41.032C75.6798 41.0853 75.3838 41.112 75.0905 41.112C74.5305 41.112 74.0132 41.0187 73.5385 40.832C73.0692 40.64 72.6612 40.3627 72.3145 40C71.9732 39.632 71.7065 39.1787 71.5145 38.64C71.3225 38.1013 71.2265 37.4827 71.2265 36.784C71.2265 36.2187 71.3118 35.6907 71.4825 35.2C71.6585 34.7093 71.9092 34.2853 72.2345 33.928C72.5598 33.5653 72.9572 33.2827 73.4265 33.08C73.8958 32.872 74.4238 32.768 75.0105 32.768C75.4958 32.768 75.9438 32.8507 76.3545 33.016C76.7705 33.176 77.1278 33.4107 77.4265 33.72C77.7305 34.024 77.9678 34.4027 78.1385 34.856C78.3092 35.304 78.3945 35.816 78.3945 36.392C78.3945 36.616 78.3705 36.7653 78.3225 36.84C78.2745 36.9147 78.1838 36.952 78.0505 36.952H72.6345C72.6505 37.464 72.7198 37.9093 72.8425 38.288C72.9705 38.6667 73.1465 38.984 73.3705 39.24C73.5945 39.4907 73.8612 39.68 74.1705 39.808C74.4798 39.9307 74.8265 39.992 75.2105 39.992C75.5678 39.992 75.8745 39.952 76.1305 39.872C76.3918 39.7867 76.6158 39.696 76.8025 39.6C76.9892 39.504 77.1438 39.416 77.2665 39.336C77.3945 39.2507 77.5038 39.208 77.5945 39.208C77.7118 39.208 77.8025 39.2533 77.8665 39.344L78.2665 39.864ZM81.4876 34.072C81.6636 33.8747 81.8503 33.696 82.0476 33.536C82.245 33.376 82.453 33.24 82.6716 33.128C82.8956 33.0107 83.1303 32.9227 83.3756 32.864C83.6263 32.8 83.8956 32.768 84.1836 32.768C84.6263 32.768 85.0156 32.8427 85.3516 32.992C85.693 33.136 85.9756 33.344 86.1996 33.616C86.429 33.8827 86.6023 34.2053 86.7196 34.584C86.837 34.9627 86.8956 35.3813 86.8956 35.84V41H85.4636V35.84C85.4636 35.2267 85.3223 34.752 85.0396 34.416C84.7623 34.0747 84.3383 33.904 83.7676 33.904C83.3463 33.904 82.9516 34.0053 82.5836 34.208C82.221 34.4107 81.885 34.6853 81.5756 35.032V41H80.1436V32.896H80.9996C81.2023 32.896 81.3276 32.9947 81.3756 33.192L81.4876 34.072ZM91.4441 41.128C90.8041 41.128 90.3108 40.9493 89.9641 40.592C89.6228 40.2347 89.4521 39.72 89.4521 39.048V34.088H88.4761C88.3908 34.088 88.3188 34.064 88.2601 34.016C88.2015 33.9627 88.1721 33.8827 88.1721 33.776V33.208L89.5001 33.04L89.8281 30.536C89.8441 30.456 89.8788 30.392 89.9321 30.344C89.9908 30.2907 90.0655 30.264 90.1561 30.264H90.8761V33.056H93.2201V34.088H90.8761V38.952C90.8761 39.2933 90.9588 39.5467 91.1241 39.712C91.2895 39.8773 91.5028 39.96 91.7641 39.96C91.9135 39.96 92.0415 39.9413 92.1481 39.904C92.2601 39.8613 92.3561 39.816 92.4361 39.768C92.5161 39.72 92.5828 39.6773 92.6361 39.64C92.6948 39.5973 92.7455 39.576 92.7881 39.576C92.8628 39.576 92.9295 39.6213 92.9881 39.712L93.4041 40.392C93.1588 40.6213 92.8628 40.8027 92.5161 40.936C92.1695 41.064 91.8121 41.128 91.4441 41.128ZM99.0825 37.352C98.4265 37.3733 97.8665 37.4267 97.4025 37.512C96.9438 37.592 96.5678 37.6987 96.2745 37.832C95.9865 37.9653 95.7758 38.1227 95.6425 38.304C95.5145 38.4853 95.4505 38.688 95.4505 38.912C95.4505 39.1253 95.4852 39.3093 95.5545 39.464C95.6238 39.6187 95.7172 39.7467 95.8345 39.848C95.9572 39.944 96.0985 40.016 96.2585 40.064C96.4238 40.1067 96.5998 40.128 96.7865 40.128C97.0372 40.128 97.2665 40.104 97.4745 40.056C97.6825 40.0027 97.8772 39.928 98.0585 39.832C98.2452 39.736 98.4212 39.6213 98.5865 39.488C98.7572 39.3547 98.9225 39.2027 99.0825 39.032V37.352ZM94.4825 34.04C94.9305 33.608 95.4132 33.2853 95.9305 33.072C96.4478 32.8587 97.0212 32.752 97.6505 32.752C98.1038 32.752 98.5065 32.8267 98.8585 32.976C99.2105 33.1253 99.5065 33.3333 99.7465 33.6C99.9865 33.8667 100.168 34.1893 100.291 34.568C100.413 34.9467 100.475 35.3627 100.475 35.816V41H99.8425C99.7038 41 99.5972 40.9787 99.5225 40.936C99.4478 40.888 99.3892 40.7973 99.3465 40.664L99.1865 39.896C98.9732 40.0933 98.7652 40.2693 98.5625 40.424C98.3598 40.5733 98.1465 40.7013 97.9225 40.808C97.6985 40.9093 97.4585 40.9867 97.2025 41.04C96.9518 41.0987 96.6718 41.128 96.3625 41.128C96.0478 41.128 95.7518 41.0853 95.4745 41C95.1972 40.9093 94.9545 40.776 94.7465 40.6C94.5438 40.424 94.3812 40.2027 94.2585 39.936C94.1412 39.664 94.0825 39.344 94.0825 38.976C94.0825 38.656 94.1705 38.3493 94.3465 38.056C94.5225 37.7573 94.8078 37.4933 95.2025 37.264C95.5972 37.0347 96.1118 36.848 96.7465 36.704C97.3812 36.5547 98.1598 36.4693 99.0825 36.448V35.816C99.0825 35.1867 98.9465 34.712 98.6745 34.392C98.4025 34.0667 98.0052 33.904 97.4825 33.904C97.1305 33.904 96.8345 33.9493 96.5945 34.04C96.3598 34.1253 96.1545 34.224 95.9785 34.336C95.8078 34.4427 95.6585 34.5413 95.5305 34.632C95.4078 34.7173 95.2852 34.76 95.1625 34.76C95.0665 34.76 94.9838 34.736 94.9145 34.688C94.8452 34.6347 94.7865 34.5707 94.7385 34.496L94.4825 34.04ZM104.116 29.216V41H102.692V29.216H104.116ZM118.903 38.632C118.988 38.632 119.063 38.6667 119.127 38.736L119.743 39.4C119.273 39.944 118.703 40.368 118.031 40.672C117.364 40.976 116.556 41.128 115.607 41.128C114.785 41.128 114.039 40.9867 113.367 40.704C112.695 40.416 112.121 40.016 111.647 39.504C111.172 38.9867 110.804 38.368 110.543 37.648C110.281 36.928 110.151 36.136 110.151 35.272C110.151 34.408 110.287 33.616 110.559 32.896C110.831 32.176 111.212 31.5573 111.703 31.04C112.199 30.5227 112.791 30.1227 113.479 29.84C114.167 29.552 114.927 29.408 115.759 29.408C116.575 29.408 117.295 29.5387 117.919 29.8C118.543 30.0613 119.092 30.416 119.567 30.864L119.055 31.576C119.023 31.6293 118.98 31.6747 118.927 31.712C118.879 31.744 118.812 31.76 118.727 31.76C118.631 31.76 118.513 31.7093 118.375 31.608C118.236 31.5013 118.055 31.384 117.831 31.256C117.607 31.128 117.327 31.0133 116.991 30.912C116.655 30.8053 116.241 30.752 115.751 30.752C115.159 30.752 114.617 30.856 114.127 31.064C113.636 31.2667 113.212 31.5627 112.855 31.952C112.503 32.3413 112.228 32.816 112.031 33.376C111.833 33.936 111.735 34.568 111.735 35.272C111.735 35.9867 111.836 36.624 112.039 37.184C112.247 37.744 112.527 38.2187 112.879 38.608C113.236 38.992 113.655 39.2853 114.135 39.488C114.62 39.6907 115.143 39.792 115.703 39.792C116.044 39.792 116.351 39.7733 116.623 39.736C116.9 39.6933 117.153 39.6293 117.383 39.544C117.617 39.4587 117.833 39.352 118.031 39.224C118.233 39.0907 118.433 38.9333 118.631 38.752C118.721 38.672 118.812 38.632 118.903 38.632ZM122.678 29.216V41H121.254V29.216H122.678ZM126.491 32.896V41H125.067V32.896H126.491ZM126.795 30.352C126.795 30.4907 126.766 30.6213 126.707 30.744C126.654 30.8613 126.579 30.968 126.483 31.064C126.393 31.1547 126.283 31.2267 126.155 31.28C126.033 31.3333 125.902 31.36 125.763 31.36C125.625 31.36 125.494 31.3333 125.371 31.28C125.254 31.2267 125.15 31.1547 125.059 31.064C124.969 30.968 124.897 30.8613 124.843 30.744C124.79 30.6213 124.763 30.4907 124.763 30.352C124.763 30.2133 124.79 30.0827 124.843 29.96C124.897 29.832 124.969 29.7227 125.059 29.632C125.15 29.536 125.254 29.4613 125.371 29.408C125.494 29.3547 125.625 29.328 125.763 29.328C125.902 29.328 126.033 29.3547 126.155 29.408C126.283 29.4613 126.393 29.536 126.483 29.632C126.579 29.7227 126.654 29.832 126.707 29.96C126.766 30.0827 126.795 30.2133 126.795 30.352ZM130.175 34.072C130.351 33.8747 130.538 33.696 130.735 33.536C130.932 33.376 131.14 33.24 131.359 33.128C131.583 33.0107 131.818 32.9227 132.063 32.864C132.314 32.8 132.583 32.768 132.871 32.768C133.314 32.768 133.703 32.8427 134.039 32.992C134.38 33.136 134.663 33.344 134.887 33.616C135.116 33.8827 135.29 34.2053 135.407 34.584C135.524 34.9627 135.583 35.3813 135.583 35.84V41H134.151V35.84C134.151 35.2267 134.01 34.752 133.727 34.416C133.45 34.0747 133.026 33.904 132.455 33.904C132.034 33.904 131.639 34.0053 131.271 34.208C130.908 34.4107 130.572 34.6853 130.263 35.032V41H128.831V32.896H129.687C129.89 32.896 130.015 32.9947 130.063 33.192L130.175 34.072ZM139.257 32.896V41H137.833V32.896H139.257ZM139.561 30.352C139.561 30.4907 139.532 30.6213 139.473 30.744C139.42 30.8613 139.345 30.968 139.249 31.064C139.158 31.1547 139.049 31.2267 138.921 31.28C138.798 31.3333 138.668 31.36 138.529 31.36C138.39 31.36 138.26 31.3333 138.137 31.28C138.02 31.2267 137.916 31.1547 137.825 31.064C137.734 30.968 137.662 30.8613 137.609 30.744C137.556 30.6213 137.529 30.4907 137.529 30.352C137.529 30.2133 137.556 30.0827 137.609 29.96C137.662 29.832 137.734 29.7227 137.825 29.632C137.916 29.536 138.02 29.4613 138.137 29.408C138.26 29.3547 138.39 29.328 138.529 29.328C138.668 29.328 138.798 29.3547 138.921 29.408C139.049 29.4613 139.158 29.536 139.249 29.632C139.345 29.7227 139.42 29.832 139.473 29.96C139.532 30.0827 139.561 30.2133 139.561 30.352ZM147.237 34.336C147.194 34.3947 147.151 34.44 147.109 34.472C147.066 34.504 147.007 34.52 146.933 34.52C146.853 34.52 146.765 34.488 146.669 34.424C146.573 34.3547 146.453 34.28 146.309 34.2C146.17 34.12 145.997 34.048 145.789 33.984C145.586 33.9147 145.335 33.88 145.037 33.88C144.637 33.88 144.285 33.952 143.981 34.096C143.677 34.2347 143.421 34.4373 143.213 34.704C143.01 34.9707 142.855 35.2933 142.749 35.672C142.647 36.0507 142.597 36.4747 142.597 36.944C142.597 37.4347 142.653 37.872 142.765 38.256C142.877 38.6347 143.034 38.9547 143.237 39.216C143.445 39.472 143.693 39.6693 143.981 39.808C144.274 39.9413 144.602 40.008 144.965 40.008C145.311 40.008 145.597 39.968 145.821 39.888C146.045 39.8027 146.229 39.7093 146.373 39.608C146.522 39.5067 146.645 39.416 146.741 39.336C146.842 39.2507 146.941 39.208 147.037 39.208C147.154 39.208 147.245 39.2533 147.309 39.344L147.709 39.864C147.533 40.0827 147.333 40.2693 147.109 40.424C146.885 40.5787 146.642 40.7093 146.381 40.816C146.125 40.9173 145.855 40.992 145.573 41.04C145.29 41.088 145.002 41.112 144.709 41.112C144.202 41.112 143.73 41.0187 143.293 40.832C142.861 40.6453 142.485 40.376 142.165 40.024C141.845 39.6667 141.594 39.2293 141.413 38.712C141.231 38.1947 141.141 37.6053 141.141 36.944C141.141 36.3413 141.223 35.784 141.389 35.272C141.559 34.76 141.805 34.32 142.125 33.952C142.45 33.5787 142.847 33.288 143.317 33.08C143.791 32.872 144.335 32.768 144.949 32.768C145.519 32.768 146.021 32.8613 146.453 33.048C146.89 33.2293 147.277 33.488 147.613 33.824L147.237 34.336Z" fill="white"/>
</svg>
