<svg width="28" height="28" viewBox="0 0 28 28" fill="none" xmlns="http://www.w3.org/2000/svg">
<g clip-path="url(#clip0_4001_22542)">
<path d="M6.39532 2.32256C6.29202 2.18967 6.16161 2.08028 6.01278 2.00166C5.86394 1.92303 5.70008 1.87698 5.53208 1.86655C5.36408 1.85612 5.19578 1.88156 5.03837 1.94118C4.88095 2.00079 4.73802 2.09322 4.61907 2.21231L2.80957 4.02356C1.96432 4.87056 1.65282 6.06931 2.02207 7.12106C3.55635 11.4735 6.04909 15.4255 9.31607 18.6851C12.5756 21.952 16.5276 24.4448 20.8801 25.9791C21.9318 26.3483 23.1306 26.0368 23.9776 25.1916L25.7871 23.3821C25.9062 23.2631 25.9986 23.1202 26.0582 22.9628C26.1178 22.8054 26.1433 22.6371 26.1328 22.4691C26.1224 22.3011 26.0764 22.1372 25.9977 21.9884C25.9191 21.8395 25.8097 21.7091 25.6768 21.6058L21.6396 18.4663C21.4975 18.3564 21.3323 18.2801 21.1566 18.2432C20.9808 18.2062 20.7989 18.2095 20.6246 18.2528L16.7921 19.2101C16.2805 19.3371 15.7447 19.3298 15.2367 19.1891C14.7287 19.0484 14.2657 18.7789 13.8923 18.4068L9.59432 14.1071C9.22189 13.7339 8.9521 13.2709 8.81108 12.7629C8.67005 12.2549 8.66255 11.7191 8.78932 11.2073L9.74832 7.37481C9.79165 7.20049 9.79495 7.01861 9.75798 6.84283C9.721 6.66704 9.64471 6.50191 9.53482 6.35981L6.39532 2.32256ZM3.29782 0.892813C3.60406 0.586475 3.97197 0.348791 4.37712 0.195545C4.78226 0.0422993 5.21537 -0.0230026 5.64769 0.00397594C6.08001 0.0309544 6.50164 0.149596 6.88459 0.352022C7.26754 0.554449 7.60304 0.836028 7.86882 1.17806L11.0083 5.21356C11.5841 5.95381 11.7871 6.91806 11.5596 7.82806L10.6023 11.6606C10.5532 11.8591 10.556 12.0669 10.6106 12.264C10.6651 12.4611 10.7696 12.6408 10.9138 12.7858L15.2136 17.0856C15.3587 17.2301 15.5387 17.3347 15.7362 17.3893C15.9336 17.4438 16.1418 17.4465 16.3406 17.3971L20.1713 16.4398C20.6204 16.3282 21.089 16.3198 21.5419 16.4153C21.9947 16.5107 22.42 16.7076 22.7858 16.9911L26.8213 20.1306C28.2721 21.2593 28.4051 23.4031 27.1066 24.6998L25.2971 26.5093C24.0021 27.8043 22.0666 28.3731 20.2623 27.7378C15.6435 26.1148 11.4503 23.4709 7.99482 20.0028C4.52698 16.5479 1.88304 12.3553 0.259824 7.73706C-0.373676 5.93456 0.195074 3.99731 1.49007 2.70231L3.29782 0.892813Z" fill="#D00404"/>
</g>
<defs>
<clipPath id="clip0_4001_22542">
<rect width="28" height="28" fill="white"/>
</clipPath>
</defs>
</svg>
