<svg width="24" height="24" viewBox="0 0 24 24" fill="none" xmlns="http://www.w3.org/2000/svg">
<path d="M7.36491 22.2981C6.89224 22.2981 6.48999 22.1322 6.15816 21.8004C5.82616 21.4684 5.66016 21.0662 5.66016 20.5939V3.4064C5.66016 2.93406 5.82616 2.5319 6.15816 2.1999C6.48999 1.86806 6.89224 1.70215 7.36491 1.70215H16.6324C17.1051 1.70215 17.5073 1.86806 17.8392 2.1999C18.1712 2.5319 18.3372 2.93406 18.3372 3.4064V20.5939C18.3372 21.0662 18.1712 21.4684 17.8392 21.8004C17.5073 22.1322 17.1051 22.2981 16.6324 22.2981H7.36491ZM7.05916 19.6089V20.5914C7.05916 20.6684 7.09124 20.739 7.15541 20.8031C7.21957 20.8671 7.29007 20.8991 7.36691 20.8991H16.6304C16.7072 20.8991 16.7777 20.8671 16.8419 20.8031C16.9061 20.739 16.9382 20.6684 16.9382 20.5914V19.6089H7.05916ZM7.05916 18.2099H16.9382V5.7904H7.05916V18.2099ZM7.05916 4.3914H16.9382V3.4089C16.9382 3.3319 16.9061 3.26131 16.8419 3.19715C16.7777 3.13315 16.7072 3.10115 16.6304 3.10115H7.36691C7.29007 3.10115 7.21957 3.13315 7.15541 3.19715C7.09124 3.26131 7.05916 3.3319 7.05916 3.4089V4.3914Z" fill="white"/>
</svg>
