<svg width="24" height="24" viewBox="0 0 24 24" fill="none" xmlns="http://www.w3.org/2000/svg">
<path d="M15.6293 16.2923L16.2908 15.6308L12.4678 11.8041V7.04631H11.5448V12.1923L15.6293 16.2923ZM12.0031 20.8463C10.7799 20.8463 9.62943 20.6139 8.55159 20.1491C7.47376 19.6842 6.53618 19.0535 5.73884 18.2568C4.94151 17.46 4.31109 16.5242 3.84759 15.4496C3.38409 14.3749 3.15234 13.2266 3.15234 12.0046C3.15234 10.7814 3.38476 9.63089 3.84959 8.55306C4.31443 7.47522 4.94518 6.53764 5.74184 5.74031C6.53868 4.94297 7.47443 4.31256 8.54909 3.84906C9.62376 3.38556 10.7721 3.15381 11.9941 3.15381C13.2173 3.15381 14.3678 3.38622 15.4456 3.85106C16.5234 4.31589 17.461 4.94664 18.2583 5.74331C19.0557 6.53997 19.6861 7.47573 20.1496 8.55056C20.6131 9.62523 20.8448 10.7736 20.8448 11.9956C20.8448 13.2187 20.6124 14.3692 20.1476 15.4471C19.6828 16.5249 19.052 17.4625 18.2553 18.2598C17.4587 19.0571 16.5229 19.6876 15.4481 20.1511C14.3734 20.6146 13.2251 20.8463 12.0031 20.8463ZM11.9986 19.9231C14.1928 19.9231 16.0618 19.1511 17.6058 17.6073C19.1497 16.0633 19.9216 14.1942 19.9216 12.0001C19.9216 9.80589 19.1497 7.93681 17.6058 6.39281C16.0618 4.84898 14.1928 4.07706 11.9986 4.07706C9.80443 4.07706 7.93534 4.84898 6.39134 6.39281C4.84751 7.93681 4.07559 9.80589 4.07559 12.0001C4.07559 14.1942 4.84751 16.0633 6.39134 17.6073C7.93534 19.1511 9.80443 19.9231 11.9986 19.9231Z" fill="white"/>
</svg>
