<svg width="54" height="54" viewBox="0 0 54 54" fill="none" xmlns="http://www.w3.org/2000/svg">
<path d="M18.7299 29.169L18.0936 28.5291C17.9273 28.3615 17.7294 28.2285 17.5115 28.1378C17.2935 28.047 17.0598 28.0003 16.8237 28.0003C16.5876 28.0003 16.3538 28.047 16.1359 28.1378C15.9179 28.2285 15.7201 28.3615 15.5538 28.5291L11.7387 32.3604C11.4006 32.7011 11.2109 33.1616 11.2109 33.6416C11.2109 34.1215 11.4006 34.582 11.7387 34.9227L12.3741 35.5608C12.5403 35.7284 12.7381 35.8613 12.956 35.9521C13.1738 36.0428 13.4075 36.0895 13.6435 36.0895C13.8796 36.0895 14.1132 36.0428 14.3311 35.9521C14.549 35.8613 14.7468 35.7284 14.913 35.5608L18.729 31.7295C19.0668 31.3891 19.2565 30.929 19.2567 30.4494C19.2568 29.9699 19.0675 29.5096 18.7299 29.169ZM21.2778 44.5032C21.6188 44.8302 22.073 45.0128 22.5454 45.0128C23.0179 45.0128 23.4721 44.8302 23.8131 44.5032V44.4987L27.6291 40.6719L27.6345 40.6674C27.9716 40.3273 28.1607 39.8678 28.1607 39.389C28.1607 38.9101 27.9716 38.4506 27.6345 38.1105L26.9991 37.4706C26.6577 37.1427 26.2026 36.9596 25.7292 36.9596C25.2558 36.9596 24.8007 37.1427 24.4593 37.4706L20.6442 41.3019C20.3058 41.6421 20.1159 42.1024 20.1159 42.5822C20.1159 43.062 20.3058 43.5223 20.6442 43.8624L21.2778 44.5032ZM25.731 48.9717C25.8972 49.139 26.0948 49.2717 26.3126 49.3623C26.5303 49.4529 26.7637 49.4995 26.9995 49.4995C27.2353 49.4995 27.4688 49.4529 27.6865 49.3623C27.9042 49.2717 28.1019 49.139 28.2681 48.9717L32.0814 45.1413C32.4194 44.8013 32.6092 44.3414 32.6092 43.862C32.6092 43.3825 32.4194 42.9226 32.0814 42.5826L31.4514 41.9382C31.1133 41.6019 30.6556 41.4136 30.1788 41.4144C29.9447 41.4141 29.7129 41.4601 29.4967 41.5497C29.2805 41.6393 29.0841 41.7707 28.9188 41.9364L25.1037 45.7668C24.7666 46.1069 24.5775 46.5664 24.5775 47.0453C24.5775 47.5241 24.7666 47.9836 25.1037 48.3237L25.731 48.9717ZM18.0954 40.5612C18.3317 40.5618 18.5658 40.5153 18.784 40.4244C19.0022 40.3336 19.2001 40.2002 19.3662 40.032L23.1813 36.2016C23.5194 35.8609 23.7091 35.4004 23.7091 34.9205C23.7091 34.4405 23.5194 33.98 23.1813 33.6393L22.5459 32.9994C22.3793 32.8321 22.1814 32.6994 21.9634 32.6088C21.7453 32.5183 21.5116 32.4717 21.2755 32.4717C21.0395 32.4717 20.8057 32.5183 20.5877 32.6088C20.3697 32.6994 20.1718 32.8321 20.0052 32.9994L16.1901 36.8316C15.852 37.1723 15.6623 37.6328 15.6623 38.1128C15.6623 38.5927 15.852 39.0532 16.1901 39.3939L16.8264 40.032C16.9923 40.1999 17.1899 40.3332 17.4077 40.4241C17.6256 40.5149 17.8594 40.5615 18.0954 40.5612Z" fill="#D00404"/>
<path d="M32.0895 22.1499L42.2649 32.3685C42.606 32.6968 43.061 32.8802 43.5344 32.8802C44.0078 32.8802 44.4628 32.6968 44.8038 32.3685L45.4401 31.7295C45.7783 31.3892 45.9681 30.929 45.9681 30.4493C45.9681 29.9695 45.7783 29.5093 45.4401 29.169L31.4487 15.12C31.2788 14.9555 31.0516 14.8635 30.8151 14.8635C30.5786 14.8635 30.3514 14.9555 30.1815 15.12L23.1867 22.14C22.6862 22.6429 22.0913 23.0419 21.4361 23.3142C20.781 23.5865 20.0784 23.7267 19.3689 23.7267C18.6594 23.7267 17.9569 23.5865 17.3017 23.3142C16.6466 23.0419 16.0516 22.6429 15.5511 22.14C15.0463 21.6315 14.763 20.944 14.763 20.2275C14.763 19.511 15.0463 18.8235 15.5511 18.315L25.6986 8.1279C22.9644 5.68988 19.3992 4.39334 15.7376 4.50535C12.0759 4.61737 8.59667 6.12941 6.01654 8.73C3.31982 11.4485 1.80664 15.1226 1.80664 18.9518C1.80664 22.7809 3.31982 26.455 6.01654 29.1735L9.54724 32.7195C9.70275 32.1046 10.019 31.5421 10.4634 31.0896L14.2785 27.2583C14.6122 26.9228 15.009 26.6565 15.4459 26.4748C15.8829 26.2932 16.3514 26.1996 16.8246 26.1996C17.2979 26.1996 17.7664 26.2932 18.2034 26.4748C18.6403 26.6565 19.037 26.9228 19.3707 27.2583L20.0061 27.8982C20.3715 28.2676 20.6523 28.7119 20.8291 29.2005C21.0059 29.689 21.0746 30.2101 21.0303 30.7278C21.5398 30.687 22.0521 30.7552 22.5331 30.9277C23.0142 31.1003 23.453 31.3733 23.8203 31.7286L24.4566 32.3685C24.8177 32.7341 25.0962 33.1729 25.2731 33.6553C25.4501 34.1377 25.5216 34.6524 25.4826 35.1648C25.5645 35.1594 25.6437 35.1414 25.7265 35.1414C26.1999 35.1404 26.6687 35.2335 27.1058 35.4152C27.5428 35.5969 27.9395 35.8636 28.2726 36.1998L28.908 36.8397C29.2735 37.2092 29.5544 37.6537 29.7312 38.1424C29.908 38.6311 29.9766 39.1524 29.9322 39.6702C30.4414 39.6301 30.9533 39.6983 31.4342 39.8704C31.9151 40.0424 32.354 40.3144 32.7222 40.6683L33.3396 41.2983C33.345 41.3028 33.3522 41.3046 33.3567 41.3091C33.5231 41.4767 33.7209 41.6097 33.9388 41.7004C34.1568 41.7912 34.3905 41.8379 34.6266 41.8379C34.8627 41.8379 35.0965 41.7912 35.3144 41.7004C35.5324 41.6097 35.7302 41.4767 35.8965 41.3091L36.5328 40.6692C36.8702 40.3289 37.0595 39.8691 37.0595 39.3899C37.0595 38.9106 36.8702 38.4508 36.5328 38.1105L26.3619 27.891C26.2785 27.8072 26.2124 27.7078 26.1674 27.5984C26.1223 27.4891 26.0993 27.372 26.0995 27.2537C26.0998 27.1354 26.1233 27.0184 26.1688 26.9092C26.2143 26.8001 26.2808 26.7009 26.3646 26.6175C26.4484 26.5341 26.5478 26.4679 26.6572 26.4229C26.7665 26.3779 26.8837 26.3549 27.0019 26.3551C27.2408 26.3556 27.4696 26.451 27.6381 26.6202L37.8135 36.8397C38.1549 37.1674 38.6098 37.3503 39.083 37.3503C39.5562 37.3503 40.011 37.1674 40.3524 36.8397L40.9878 36.2007C41.3258 35.8602 41.5155 35.3998 41.5155 34.92C41.5155 34.4402 41.3258 33.9798 40.9878 33.6393L30.8133 23.4207C30.7299 23.3369 30.6638 23.2375 30.6188 23.1281C30.5737 23.0188 30.5507 22.9016 30.5509 22.7834C30.5512 22.6651 30.5747 22.5481 30.6202 22.4389C30.6657 22.3298 30.7322 22.2306 30.816 22.1472C30.8998 22.0638 30.9992 21.9976 31.1086 21.9526C31.2179 21.9076 31.3351 21.8846 31.4533 21.8848C31.6922 21.8853 31.921 21.9807 32.0895 22.1499Z" fill="#D00404"/>
<path d="M47.6342 29.5272L47.9843 29.1753C50.681 26.4569 52.1942 22.783 52.1942 18.954C52.1942 15.125 50.681 11.4511 47.9843 8.7327C46.6516 7.39214 45.067 6.3283 43.3217 5.60235C41.5763 4.87641 39.7047 4.50269 37.8144 4.50269C35.924 4.50269 34.0524 4.87641 32.307 5.60235C30.5617 6.3283 28.9771 7.39214 27.6443 8.7327L16.8308 19.5894C16.6615 19.76 16.5664 19.9907 16.5664 20.2311C16.5664 20.4715 16.6615 20.7022 16.8308 20.8728C17.5143 21.5294 18.4252 21.896 19.3729 21.896C20.3206 21.896 21.2315 21.5294 21.9149 20.8728L28.9097 13.8528C29.4234 13.36 30.1077 13.0848 30.8195 13.0848C31.5314 13.0848 32.2157 13.36 32.7294 13.8528L46.7172 27.9C47.1618 28.3515 47.4783 28.9131 47.6342 29.5272Z" fill="#D00404"/>
</svg>
